<?xml version="1.0"?>
<svg xmlns="http://www.w3.org/2000/svg" xmlns:xlink="http://www.w3.org/1999/xlink" viewBox="0 0 600.000000 96.000000" width="300.000000mm" height="48.000000mm" version="1.1">
<a xlink:href="process.svg">
<rect x="0.000000" y="0.000000" width="599.000000" height="95.000000" rx="0" ry="0" style="stroke:#000000;fill:#FFFFFF;"/>
</a>
<text x="10.000000" y="7.000000" font-family="Verdana" font-size="7"></text>
<rect x="32.000000" y="36.000000" width="38.700000" height="24.000000" rx="0" ry="0" style="stroke:#000000;fill:#FFFFFF;"/>
<text x="51.350000" y="50.000000" font-family="Verdana" font-size="7" text-anchor="middle" fill="#000000">[8] PM8</text>
<circle cx="34.000000" cy="38.000000" r="1"/>
<rect x="86.700000" y="40.000000" width="24.000000" height="24.000000" rx="0" ry="0" style="stroke:#000000;fill:#FFFFFF;"/>
<text x="98.700000" y="54.000000" font-family="Verdana" font-size="7" text-anchor="middle" fill="#000000">+</text>
<circle cx="88.700000" cy="42.000000" r="1"/>
<line x1="83.700000" y1="47.000000" x2="86.700000" y2="48.000000"  transform="rotate(0.000000,86.700000,48.000000)" style="stroke: black; stroke-width:0.25;"/>
<line x1="83.700000" y1="49.000000" x2="86.700000" y2="48.000000"  transform="rotate(0.000000,86.700000,48.000000)" style="stroke: black; stroke-width:0.25;"/>
<line x1="83.700000" y1="55.000000" x2="86.700000" y2="56.000000"  transform="rotate(0.000000,86.700000,56.000000)" style="stroke: black; stroke-width:0.25;"/>
<line x1="83.700000" y1="57.000000" x2="86.700000" y2="56.000000"  transform="rotate(0.000000,86.700000,56.000000)" style="stroke: black; stroke-width:0.25;"/>
<rect x="126.700000" y="44.000000" width="51.600000" height="24.000000" rx="0" ry="0" style="stroke:#000000;fill:#FFFFFF;"/>
<text x="152.500000" y="58.000000" font-family="Verdana" font-size="7" text-anchor="middle" fill="#000000">-0.74535596f</text>
<circle cx="128.700000" cy="46.000000" r="1"/>
<rect x="194.300000" y="40.000000" width="24.000000" height="24.000000" rx="0" ry="0" style="stroke:#000000;fill:#FFFFFF;"/>
<text x="206.300000" y="54.000000" font-family="Verdana" font-size="7" text-anchor="middle" fill="#000000">*</text>
<circle cx="196.300000" cy="42.000000" r="1"/>
<line x1="191.300000" y1="47.000000" x2="194.300000" y2="48.000000"  transform="rotate(0.000000,194.300000,48.000000)" style="stroke: black; stroke-width:0.25;"/>
<line x1="191.300000" y1="49.000000" x2="194.300000" y2="48.000000"  transform="rotate(0.000000,194.300000,48.000000)" style="stroke: black; stroke-width:0.25;"/>
<line x1="191.300000" y1="55.000000" x2="194.300000" y2="56.000000"  transform="rotate(0.000000,194.300000,56.000000)" style="stroke: black; stroke-width:0.25;"/>
<line x1="191.300000" y1="57.000000" x2="194.300000" y2="56.000000"  transform="rotate(0.000000,194.300000,56.000000)" style="stroke: black; stroke-width:0.25;"/>
<rect x="248.300000" y="40.000000" width="38.700000" height="24.000000" rx="0" ry="0" style="stroke:#000000;fill:#FFFFFF;"/>
<text x="267.650000" y="54.000000" font-family="Verdana" font-size="7" text-anchor="middle" fill="#000000">[8] PM8</text>
<circle cx="250.300000" cy="42.000000" r="1"/>
<rect x="303.000000" y="36.000000" width="24.000000" height="24.000000" rx="0" ry="0" style="stroke:#000000;fill:#FFFFFF;"/>
<text x="315.000000" y="50.000000" font-family="Verdana" font-size="7" text-anchor="middle" fill="#000000">+</text>
<circle cx="305.000000" cy="38.000000" r="1"/>
<line x1="300.000000" y1="43.000000" x2="303.000000" y2="44.000000"  transform="rotate(0.000000,303.000000,44.000000)" style="stroke: black; stroke-width:0.25;"/>
<line x1="300.000000" y1="45.000000" x2="303.000000" y2="44.000000"  transform="rotate(0.000000,303.000000,44.000000)" style="stroke: black; stroke-width:0.25;"/>
<line x1="300.000000" y1="51.000000" x2="303.000000" y2="52.000000"  transform="rotate(0.000000,303.000000,52.000000)" style="stroke: black; stroke-width:0.25;"/>
<line x1="300.000000" y1="53.000000" x2="303.000000" y2="52.000000"  transform="rotate(0.000000,303.000000,52.000000)" style="stroke: black; stroke-width:0.25;"/>
<a xlink:href="delay-0x60000106cf30.svg">
<rect x="343.000000" y="36.000000" width="129.000000" height="24.000000" rx="0" ry="0" style="stroke:#000000;fill:#FFFFFF;"/>
</a>
<a xlink:href="delay-0x60000106cf30.svg">
<text x="407.500000" y="50.000000" font-family="Verdana" font-size="7" text-anchor="middle" fill="#000000">delay(1.92e+0...: int),1 : -)</text>
</a>
<circle cx="345.000000" cy="38.000000" r="1"/>
<line x1="340.000000" y1="47.000000" x2="343.000000" y2="48.000000"  transform="rotate(0.000000,343.000000,48.000000)" style="stroke: black; stroke-width:0.25;"/>
<line x1="340.000000" y1="49.000000" x2="343.000000" y2="48.000000"  transform="rotate(0.000000,343.000000,48.000000)" style="stroke: black; stroke-width:0.25;"/>
<polygon fill="#ffffff" stroke="black" stroke-width=".25" points="258.000000,20.500000 249.000000,24.000000 258.000000,27.500000"/>
<circle  fill="#ffffff" stroke="black" stroke-width=".25" cx="247.500000" cy="24.000000" r="1.500000"/>
<line x1="474.000000" y1="48.000000" x2="474.000000" y2="44.000000"  style="stroke:black; stroke-linecap:round; stroke-width:0.25;"/>
<line x1="474.000000" y1="44.000000" x2="478.000000" y2="44.000000"  style="stroke:black; stroke-linecap:round; stroke-width:0.25;"/>
<line x1="478.000000" y1="44.000000" x2="478.000000" y2="48.000000"  style="stroke:black; stroke-linecap:round; stroke-width:0.25;"/>
<rect x="504.000000" y="32.000000" width="24.000000" height="24.000000" rx="0" ry="0" style="stroke:#000000;fill:#FFFFFF;"/>
<text x="516.000000" y="46.000000" font-family="Verdana" font-size="7" text-anchor="middle" fill="#000000">mem</text>
<circle cx="506.000000" cy="34.000000" r="1"/>
<line x1="501.000000" y1="43.000000" x2="504.000000" y2="44.000000"  transform="rotate(0.000000,504.000000,44.000000)" style="stroke: black; stroke-width:0.25;"/>
<line x1="501.000000" y1="45.000000" x2="504.000000" y2="44.000000"  transform="rotate(0.000000,504.000000,44.000000)" style="stroke: black; stroke-width:0.25;"/>
<rect x="544.000000" y="36.000000" width="24.000000" height="24.000000" rx="0" ry="0" style="stroke:#000000;fill:#FFFFFF;"/>
<text x="556.000000" y="50.000000" font-family="Verdana" font-size="7" text-anchor="middle" fill="#000000">+</text>
<circle cx="546.000000" cy="38.000000" r="1"/>
<line x1="541.000000" y1="43.000000" x2="544.000000" y2="44.000000"  transform="rotate(0.000000,544.000000,44.000000)" style="stroke: black; stroke-width:0.25;"/>
<line x1="541.000000" y1="45.000000" x2="544.000000" y2="44.000000"  transform="rotate(0.000000,544.000000,44.000000)" style="stroke: black; stroke-width:0.25;"/>
<line x1="541.000000" y1="51.000000" x2="544.000000" y2="52.000000"  transform="rotate(0.000000,544.000000,52.000000)" style="stroke: black; stroke-width:0.25;"/>
<line x1="541.000000" y1="53.000000" x2="544.000000" y2="52.000000"  transform="rotate(0.000000,544.000000,52.000000)" style="stroke: black; stroke-width:0.25;"/>
<line x1="15.000000" y1="15.000000" x2="15.000000" y2="81.000000"  style="stroke: black; stroke-linecap:round; stroke-width:0.25; stroke-dasharray:3,3;"/>
<line x1="15.000000" y1="81.000000" x2="585.000000" y2="81.000000"  style="stroke: black; stroke-linecap:round; stroke-width:0.25; stroke-dasharray:3,3;"/>
<line x1="585.000000" y1="81.000000" x2="585.000000" y2="15.000000"  style="stroke: black; stroke-linecap:round; stroke-width:0.25; stroke-dasharray:3,3;"/>
<line x1="15.000000" y1="15.000000" x2="20.000000" y2="15.000000"  style="stroke: black; stroke-linecap:round; stroke-width:0.25; stroke-dasharray:3,3;"/>
<line x1="132.875000" y1="15.000000" x2="585.000000" y2="15.000000"  style="stroke: black; stroke-linecap:round; stroke-width:0.25; stroke-dasharray:3,3;"/>
<text x="20.000000" y="17.000000" font-family="Verdana" font-size="7">apf((hslider(...(0.74535596f)(x8)</text>
<line x1="587.000000" y1="47.000000" x2="590.000000" y2="48.000000"  transform="rotate(0.000000,590.000000,48.000000)" style="stroke: black; stroke-width:0.25;"/>
<line x1="587.000000" y1="49.000000" x2="590.000000" y2="48.000000"  transform="rotate(0.000000,590.000000,48.000000)" style="stroke: black; stroke-width:0.25;"/>
<line x1="28.000000" y1="68.000000" x2="51.350000" y2="68.000000"  style="stroke:black; stroke-linecap:round; stroke-width:0.25;"/>
<line x1="28.000000" y1="24.000000" x2="28.000000" y2="24.000000"  style="stroke:black; stroke-linecap:round; stroke-width:0.25;"/>
<line x1="28.000000" y1="24.000000" x2="28.000000" y2="68.000000"  style="stroke:black; stroke-linecap:round; stroke-width:0.25;"/>
<line x1="28.000000" y1="68.000000" x2="28.000000" y2="68.000000"  style="stroke:black; stroke-linecap:round; stroke-width:0.25;"/>
<line x1="51.350000" y1="68.000000" x2="74.700000" y2="68.000000"  style="stroke:black; stroke-linecap:round; stroke-width:0.25;"/>
<line x1="70.700000" y1="48.000000" x2="74.700000" y2="48.000000"  style="stroke:black; stroke-linecap:round; stroke-width:0.25;"/>
<line x1="74.700000" y1="48.000000" x2="82.700000" y2="48.000000"  style="stroke:black; stroke-linecap:round; stroke-width:0.25;"/>
<line x1="74.700000" y1="56.000000" x2="82.700000" y2="56.000000"  style="stroke:black; stroke-linecap:round; stroke-width:0.25;"/>
<line x1="74.700000" y1="68.000000" x2="74.700000" y2="56.000000"  style="stroke:black; stroke-linecap:round; stroke-width:0.25;"/>
<line x1="74.700000" y1="68.000000" x2="74.700000" y2="68.000000"  style="stroke:black; stroke-linecap:round; stroke-width:0.25;"/>
<line x1="82.700000" y1="48.000000" x2="86.700000" y2="48.000000"  style="stroke:black; stroke-linecap:round; stroke-width:0.25;"/>
<line x1="82.700000" y1="56.000000" x2="86.700000" y2="56.000000"  style="stroke:black; stroke-linecap:round; stroke-width:0.25;"/>
<line x1="110.700000" y1="52.000000" x2="114.700000" y2="52.000000"  style="stroke:black; stroke-linecap:round; stroke-width:0.25;"/>
<line x1="114.700000" y1="36.000000" x2="122.700000" y2="36.000000"  style="stroke:black; stroke-linecap:round; stroke-width:0.25;"/>
<line x1="114.700000" y1="52.000000" x2="114.700000" y2="36.000000"  style="stroke:black; stroke-linecap:round; stroke-width:0.25;"/>
<line x1="114.700000" y1="52.000000" x2="114.700000" y2="52.000000"  style="stroke:black; stroke-linecap:round; stroke-width:0.25;"/>
<line x1="122.700000" y1="36.000000" x2="152.500000" y2="36.000000"  style="stroke:black; stroke-linecap:round; stroke-width:0.25;"/>
<line x1="152.500000" y1="36.000000" x2="182.300000" y2="36.000000"  style="stroke:black; stroke-linecap:round; stroke-width:0.25;"/>
<line x1="178.300000" y1="56.000000" x2="182.300000" y2="56.000000"  style="stroke:black; stroke-linecap:round; stroke-width:0.25;"/>
<line x1="182.300000" y1="56.000000" x2="190.300000" y2="56.000000"  style="stroke:black; stroke-linecap:round; stroke-width:0.25;"/>
<line x1="182.300000" y1="36.000000" x2="190.300000" y2="36.000000"  style="stroke:black; stroke-linecap:round; stroke-width:0.25;"/>
<line x1="190.300000" y1="48.000000" x2="194.300000" y2="48.000000"  style="stroke:black; stroke-linecap:round; stroke-width:0.25;"/>
<line x1="190.300000" y1="56.000000" x2="194.300000" y2="56.000000"  style="stroke:black; stroke-linecap:round; stroke-width:0.25;"/>
<line x1="190.300000" y1="36.000000" x2="190.300000" y2="48.000000"  style="stroke:black; stroke-linecap:round; stroke-width:0.25;"/>
<line x1="190.300000" y1="48.000000" x2="190.300000" y2="48.000000"  style="stroke:black; stroke-linecap:round; stroke-width:0.25;"/>
<line x1="218.300000" y1="52.000000" x2="222.300000" y2="52.000000"  style="stroke:black; stroke-linecap:round; stroke-width:0.25;"/>
<line x1="222.300000" y1="52.000000" x2="244.300000" y2="32.000000"  style="stroke:black; stroke-linecap:round; stroke-width:0.25;"/>
<line x1="222.300000" y1="52.000000" x2="244.300000" y2="72.000000"  style="stroke:black; stroke-linecap:round; stroke-width:0.25;"/>
<line x1="242.000000" y1="24.000000" x2="28.000000" y2="24.000000"  style="stroke:black; stroke-linecap:round; stroke-width:0.25;"/>
<line x1="244.300000" y1="32.000000" x2="267.650000" y2="32.000000"  style="stroke:black; stroke-linecap:round; stroke-width:0.25;"/>
<line x1="244.300000" y1="72.000000" x2="287.650000" y2="72.000000"  style="stroke:black; stroke-linecap:round; stroke-width:0.25;"/>
<line x1="246.000000" y1="24.000000" x2="242.000000" y2="24.000000"  style="stroke:black; stroke-linecap:round; stroke-width:0.25;"/>
<line x1="262.000000" y1="24.000000" x2="258.000000" y2="24.000000"  style="stroke:black; stroke-linecap:round; stroke-width:0.25;"/>
<line x1="267.650000" y1="32.000000" x2="291.000000" y2="32.000000"  style="stroke:black; stroke-linecap:round; stroke-width:0.25;"/>
<line x1="287.000000" y1="52.000000" x2="291.000000" y2="52.000000"  style="stroke:black; stroke-linecap:round; stroke-width:0.25;"/>
<line x1="287.650000" y1="72.000000" x2="331.000000" y2="72.000000"  style="stroke:black; stroke-linecap:round; stroke-width:0.25;"/>
<line x1="291.000000" y1="32.000000" x2="299.000000" y2="32.000000"  style="stroke:black; stroke-linecap:round; stroke-width:0.25;"/>
<line x1="291.000000" y1="52.000000" x2="299.000000" y2="52.000000"  style="stroke:black; stroke-linecap:round; stroke-width:0.25;"/>
<line x1="299.000000" y1="32.000000" x2="299.000000" y2="44.000000"  style="stroke:black; stroke-linecap:round; stroke-width:0.25;"/>
<line x1="299.000000" y1="44.000000" x2="299.000000" y2="44.000000"  style="stroke:black; stroke-linecap:round; stroke-width:0.25;"/>
<line x1="299.000000" y1="44.000000" x2="303.000000" y2="44.000000"  style="stroke:black; stroke-linecap:round; stroke-width:0.25;"/>
<line x1="299.000000" y1="52.000000" x2="303.000000" y2="52.000000"  style="stroke:black; stroke-linecap:round; stroke-width:0.25;"/>
<line x1="327.000000" y1="48.000000" x2="331.000000" y2="48.000000"  style="stroke:black; stroke-linecap:round; stroke-width:0.25;"/>
<line x1="331.000000" y1="48.000000" x2="339.000000" y2="48.000000"  style="stroke:black; stroke-linecap:round; stroke-width:0.25;"/>
<line x1="331.000000" y1="68.000000" x2="339.000000" y2="68.000000"  style="stroke:black; stroke-linecap:round; stroke-width:0.25;"/>
<line x1="331.000000" y1="72.000000" x2="331.000000" y2="68.000000"  style="stroke:black; stroke-linecap:round; stroke-width:0.25;"/>
<line x1="331.000000" y1="72.000000" x2="331.000000" y2="72.000000"  style="stroke:black; stroke-linecap:round; stroke-width:0.25;"/>
<line x1="339.000000" y1="48.000000" x2="343.000000" y2="48.000000"  style="stroke:black; stroke-linecap:round; stroke-width:0.25;"/>
<line x1="339.000000" y1="68.000000" x2="407.500000" y2="68.000000"  style="stroke:black; stroke-linecap:round; stroke-width:0.25;"/>
<line x1="407.500000" y1="68.000000" x2="476.000000" y2="68.000000"  style="stroke:black; stroke-linecap:round; stroke-width:0.25;"/>
<line x1="472.000000" y1="48.000000" x2="476.000000" y2="48.000000"  style="stroke:black; stroke-linecap:round; stroke-width:0.25;"/>
<line x1="476.000000" y1="24.000000" x2="262.000000" y2="24.000000"  style="stroke:black; stroke-linecap:round; stroke-width:0.25;"/>
<line x1="476.000000" y1="24.000000" x2="476.000000" y2="24.000000"  style="stroke:black; stroke-linecap:round; stroke-width:0.25;"/>
<line x1="476.000000" y1="44.000000" x2="476.000000" y2="24.000000"  style="stroke:black; stroke-linecap:round; stroke-width:0.25;"/>
<line x1="476.000000" y1="48.000000" x2="478.000000" y2="48.000000"  style="stroke:black; stroke-linecap:round; stroke-width:0.25;"/>
<line x1="476.000000" y1="68.000000" x2="484.000000" y2="68.000000"  style="stroke:black; stroke-linecap:round; stroke-width:0.25;"/>
<line x1="478.000000" y1="48.000000" x2="484.000000" y2="48.000000"  style="stroke:black; stroke-linecap:round; stroke-width:0.25;"/>
<line x1="484.000000" y1="44.000000" x2="500.000000" y2="44.000000"  style="stroke:black; stroke-linecap:round; stroke-width:0.25;"/>
<line x1="484.000000" y1="48.000000" x2="484.000000" y2="44.000000"  style="stroke:black; stroke-linecap:round; stroke-width:0.25;"/>
<line x1="484.000000" y1="48.000000" x2="484.000000" y2="48.000000"  style="stroke:black; stroke-linecap:round; stroke-width:0.25;"/>
<line x1="484.000000" y1="68.000000" x2="492.000000" y2="68.000000"  style="stroke:black; stroke-linecap:round; stroke-width:0.25;"/>
<line x1="492.000000" y1="64.000000" x2="500.000000" y2="64.000000"  style="stroke:black; stroke-linecap:round; stroke-width:0.25;"/>
<line x1="492.000000" y1="68.000000" x2="492.000000" y2="64.000000"  style="stroke:black; stroke-linecap:round; stroke-width:0.25;"/>
<line x1="500.000000" y1="44.000000" x2="504.000000" y2="44.000000"  style="stroke:black; stroke-linecap:round; stroke-width:0.25;"/>
<line x1="500.000000" y1="64.000000" x2="516.000000" y2="64.000000"  style="stroke:black; stroke-linecap:round; stroke-width:0.25;"/>
<line x1="516.000000" y1="64.000000" x2="532.000000" y2="64.000000"  style="stroke:black; stroke-linecap:round; stroke-width:0.25;"/>
<line x1="528.000000" y1="44.000000" x2="532.000000" y2="44.000000"  style="stroke:black; stroke-linecap:round; stroke-width:0.25;"/>
<line x1="532.000000" y1="44.000000" x2="540.000000" y2="44.000000"  style="stroke:black; stroke-linecap:round; stroke-width:0.25;"/>
<line x1="532.000000" y1="52.000000" x2="540.000000" y2="52.000000"  style="stroke:black; stroke-linecap:round; stroke-width:0.25;"/>
<line x1="532.000000" y1="64.000000" x2="532.000000" y2="52.000000"  style="stroke:black; stroke-linecap:round; stroke-width:0.25;"/>
<line x1="532.000000" y1="64.000000" x2="532.000000" y2="64.000000"  style="stroke:black; stroke-linecap:round; stroke-width:0.25;"/>
<line x1="540.000000" y1="44.000000" x2="544.000000" y2="44.000000"  style="stroke:black; stroke-linecap:round; stroke-width:0.25;"/>
<line x1="540.000000" y1="52.000000" x2="544.000000" y2="52.000000"  style="stroke:black; stroke-linecap:round; stroke-width:0.25;"/>
<line x1="568.000000" y1="48.000000" x2="572.000000" y2="48.000000"  style="stroke:black; stroke-linecap:round; stroke-width:0.25;"/>
<line x1="572.000000" y1="48.000000" x2="572.000000" y2="48.000000"  style="stroke:black; stroke-linecap:round; stroke-width:0.25;"/>
<line x1="572.000000" y1="48.000000" x2="576.000000" y2="48.000000"  style="stroke:black; stroke-linecap:round; stroke-width:0.25;"/>
<line x1="576.000000" y1="48.000000" x2="580.000000" y2="48.000000"  style="stroke:black; stroke-linecap:round; stroke-width:0.25;"/>
<line x1="580.000000" y1="48.000000" x2="590.000000" y2="48.000000"  style="stroke:black; stroke-linecap:round; stroke-width:0.25;"/>
</svg>
