<?xml version="1.0"?>
<svg xmlns="http://www.w3.org/2000/svg" xmlns:xlink="http://www.w3.org/1999/xlink" viewBox="0 0 434.400000 188.000000" width="217.200000mm" height="94.000000mm" version="1.1">
<a xlink:href="delay-0x60000139cb40.svg">
<rect x="0.000000" y="0.000000" width="433.400000" height="187.000000" rx="0" ry="0" style="stroke:#000000;fill:#FFFFFF;"/>
</a>
<text x="10.000000" y="7.000000" font-family="Verdana" font-size="7"></text>
<rect x="34.000000" y="34.000000" width="206.400000" height="24.000000" rx="0" ry="0" style="stroke:#000000;fill:#FFFFFF;"/>
<text x="137.200000" y="48.000000" font-family="Verdana" font-size="7" text-anchor="middle" fill="#000000">hslider(Larghezza, 1e+01f, 1.0f, 1e+02f, 1.0f)</text>
<circle cx="36.000000" cy="36.000000" r="1"/>
<line x1="25.000000" y1="25.000000" x2="25.000000" y2="67.000000"  style="stroke: black; stroke-linecap:round; stroke-width:0.25; stroke-dasharray:3,3;"/>
<line x1="25.000000" y1="67.000000" x2="249.400000" y2="67.000000"  style="stroke: black; stroke-linecap:round; stroke-width:0.25; stroke-dasharray:3,3;"/>
<line x1="249.400000" y1="67.000000" x2="249.400000" y2="25.000000"  style="stroke: black; stroke-linecap:round; stroke-width:0.25; stroke-dasharray:3,3;"/>
<line x1="25.000000" y1="25.000000" x2="30.000000" y2="25.000000"  style="stroke: black; stroke-linecap:round; stroke-width:0.25; stroke-dasharray:3,3;"/>
<line x1="65.475000" y1="25.000000" x2="249.400000" y2="25.000000"  style="stroke: black; stroke-linecap:round; stroke-width:0.25; stroke-dasharray:3,3;"/>
<text x="30.000000" y="27.000000" font-family="Verdana" font-size="7">larghezza</text>
<a xlink:href="xpos-0x60000135e9a0.svg">
<rect x="124.300000" y="76.000000" width="25.800000" height="24.000000" rx="0" ry="0" style="stroke:#000000;fill:#FFFFFF;"/>
</a>
<a xlink:href="xpos-0x60000135e9a0.svg">
<text x="137.200000" y="90.000000" font-family="Verdana" font-size="7" text-anchor="middle" fill="#000000">xpos</text>
</a>
<circle cx="126.300000" cy="78.000000" r="1"/>
<rect x="266.400000" y="50.000000" width="24.000000" height="24.000000" rx="0" ry="0" style="stroke:#000000;fill:#FFFFFF;"/>
<text x="278.400000" y="64.000000" font-family="Verdana" font-size="7" text-anchor="middle" fill="#000000">*</text>
<circle cx="268.400000" cy="52.000000" r="1"/>
<line x1="263.400000" y1="57.000000" x2="266.400000" y2="58.000000"  transform="rotate(0.000000,266.400000,58.000000)" style="stroke: black; stroke-width:0.25;"/>
<line x1="263.400000" y1="59.000000" x2="266.400000" y2="58.000000"  transform="rotate(0.000000,266.400000,58.000000)" style="stroke: black; stroke-width:0.25;"/>
<line x1="263.400000" y1="65.000000" x2="266.400000" y2="66.000000"  transform="rotate(0.000000,266.400000,66.000000)" style="stroke: black; stroke-width:0.25;"/>
<line x1="263.400000" y1="67.000000" x2="266.400000" y2="66.000000"  transform="rotate(0.000000,266.400000,66.000000)" style="stroke: black; stroke-width:0.25;"/>
<a xlink:href="SR-0x60000121ccf0.svg">
<rect x="145.200000" y="108.000000" width="24.000000" height="24.000000" rx="0" ry="0" style="stroke:#000000;fill:#FFFFFF;"/>
</a>
<a xlink:href="SR-0x60000121ccf0.svg">
<text x="157.200000" y="122.000000" font-family="Verdana" font-size="7" text-anchor="middle" fill="#000000">SR</text>
</a>
<circle cx="147.200000" cy="110.000000" r="1"/>
<rect x="306.400000" y="66.000000" width="24.000000" height="24.000000" rx="0" ry="0" style="stroke:#000000;fill:#FFFFFF;"/>
<text x="318.400000" y="80.000000" font-family="Verdana" font-size="7" text-anchor="middle" fill="#000000">*</text>
<circle cx="308.400000" cy="68.000000" r="1"/>
<line x1="303.400000" y1="73.000000" x2="306.400000" y2="74.000000"  transform="rotate(0.000000,306.400000,74.000000)" style="stroke: black; stroke-width:0.25;"/>
<line x1="303.400000" y1="75.000000" x2="306.400000" y2="74.000000"  transform="rotate(0.000000,306.400000,74.000000)" style="stroke: black; stroke-width:0.25;"/>
<line x1="303.400000" y1="81.000000" x2="306.400000" y2="82.000000"  transform="rotate(0.000000,306.400000,82.000000)" style="stroke: black; stroke-width:0.25;"/>
<line x1="303.400000" y1="83.000000" x2="306.400000" y2="82.000000"  transform="rotate(0.000000,306.400000,82.000000)" style="stroke: black; stroke-width:0.25;"/>
<a xlink:href="velSuono-0x600001347c30.svg">
<rect x="157.850000" y="140.000000" width="38.700000" height="24.000000" rx="0" ry="0" style="stroke:#000000;fill:#FFFFFF;"/>
</a>
<a xlink:href="velSuono-0x600001347c30.svg">
<text x="177.200000" y="154.000000" font-family="Verdana" font-size="7" text-anchor="middle" fill="#000000">velSuono</text>
</a>
<circle cx="159.850000" cy="142.000000" r="1"/>
<rect x="346.400000" y="82.000000" width="24.000000" height="24.000000" rx="0" ry="0" style="stroke:#000000;fill:#FFFFFF;"/>
<text x="358.400000" y="96.000000" font-family="Verdana" font-size="7" text-anchor="middle" fill="#000000">/</text>
<circle cx="348.400000" cy="84.000000" r="1"/>
<line x1="343.400000" y1="89.000000" x2="346.400000" y2="90.000000"  transform="rotate(0.000000,346.400000,90.000000)" style="stroke: black; stroke-width:0.25;"/>
<line x1="343.400000" y1="91.000000" x2="346.400000" y2="90.000000"  transform="rotate(0.000000,346.400000,90.000000)" style="stroke: black; stroke-width:0.25;"/>
<line x1="343.400000" y1="97.000000" x2="346.400000" y2="98.000000"  transform="rotate(0.000000,346.400000,98.000000)" style="stroke: black; stroke-width:0.25;"/>
<line x1="343.400000" y1="99.000000" x2="346.400000" y2="98.000000"  transform="rotate(0.000000,346.400000,98.000000)" style="stroke: black; stroke-width:0.25;"/>
<rect x="378.400000" y="82.000000" width="24.000000" height="24.000000" rx="0" ry="0" style="stroke:#000000;fill:#FFFFFF;"/>
<text x="390.400000" y="96.000000" font-family="Verdana" font-size="7" text-anchor="middle" fill="#000000">int</text>
<circle cx="380.400000" cy="84.000000" r="1"/>
<line x1="375.400000" y1="93.000000" x2="378.400000" y2="94.000000"  transform="rotate(0.000000,378.400000,94.000000)" style="stroke: black; stroke-width:0.25;"/>
<line x1="375.400000" y1="95.000000" x2="378.400000" y2="94.000000"  transform="rotate(0.000000,378.400000,94.000000)" style="stroke: black; stroke-width:0.25;"/>
<line x1="15.000000" y1="15.000000" x2="15.000000" y2="173.000000"  style="stroke: black; stroke-linecap:round; stroke-width:0.25; stroke-dasharray:3,3;"/>
<line x1="15.000000" y1="173.000000" x2="419.400000" y2="173.000000"  style="stroke: black; stroke-linecap:round; stroke-width:0.25; stroke-dasharray:3,3;"/>
<line x1="419.400000" y1="173.000000" x2="419.400000" y2="15.000000"  style="stroke: black; stroke-linecap:round; stroke-width:0.25; stroke-dasharray:3,3;"/>
<line x1="15.000000" y1="15.000000" x2="20.000000" y2="15.000000"  style="stroke: black; stroke-linecap:round; stroke-width:0.25; stroke-dasharray:3,3;"/>
<line x1="32.900000" y1="15.000000" x2="419.400000" y2="15.000000"  style="stroke: black; stroke-linecap:round; stroke-width:0.25; stroke-dasharray:3,3;"/>
<text x="20.000000" y="17.000000" font-family="Verdana" font-size="7">c1</text>
<line x1="421.400000" y1="93.000000" x2="424.400000" y2="94.000000"  transform="rotate(0.000000,424.400000,94.000000)" style="stroke: black; stroke-width:0.25;"/>
<line x1="421.400000" y1="95.000000" x2="424.400000" y2="94.000000"  transform="rotate(0.000000,424.400000,94.000000)" style="stroke: black; stroke-width:0.25;"/>
<line x1="150.100000" y1="88.000000" x2="154.100000" y2="88.000000"  style="stroke:black; stroke-linecap:round; stroke-width:0.25;"/>
<line x1="154.100000" y1="88.000000" x2="254.400000" y2="88.000000"  style="stroke:black; stroke-linecap:round; stroke-width:0.25;"/>
<line x1="169.200000" y1="120.000000" x2="173.200000" y2="120.000000"  style="stroke:black; stroke-linecap:round; stroke-width:0.25;"/>
<line x1="173.200000" y1="120.000000" x2="294.400000" y2="120.000000"  style="stroke:black; stroke-linecap:round; stroke-width:0.25;"/>
<line x1="196.550000" y1="152.000000" x2="200.550000" y2="152.000000"  style="stroke:black; stroke-linecap:round; stroke-width:0.25;"/>
<line x1="200.550000" y1="152.000000" x2="334.400000" y2="152.000000"  style="stroke:black; stroke-linecap:round; stroke-width:0.25;"/>
<line x1="240.400000" y1="46.000000" x2="244.400000" y2="46.000000"  style="stroke:black; stroke-linecap:round; stroke-width:0.25;"/>
<line x1="244.400000" y1="46.000000" x2="254.400000" y2="46.000000"  style="stroke:black; stroke-linecap:round; stroke-width:0.25;"/>
<line x1="254.400000" y1="66.000000" x2="262.400000" y2="66.000000"  style="stroke:black; stroke-linecap:round; stroke-width:0.25;"/>
<line x1="254.400000" y1="88.000000" x2="254.400000" y2="66.000000"  style="stroke:black; stroke-linecap:round; stroke-width:0.25;"/>
<line x1="254.400000" y1="88.000000" x2="254.400000" y2="88.000000"  style="stroke:black; stroke-linecap:round; stroke-width:0.25;"/>
<line x1="254.400000" y1="46.000000" x2="262.400000" y2="46.000000"  style="stroke:black; stroke-linecap:round; stroke-width:0.25;"/>
<line x1="262.400000" y1="46.000000" x2="262.400000" y2="58.000000"  style="stroke:black; stroke-linecap:round; stroke-width:0.25;"/>
<line x1="262.400000" y1="58.000000" x2="262.400000" y2="58.000000"  style="stroke:black; stroke-linecap:round; stroke-width:0.25;"/>
<line x1="262.400000" y1="58.000000" x2="266.400000" y2="58.000000"  style="stroke:black; stroke-linecap:round; stroke-width:0.25;"/>
<line x1="262.400000" y1="66.000000" x2="266.400000" y2="66.000000"  style="stroke:black; stroke-linecap:round; stroke-width:0.25;"/>
<line x1="290.400000" y1="62.000000" x2="294.400000" y2="62.000000"  style="stroke:black; stroke-linecap:round; stroke-width:0.25;"/>
<line x1="294.400000" y1="62.000000" x2="302.400000" y2="62.000000"  style="stroke:black; stroke-linecap:round; stroke-width:0.25;"/>
<line x1="294.400000" y1="82.000000" x2="302.400000" y2="82.000000"  style="stroke:black; stroke-linecap:round; stroke-width:0.25;"/>
<line x1="294.400000" y1="120.000000" x2="294.400000" y2="82.000000"  style="stroke:black; stroke-linecap:round; stroke-width:0.25;"/>
<line x1="294.400000" y1="120.000000" x2="294.400000" y2="120.000000"  style="stroke:black; stroke-linecap:round; stroke-width:0.25;"/>
<line x1="302.400000" y1="62.000000" x2="302.400000" y2="74.000000"  style="stroke:black; stroke-linecap:round; stroke-width:0.25;"/>
<line x1="302.400000" y1="74.000000" x2="302.400000" y2="74.000000"  style="stroke:black; stroke-linecap:round; stroke-width:0.25;"/>
<line x1="302.400000" y1="74.000000" x2="306.400000" y2="74.000000"  style="stroke:black; stroke-linecap:round; stroke-width:0.25;"/>
<line x1="302.400000" y1="82.000000" x2="306.400000" y2="82.000000"  style="stroke:black; stroke-linecap:round; stroke-width:0.25;"/>
<line x1="330.400000" y1="78.000000" x2="334.400000" y2="78.000000"  style="stroke:black; stroke-linecap:round; stroke-width:0.25;"/>
<line x1="334.400000" y1="78.000000" x2="342.400000" y2="78.000000"  style="stroke:black; stroke-linecap:round; stroke-width:0.25;"/>
<line x1="334.400000" y1="98.000000" x2="342.400000" y2="98.000000"  style="stroke:black; stroke-linecap:round; stroke-width:0.25;"/>
<line x1="334.400000" y1="152.000000" x2="334.400000" y2="98.000000"  style="stroke:black; stroke-linecap:round; stroke-width:0.25;"/>
<line x1="334.400000" y1="152.000000" x2="334.400000" y2="152.000000"  style="stroke:black; stroke-linecap:round; stroke-width:0.25;"/>
<line x1="342.400000" y1="78.000000" x2="342.400000" y2="90.000000"  style="stroke:black; stroke-linecap:round; stroke-width:0.25;"/>
<line x1="342.400000" y1="90.000000" x2="342.400000" y2="90.000000"  style="stroke:black; stroke-linecap:round; stroke-width:0.25;"/>
<line x1="342.400000" y1="90.000000" x2="346.400000" y2="90.000000"  style="stroke:black; stroke-linecap:round; stroke-width:0.25;"/>
<line x1="342.400000" y1="98.000000" x2="346.400000" y2="98.000000"  style="stroke:black; stroke-linecap:round; stroke-width:0.25;"/>
<line x1="370.400000" y1="94.000000" x2="374.400000" y2="94.000000"  style="stroke:black; stroke-linecap:round; stroke-width:0.25;"/>
<line x1="374.400000" y1="94.000000" x2="374.400000" y2="94.000000"  style="stroke:black; stroke-linecap:round; stroke-width:0.25;"/>
<line x1="374.400000" y1="94.000000" x2="378.400000" y2="94.000000"  style="stroke:black; stroke-linecap:round; stroke-width:0.25;"/>
<line x1="402.400000" y1="94.000000" x2="406.400000" y2="94.000000"  style="stroke:black; stroke-linecap:round; stroke-width:0.25;"/>
<line x1="406.400000" y1="94.000000" x2="406.400000" y2="94.000000"  style="stroke:black; stroke-linecap:round; stroke-width:0.25;"/>
<line x1="406.400000" y1="94.000000" x2="410.400000" y2="94.000000"  style="stroke:black; stroke-linecap:round; stroke-width:0.25;"/>
<line x1="410.400000" y1="94.000000" x2="414.400000" y2="94.000000"  style="stroke:black; stroke-linecap:round; stroke-width:0.25;"/>
<line x1="414.400000" y1="94.000000" x2="424.400000" y2="94.000000"  style="stroke:black; stroke-linecap:round; stroke-width:0.25;"/>
</svg>
