<?xml version="1.0"?>
<svg xmlns="http://www.w3.org/2000/svg" xmlns:xlink="http://www.w3.org/1999/xlink" viewBox="0 0 474.400000 240.000000" width="237.200000mm" height="120.000000mm" version="1.1">
<a xlink:href="delay-0x60000139e2e0.svg">
<rect x="0.000000" y="0.000000" width="473.400000" height="239.000000" rx="0" ry="0" style="stroke:#000000;fill:#FFFFFF;"/>
</a>
<text x="10.000000" y="7.000000" font-family="Verdana" font-size="7"></text>
<rect x="54.000000" y="34.000000" width="206.400000" height="24.000000" rx="0" ry="0" style="stroke:#000000;fill:#FFFFFF;"/>
<text x="157.200000" y="48.000000" font-family="Verdana" font-size="7" text-anchor="middle" fill="#000000">hslider(Larghezza, 1e+01f, 1.0f, 1e+02f, 1.0f)</text>
<circle cx="56.000000" cy="36.000000" r="1"/>
<line x1="45.000000" y1="25.000000" x2="45.000000" y2="67.000000"  style="stroke: black; stroke-linecap:round; stroke-width:0.25; stroke-dasharray:3,3;"/>
<line x1="45.000000" y1="67.000000" x2="269.400000" y2="67.000000"  style="stroke: black; stroke-linecap:round; stroke-width:0.25; stroke-dasharray:3,3;"/>
<line x1="269.400000" y1="67.000000" x2="269.400000" y2="25.000000"  style="stroke: black; stroke-linecap:round; stroke-width:0.25; stroke-dasharray:3,3;"/>
<line x1="45.000000" y1="25.000000" x2="50.000000" y2="25.000000"  style="stroke: black; stroke-linecap:round; stroke-width:0.25; stroke-dasharray:3,3;"/>
<line x1="85.475000" y1="25.000000" x2="269.400000" y2="25.000000"  style="stroke: black; stroke-linecap:round; stroke-width:0.25; stroke-dasharray:3,3;"/>
<text x="50.000000" y="27.000000" font-family="Verdana" font-size="7">larghezza</text>
<rect x="34.000000" y="86.000000" width="206.400000" height="24.000000" rx="0" ry="0" style="stroke:#000000;fill:#FFFFFF;"/>
<text x="137.200000" y="100.000000" font-family="Verdana" font-size="7" text-anchor="middle" fill="#000000">hslider(Larghezza, 1e+01f, 1.0f, 1e+02f, 1.0f)</text>
<circle cx="36.000000" cy="88.000000" r="1"/>
<line x1="25.000000" y1="77.000000" x2="25.000000" y2="119.000000"  style="stroke: black; stroke-linecap:round; stroke-width:0.25; stroke-dasharray:3,3;"/>
<line x1="25.000000" y1="119.000000" x2="249.400000" y2="119.000000"  style="stroke: black; stroke-linecap:round; stroke-width:0.25; stroke-dasharray:3,3;"/>
<line x1="249.400000" y1="119.000000" x2="249.400000" y2="77.000000"  style="stroke: black; stroke-linecap:round; stroke-width:0.25; stroke-dasharray:3,3;"/>
<line x1="25.000000" y1="77.000000" x2="30.000000" y2="77.000000"  style="stroke: black; stroke-linecap:round; stroke-width:0.25; stroke-dasharray:3,3;"/>
<line x1="65.475000" y1="77.000000" x2="249.400000" y2="77.000000"  style="stroke: black; stroke-linecap:round; stroke-width:0.25; stroke-dasharray:3,3;"/>
<text x="30.000000" y="79.000000" font-family="Verdana" font-size="7">larghezza</text>
<a xlink:href="ypos-0x6000013598c0.svg">
<rect x="124.300000" y="128.000000" width="25.800000" height="24.000000" rx="0" ry="0" style="stroke:#000000;fill:#FFFFFF;"/>
</a>
<a xlink:href="ypos-0x6000013598c0.svg">
<text x="137.200000" y="142.000000" font-family="Verdana" font-size="7" text-anchor="middle" fill="#000000">ypos</text>
</a>
<circle cx="126.300000" cy="130.000000" r="1"/>
<rect x="266.400000" y="102.000000" width="24.000000" height="24.000000" rx="0" ry="0" style="stroke:#000000;fill:#FFFFFF;"/>
<text x="278.400000" y="116.000000" font-family="Verdana" font-size="7" text-anchor="middle" fill="#000000">*</text>
<circle cx="268.400000" cy="104.000000" r="1"/>
<line x1="263.400000" y1="109.000000" x2="266.400000" y2="110.000000"  transform="rotate(0.000000,266.400000,110.000000)" style="stroke: black; stroke-width:0.25;"/>
<line x1="263.400000" y1="111.000000" x2="266.400000" y2="110.000000"  transform="rotate(0.000000,266.400000,110.000000)" style="stroke: black; stroke-width:0.25;"/>
<line x1="263.400000" y1="117.000000" x2="266.400000" y2="118.000000"  transform="rotate(0.000000,266.400000,118.000000)" style="stroke: black; stroke-width:0.25;"/>
<line x1="263.400000" y1="119.000000" x2="266.400000" y2="118.000000"  transform="rotate(0.000000,266.400000,118.000000)" style="stroke: black; stroke-width:0.25;"/>
<rect x="306.400000" y="76.000000" width="24.000000" height="24.000000" rx="0" ry="0" style="stroke:#000000;fill:#FFFFFF;"/>
<text x="318.400000" y="90.000000" font-family="Verdana" font-size="7" text-anchor="middle" fill="#000000">-</text>
<circle cx="308.400000" cy="78.000000" r="1"/>
<line x1="303.400000" y1="83.000000" x2="306.400000" y2="84.000000"  transform="rotate(0.000000,306.400000,84.000000)" style="stroke: black; stroke-width:0.25;"/>
<line x1="303.400000" y1="85.000000" x2="306.400000" y2="84.000000"  transform="rotate(0.000000,306.400000,84.000000)" style="stroke: black; stroke-width:0.25;"/>
<line x1="303.400000" y1="91.000000" x2="306.400000" y2="92.000000"  transform="rotate(0.000000,306.400000,92.000000)" style="stroke: black; stroke-width:0.25;"/>
<line x1="303.400000" y1="93.000000" x2="306.400000" y2="92.000000"  transform="rotate(0.000000,306.400000,92.000000)" style="stroke: black; stroke-width:0.25;"/>
<a xlink:href="SR-0x60000121ccf0.svg">
<rect x="165.200000" y="160.000000" width="24.000000" height="24.000000" rx="0" ry="0" style="stroke:#000000;fill:#FFFFFF;"/>
</a>
<a xlink:href="SR-0x60000121ccf0.svg">
<text x="177.200000" y="174.000000" font-family="Verdana" font-size="7" text-anchor="middle" fill="#000000">SR</text>
</a>
<circle cx="167.200000" cy="162.000000" r="1"/>
<rect x="346.400000" y="92.000000" width="24.000000" height="24.000000" rx="0" ry="0" style="stroke:#000000;fill:#FFFFFF;"/>
<text x="358.400000" y="106.000000" font-family="Verdana" font-size="7" text-anchor="middle" fill="#000000">*</text>
<circle cx="348.400000" cy="94.000000" r="1"/>
<line x1="343.400000" y1="99.000000" x2="346.400000" y2="100.000000"  transform="rotate(0.000000,346.400000,100.000000)" style="stroke: black; stroke-width:0.25;"/>
<line x1="343.400000" y1="101.000000" x2="346.400000" y2="100.000000"  transform="rotate(0.000000,346.400000,100.000000)" style="stroke: black; stroke-width:0.25;"/>
<line x1="343.400000" y1="107.000000" x2="346.400000" y2="108.000000"  transform="rotate(0.000000,346.400000,108.000000)" style="stroke: black; stroke-width:0.25;"/>
<line x1="343.400000" y1="109.000000" x2="346.400000" y2="108.000000"  transform="rotate(0.000000,346.400000,108.000000)" style="stroke: black; stroke-width:0.25;"/>
<a xlink:href="velSuono-0x600001347c30.svg">
<rect x="177.850000" y="192.000000" width="38.700000" height="24.000000" rx="0" ry="0" style="stroke:#000000;fill:#FFFFFF;"/>
</a>
<a xlink:href="velSuono-0x600001347c30.svg">
<text x="197.200000" y="206.000000" font-family="Verdana" font-size="7" text-anchor="middle" fill="#000000">velSuono</text>
</a>
<circle cx="179.850000" cy="194.000000" r="1"/>
<rect x="386.400000" y="108.000000" width="24.000000" height="24.000000" rx="0" ry="0" style="stroke:#000000;fill:#FFFFFF;"/>
<text x="398.400000" y="122.000000" font-family="Verdana" font-size="7" text-anchor="middle" fill="#000000">/</text>
<circle cx="388.400000" cy="110.000000" r="1"/>
<line x1="383.400000" y1="115.000000" x2="386.400000" y2="116.000000"  transform="rotate(0.000000,386.400000,116.000000)" style="stroke: black; stroke-width:0.25;"/>
<line x1="383.400000" y1="117.000000" x2="386.400000" y2="116.000000"  transform="rotate(0.000000,386.400000,116.000000)" style="stroke: black; stroke-width:0.25;"/>
<line x1="383.400000" y1="123.000000" x2="386.400000" y2="124.000000"  transform="rotate(0.000000,386.400000,124.000000)" style="stroke: black; stroke-width:0.25;"/>
<line x1="383.400000" y1="125.000000" x2="386.400000" y2="124.000000"  transform="rotate(0.000000,386.400000,124.000000)" style="stroke: black; stroke-width:0.25;"/>
<rect x="418.400000" y="108.000000" width="24.000000" height="24.000000" rx="0" ry="0" style="stroke:#000000;fill:#FFFFFF;"/>
<text x="430.400000" y="122.000000" font-family="Verdana" font-size="7" text-anchor="middle" fill="#000000">int</text>
<circle cx="420.400000" cy="110.000000" r="1"/>
<line x1="415.400000" y1="119.000000" x2="418.400000" y2="120.000000"  transform="rotate(0.000000,418.400000,120.000000)" style="stroke: black; stroke-width:0.25;"/>
<line x1="415.400000" y1="121.000000" x2="418.400000" y2="120.000000"  transform="rotate(0.000000,418.400000,120.000000)" style="stroke: black; stroke-width:0.25;"/>
<line x1="15.000000" y1="15.000000" x2="15.000000" y2="225.000000"  style="stroke: black; stroke-linecap:round; stroke-width:0.25; stroke-dasharray:3,3;"/>
<line x1="15.000000" y1="225.000000" x2="459.400000" y2="225.000000"  style="stroke: black; stroke-linecap:round; stroke-width:0.25; stroke-dasharray:3,3;"/>
<line x1="459.400000" y1="225.000000" x2="459.400000" y2="15.000000"  style="stroke: black; stroke-linecap:round; stroke-width:0.25; stroke-dasharray:3,3;"/>
<line x1="15.000000" y1="15.000000" x2="20.000000" y2="15.000000"  style="stroke: black; stroke-linecap:round; stroke-width:0.25; stroke-dasharray:3,3;"/>
<line x1="32.900000" y1="15.000000" x2="459.400000" y2="15.000000"  style="stroke: black; stroke-linecap:round; stroke-width:0.25; stroke-dasharray:3,3;"/>
<text x="20.000000" y="17.000000" font-family="Verdana" font-size="7">c2</text>
<line x1="461.400000" y1="119.000000" x2="464.400000" y2="120.000000"  transform="rotate(0.000000,464.400000,120.000000)" style="stroke: black; stroke-width:0.25;"/>
<line x1="461.400000" y1="121.000000" x2="464.400000" y2="120.000000"  transform="rotate(0.000000,464.400000,120.000000)" style="stroke: black; stroke-width:0.25;"/>
<line x1="150.100000" y1="140.000000" x2="154.100000" y2="140.000000"  style="stroke:black; stroke-linecap:round; stroke-width:0.25;"/>
<line x1="154.100000" y1="140.000000" x2="254.400000" y2="140.000000"  style="stroke:black; stroke-linecap:round; stroke-width:0.25;"/>
<line x1="189.200000" y1="172.000000" x2="193.200000" y2="172.000000"  style="stroke:black; stroke-linecap:round; stroke-width:0.25;"/>
<line x1="193.200000" y1="172.000000" x2="334.400000" y2="172.000000"  style="stroke:black; stroke-linecap:round; stroke-width:0.25;"/>
<line x1="216.550000" y1="204.000000" x2="220.550000" y2="204.000000"  style="stroke:black; stroke-linecap:round; stroke-width:0.25;"/>
<line x1="220.550000" y1="204.000000" x2="374.400000" y2="204.000000"  style="stroke:black; stroke-linecap:round; stroke-width:0.25;"/>
<line x1="240.400000" y1="98.000000" x2="244.400000" y2="98.000000"  style="stroke:black; stroke-linecap:round; stroke-width:0.25;"/>
<line x1="244.400000" y1="98.000000" x2="254.400000" y2="98.000000"  style="stroke:black; stroke-linecap:round; stroke-width:0.25;"/>
<line x1="254.400000" y1="118.000000" x2="262.400000" y2="118.000000"  style="stroke:black; stroke-linecap:round; stroke-width:0.25;"/>
<line x1="254.400000" y1="140.000000" x2="254.400000" y2="118.000000"  style="stroke:black; stroke-linecap:round; stroke-width:0.25;"/>
<line x1="254.400000" y1="140.000000" x2="254.400000" y2="140.000000"  style="stroke:black; stroke-linecap:round; stroke-width:0.25;"/>
<line x1="254.400000" y1="98.000000" x2="262.400000" y2="98.000000"  style="stroke:black; stroke-linecap:round; stroke-width:0.25;"/>
<line x1="260.400000" y1="46.000000" x2="264.400000" y2="46.000000"  style="stroke:black; stroke-linecap:round; stroke-width:0.25;"/>
<line x1="262.400000" y1="98.000000" x2="262.400000" y2="110.000000"  style="stroke:black; stroke-linecap:round; stroke-width:0.25;"/>
<line x1="262.400000" y1="110.000000" x2="262.400000" y2="110.000000"  style="stroke:black; stroke-linecap:round; stroke-width:0.25;"/>
<line x1="262.400000" y1="110.000000" x2="266.400000" y2="110.000000"  style="stroke:black; stroke-linecap:round; stroke-width:0.25;"/>
<line x1="262.400000" y1="118.000000" x2="266.400000" y2="118.000000"  style="stroke:black; stroke-linecap:round; stroke-width:0.25;"/>
<line x1="264.400000" y1="46.000000" x2="274.400000" y2="46.000000"  style="stroke:black; stroke-linecap:round; stroke-width:0.25;"/>
<line x1="274.400000" y1="46.000000" x2="294.400000" y2="46.000000"  style="stroke:black; stroke-linecap:round; stroke-width:0.25;"/>
<line x1="290.400000" y1="114.000000" x2="294.400000" y2="114.000000"  style="stroke:black; stroke-linecap:round; stroke-width:0.25;"/>
<line x1="294.400000" y1="46.000000" x2="302.400000" y2="46.000000"  style="stroke:black; stroke-linecap:round; stroke-width:0.25;"/>
<line x1="294.400000" y1="92.000000" x2="302.400000" y2="92.000000"  style="stroke:black; stroke-linecap:round; stroke-width:0.25;"/>
<line x1="294.400000" y1="114.000000" x2="294.400000" y2="92.000000"  style="stroke:black; stroke-linecap:round; stroke-width:0.25;"/>
<line x1="294.400000" y1="114.000000" x2="294.400000" y2="114.000000"  style="stroke:black; stroke-linecap:round; stroke-width:0.25;"/>
<line x1="302.400000" y1="46.000000" x2="302.400000" y2="84.000000"  style="stroke:black; stroke-linecap:round; stroke-width:0.25;"/>
<line x1="302.400000" y1="84.000000" x2="302.400000" y2="84.000000"  style="stroke:black; stroke-linecap:round; stroke-width:0.25;"/>
<line x1="302.400000" y1="84.000000" x2="306.400000" y2="84.000000"  style="stroke:black; stroke-linecap:round; stroke-width:0.25;"/>
<line x1="302.400000" y1="92.000000" x2="306.400000" y2="92.000000"  style="stroke:black; stroke-linecap:round; stroke-width:0.25;"/>
<line x1="330.400000" y1="88.000000" x2="334.400000" y2="88.000000"  style="stroke:black; stroke-linecap:round; stroke-width:0.25;"/>
<line x1="334.400000" y1="88.000000" x2="342.400000" y2="88.000000"  style="stroke:black; stroke-linecap:round; stroke-width:0.25;"/>
<line x1="334.400000" y1="108.000000" x2="342.400000" y2="108.000000"  style="stroke:black; stroke-linecap:round; stroke-width:0.25;"/>
<line x1="334.400000" y1="172.000000" x2="334.400000" y2="108.000000"  style="stroke:black; stroke-linecap:round; stroke-width:0.25;"/>
<line x1="334.400000" y1="172.000000" x2="334.400000" y2="172.000000"  style="stroke:black; stroke-linecap:round; stroke-width:0.25;"/>
<line x1="342.400000" y1="88.000000" x2="342.400000" y2="100.000000"  style="stroke:black; stroke-linecap:round; stroke-width:0.25;"/>
<line x1="342.400000" y1="100.000000" x2="342.400000" y2="100.000000"  style="stroke:black; stroke-linecap:round; stroke-width:0.25;"/>
<line x1="342.400000" y1="100.000000" x2="346.400000" y2="100.000000"  style="stroke:black; stroke-linecap:round; stroke-width:0.25;"/>
<line x1="342.400000" y1="108.000000" x2="346.400000" y2="108.000000"  style="stroke:black; stroke-linecap:round; stroke-width:0.25;"/>
<line x1="370.400000" y1="104.000000" x2="374.400000" y2="104.000000"  style="stroke:black; stroke-linecap:round; stroke-width:0.25;"/>
<line x1="374.400000" y1="104.000000" x2="382.400000" y2="104.000000"  style="stroke:black; stroke-linecap:round; stroke-width:0.25;"/>
<line x1="374.400000" y1="124.000000" x2="382.400000" y2="124.000000"  style="stroke:black; stroke-linecap:round; stroke-width:0.25;"/>
<line x1="374.400000" y1="204.000000" x2="374.400000" y2="124.000000"  style="stroke:black; stroke-linecap:round; stroke-width:0.25;"/>
<line x1="374.400000" y1="204.000000" x2="374.400000" y2="204.000000"  style="stroke:black; stroke-linecap:round; stroke-width:0.25;"/>
<line x1="382.400000" y1="104.000000" x2="382.400000" y2="116.000000"  style="stroke:black; stroke-linecap:round; stroke-width:0.25;"/>
<line x1="382.400000" y1="116.000000" x2="382.400000" y2="116.000000"  style="stroke:black; stroke-linecap:round; stroke-width:0.25;"/>
<line x1="382.400000" y1="116.000000" x2="386.400000" y2="116.000000"  style="stroke:black; stroke-linecap:round; stroke-width:0.25;"/>
<line x1="382.400000" y1="124.000000" x2="386.400000" y2="124.000000"  style="stroke:black; stroke-linecap:round; stroke-width:0.25;"/>
<line x1="410.400000" y1="120.000000" x2="414.400000" y2="120.000000"  style="stroke:black; stroke-linecap:round; stroke-width:0.25;"/>
<line x1="414.400000" y1="120.000000" x2="414.400000" y2="120.000000"  style="stroke:black; stroke-linecap:round; stroke-width:0.25;"/>
<line x1="414.400000" y1="120.000000" x2="418.400000" y2="120.000000"  style="stroke:black; stroke-linecap:round; stroke-width:0.25;"/>
<line x1="442.400000" y1="120.000000" x2="446.400000" y2="120.000000"  style="stroke:black; stroke-linecap:round; stroke-width:0.25;"/>
<line x1="446.400000" y1="120.000000" x2="446.400000" y2="120.000000"  style="stroke:black; stroke-linecap:round; stroke-width:0.25;"/>
<line x1="446.400000" y1="120.000000" x2="450.400000" y2="120.000000"  style="stroke:black; stroke-linecap:round; stroke-width:0.25;"/>
<line x1="450.400000" y1="120.000000" x2="454.400000" y2="120.000000"  style="stroke:black; stroke-linecap:round; stroke-width:0.25;"/>
<line x1="454.400000" y1="120.000000" x2="464.400000" y2="120.000000"  style="stroke:black; stroke-linecap:round; stroke-width:0.25;"/>
</svg>
