<?xml version="1.0"?>
<svg xmlns="http://www.w3.org/2000/svg" xmlns:xlink="http://www.w3.org/1999/xlink" viewBox="0 0 421.500000 188.000000" width="210.750000mm" height="94.000000mm" version="1.1">
<a xlink:href="delay-0x600001074000.svg">
<rect x="0.000000" y="0.000000" width="420.500000" height="187.000000" rx="0" ry="0" style="stroke:#000000;fill:#FFFFFF;"/>
</a>
<text x="10.000000" y="7.000000" font-family="Verdana" font-size="7"></text>
<rect x="34.000000" y="34.000000" width="193.500000" height="24.000000" rx="0" ry="0" style="stroke:#000000;fill:#FFFFFF;"/>
<text x="130.750000" y="48.000000" font-family="Verdana" font-size="7" text-anchor="middle" fill="#000000">hslider(Altezza, 1e+01f, 1.0f, 1e+02f, 1.0f)</text>
<circle cx="36.000000" cy="36.000000" r="1"/>
<line x1="25.000000" y1="25.000000" x2="25.000000" y2="67.000000"  style="stroke: black; stroke-linecap:round; stroke-width:0.25; stroke-dasharray:3,3;"/>
<line x1="25.000000" y1="67.000000" x2="236.500000" y2="67.000000"  style="stroke: black; stroke-linecap:round; stroke-width:0.25; stroke-dasharray:3,3;"/>
<line x1="236.500000" y1="67.000000" x2="236.500000" y2="25.000000"  style="stroke: black; stroke-linecap:round; stroke-width:0.25; stroke-dasharray:3,3;"/>
<line x1="25.000000" y1="25.000000" x2="30.000000" y2="25.000000"  style="stroke: black; stroke-linecap:round; stroke-width:0.25; stroke-dasharray:3,3;"/>
<line x1="59.025000" y1="25.000000" x2="236.500000" y2="25.000000"  style="stroke: black; stroke-linecap:round; stroke-width:0.25; stroke-dasharray:3,3;"/>
<text x="30.000000" y="27.000000" font-family="Verdana" font-size="7">altezza</text>
<a xlink:href="zpos-0x600001342490.svg">
<rect x="117.850000" y="76.000000" width="25.800000" height="24.000000" rx="0" ry="0" style="stroke:#000000;fill:#FFFFFF;"/>
</a>
<a xlink:href="zpos-0x600001342490.svg">
<text x="130.750000" y="90.000000" font-family="Verdana" font-size="7" text-anchor="middle" fill="#000000">zpos</text>
</a>
<circle cx="119.850000" cy="78.000000" r="1"/>
<rect x="253.500000" y="50.000000" width="24.000000" height="24.000000" rx="0" ry="0" style="stroke:#000000;fill:#FFFFFF;"/>
<text x="265.500000" y="64.000000" font-family="Verdana" font-size="7" text-anchor="middle" fill="#000000">*</text>
<circle cx="255.500000" cy="52.000000" r="1"/>
<line x1="250.500000" y1="57.000000" x2="253.500000" y2="58.000000"  transform="rotate(0.000000,253.500000,58.000000)" style="stroke: black; stroke-width:0.25;"/>
<line x1="250.500000" y1="59.000000" x2="253.500000" y2="58.000000"  transform="rotate(0.000000,253.500000,58.000000)" style="stroke: black; stroke-width:0.25;"/>
<line x1="250.500000" y1="65.000000" x2="253.500000" y2="66.000000"  transform="rotate(0.000000,253.500000,66.000000)" style="stroke: black; stroke-width:0.25;"/>
<line x1="250.500000" y1="67.000000" x2="253.500000" y2="66.000000"  transform="rotate(0.000000,253.500000,66.000000)" style="stroke: black; stroke-width:0.25;"/>
<a xlink:href="SR-0x60000121ccf0.svg">
<rect x="138.750000" y="108.000000" width="24.000000" height="24.000000" rx="0" ry="0" style="stroke:#000000;fill:#FFFFFF;"/>
</a>
<a xlink:href="SR-0x60000121ccf0.svg">
<text x="150.750000" y="122.000000" font-family="Verdana" font-size="7" text-anchor="middle" fill="#000000">SR</text>
</a>
<circle cx="140.750000" cy="110.000000" r="1"/>
<rect x="293.500000" y="66.000000" width="24.000000" height="24.000000" rx="0" ry="0" style="stroke:#000000;fill:#FFFFFF;"/>
<text x="305.500000" y="80.000000" font-family="Verdana" font-size="7" text-anchor="middle" fill="#000000">*</text>
<circle cx="295.500000" cy="68.000000" r="1"/>
<line x1="290.500000" y1="73.000000" x2="293.500000" y2="74.000000"  transform="rotate(0.000000,293.500000,74.000000)" style="stroke: black; stroke-width:0.25;"/>
<line x1="290.500000" y1="75.000000" x2="293.500000" y2="74.000000"  transform="rotate(0.000000,293.500000,74.000000)" style="stroke: black; stroke-width:0.25;"/>
<line x1="290.500000" y1="81.000000" x2="293.500000" y2="82.000000"  transform="rotate(0.000000,293.500000,82.000000)" style="stroke: black; stroke-width:0.25;"/>
<line x1="290.500000" y1="83.000000" x2="293.500000" y2="82.000000"  transform="rotate(0.000000,293.500000,82.000000)" style="stroke: black; stroke-width:0.25;"/>
<a xlink:href="velSuono-0x600001347c30.svg">
<rect x="151.400000" y="140.000000" width="38.700000" height="24.000000" rx="0" ry="0" style="stroke:#000000;fill:#FFFFFF;"/>
</a>
<a xlink:href="velSuono-0x600001347c30.svg">
<text x="170.750000" y="154.000000" font-family="Verdana" font-size="7" text-anchor="middle" fill="#000000">velSuono</text>
</a>
<circle cx="153.400000" cy="142.000000" r="1"/>
<rect x="333.500000" y="82.000000" width="24.000000" height="24.000000" rx="0" ry="0" style="stroke:#000000;fill:#FFFFFF;"/>
<text x="345.500000" y="96.000000" font-family="Verdana" font-size="7" text-anchor="middle" fill="#000000">/</text>
<circle cx="335.500000" cy="84.000000" r="1"/>
<line x1="330.500000" y1="89.000000" x2="333.500000" y2="90.000000"  transform="rotate(0.000000,333.500000,90.000000)" style="stroke: black; stroke-width:0.25;"/>
<line x1="330.500000" y1="91.000000" x2="333.500000" y2="90.000000"  transform="rotate(0.000000,333.500000,90.000000)" style="stroke: black; stroke-width:0.25;"/>
<line x1="330.500000" y1="97.000000" x2="333.500000" y2="98.000000"  transform="rotate(0.000000,333.500000,98.000000)" style="stroke: black; stroke-width:0.25;"/>
<line x1="330.500000" y1="99.000000" x2="333.500000" y2="98.000000"  transform="rotate(0.000000,333.500000,98.000000)" style="stroke: black; stroke-width:0.25;"/>
<rect x="365.500000" y="82.000000" width="24.000000" height="24.000000" rx="0" ry="0" style="stroke:#000000;fill:#FFFFFF;"/>
<text x="377.500000" y="96.000000" font-family="Verdana" font-size="7" text-anchor="middle" fill="#000000">int</text>
<circle cx="367.500000" cy="84.000000" r="1"/>
<line x1="362.500000" y1="93.000000" x2="365.500000" y2="94.000000"  transform="rotate(0.000000,365.500000,94.000000)" style="stroke: black; stroke-width:0.25;"/>
<line x1="362.500000" y1="95.000000" x2="365.500000" y2="94.000000"  transform="rotate(0.000000,365.500000,94.000000)" style="stroke: black; stroke-width:0.25;"/>
<line x1="15.000000" y1="15.000000" x2="15.000000" y2="173.000000"  style="stroke: black; stroke-linecap:round; stroke-width:0.25; stroke-dasharray:3,3;"/>
<line x1="15.000000" y1="173.000000" x2="406.500000" y2="173.000000"  style="stroke: black; stroke-linecap:round; stroke-width:0.25; stroke-dasharray:3,3;"/>
<line x1="406.500000" y1="173.000000" x2="406.500000" y2="15.000000"  style="stroke: black; stroke-linecap:round; stroke-width:0.25; stroke-dasharray:3,3;"/>
<line x1="15.000000" y1="15.000000" x2="20.000000" y2="15.000000"  style="stroke: black; stroke-linecap:round; stroke-width:0.25; stroke-dasharray:3,3;"/>
<line x1="32.900000" y1="15.000000" x2="406.500000" y2="15.000000"  style="stroke: black; stroke-linecap:round; stroke-width:0.25; stroke-dasharray:3,3;"/>
<text x="20.000000" y="17.000000" font-family="Verdana" font-size="7">c5</text>
<line x1="408.500000" y1="93.000000" x2="411.500000" y2="94.000000"  transform="rotate(0.000000,411.500000,94.000000)" style="stroke: black; stroke-width:0.25;"/>
<line x1="408.500000" y1="95.000000" x2="411.500000" y2="94.000000"  transform="rotate(0.000000,411.500000,94.000000)" style="stroke: black; stroke-width:0.25;"/>
<line x1="143.650000" y1="88.000000" x2="147.650000" y2="88.000000"  style="stroke:black; stroke-linecap:round; stroke-width:0.25;"/>
<line x1="147.650000" y1="88.000000" x2="241.500000" y2="88.000000"  style="stroke:black; stroke-linecap:round; stroke-width:0.25;"/>
<line x1="162.750000" y1="120.000000" x2="166.750000" y2="120.000000"  style="stroke:black; stroke-linecap:round; stroke-width:0.25;"/>
<line x1="166.750000" y1="120.000000" x2="281.500000" y2="120.000000"  style="stroke:black; stroke-linecap:round; stroke-width:0.25;"/>
<line x1="190.100000" y1="152.000000" x2="194.100000" y2="152.000000"  style="stroke:black; stroke-linecap:round; stroke-width:0.25;"/>
<line x1="194.100000" y1="152.000000" x2="321.500000" y2="152.000000"  style="stroke:black; stroke-linecap:round; stroke-width:0.25;"/>
<line x1="227.500000" y1="46.000000" x2="231.500000" y2="46.000000"  style="stroke:black; stroke-linecap:round; stroke-width:0.25;"/>
<line x1="231.500000" y1="46.000000" x2="241.500000" y2="46.000000"  style="stroke:black; stroke-linecap:round; stroke-width:0.25;"/>
<line x1="241.500000" y1="66.000000" x2="249.500000" y2="66.000000"  style="stroke:black; stroke-linecap:round; stroke-width:0.25;"/>
<line x1="241.500000" y1="88.000000" x2="241.500000" y2="66.000000"  style="stroke:black; stroke-linecap:round; stroke-width:0.25;"/>
<line x1="241.500000" y1="88.000000" x2="241.500000" y2="88.000000"  style="stroke:black; stroke-linecap:round; stroke-width:0.25;"/>
<line x1="241.500000" y1="46.000000" x2="249.500000" y2="46.000000"  style="stroke:black; stroke-linecap:round; stroke-width:0.25;"/>
<line x1="249.500000" y1="46.000000" x2="249.500000" y2="58.000000"  style="stroke:black; stroke-linecap:round; stroke-width:0.25;"/>
<line x1="249.500000" y1="58.000000" x2="249.500000" y2="58.000000"  style="stroke:black; stroke-linecap:round; stroke-width:0.25;"/>
<line x1="249.500000" y1="58.000000" x2="253.500000" y2="58.000000"  style="stroke:black; stroke-linecap:round; stroke-width:0.25;"/>
<line x1="249.500000" y1="66.000000" x2="253.500000" y2="66.000000"  style="stroke:black; stroke-linecap:round; stroke-width:0.25;"/>
<line x1="277.500000" y1="62.000000" x2="281.500000" y2="62.000000"  style="stroke:black; stroke-linecap:round; stroke-width:0.25;"/>
<line x1="281.500000" y1="62.000000" x2="289.500000" y2="62.000000"  style="stroke:black; stroke-linecap:round; stroke-width:0.25;"/>
<line x1="281.500000" y1="82.000000" x2="289.500000" y2="82.000000"  style="stroke:black; stroke-linecap:round; stroke-width:0.25;"/>
<line x1="281.500000" y1="120.000000" x2="281.500000" y2="82.000000"  style="stroke:black; stroke-linecap:round; stroke-width:0.25;"/>
<line x1="281.500000" y1="120.000000" x2="281.500000" y2="120.000000"  style="stroke:black; stroke-linecap:round; stroke-width:0.25;"/>
<line x1="289.500000" y1="62.000000" x2="289.500000" y2="74.000000"  style="stroke:black; stroke-linecap:round; stroke-width:0.25;"/>
<line x1="289.500000" y1="74.000000" x2="289.500000" y2="74.000000"  style="stroke:black; stroke-linecap:round; stroke-width:0.25;"/>
<line x1="289.500000" y1="74.000000" x2="293.500000" y2="74.000000"  style="stroke:black; stroke-linecap:round; stroke-width:0.25;"/>
<line x1="289.500000" y1="82.000000" x2="293.500000" y2="82.000000"  style="stroke:black; stroke-linecap:round; stroke-width:0.25;"/>
<line x1="317.500000" y1="78.000000" x2="321.500000" y2="78.000000"  style="stroke:black; stroke-linecap:round; stroke-width:0.25;"/>
<line x1="321.500000" y1="78.000000" x2="329.500000" y2="78.000000"  style="stroke:black; stroke-linecap:round; stroke-width:0.25;"/>
<line x1="321.500000" y1="98.000000" x2="329.500000" y2="98.000000"  style="stroke:black; stroke-linecap:round; stroke-width:0.25;"/>
<line x1="321.500000" y1="152.000000" x2="321.500000" y2="98.000000"  style="stroke:black; stroke-linecap:round; stroke-width:0.25;"/>
<line x1="321.500000" y1="152.000000" x2="321.500000" y2="152.000000"  style="stroke:black; stroke-linecap:round; stroke-width:0.25;"/>
<line x1="329.500000" y1="78.000000" x2="329.500000" y2="90.000000"  style="stroke:black; stroke-linecap:round; stroke-width:0.25;"/>
<line x1="329.500000" y1="90.000000" x2="329.500000" y2="90.000000"  style="stroke:black; stroke-linecap:round; stroke-width:0.25;"/>
<line x1="329.500000" y1="90.000000" x2="333.500000" y2="90.000000"  style="stroke:black; stroke-linecap:round; stroke-width:0.25;"/>
<line x1="329.500000" y1="98.000000" x2="333.500000" y2="98.000000"  style="stroke:black; stroke-linecap:round; stroke-width:0.25;"/>
<line x1="357.500000" y1="94.000000" x2="361.500000" y2="94.000000"  style="stroke:black; stroke-linecap:round; stroke-width:0.25;"/>
<line x1="361.500000" y1="94.000000" x2="361.500000" y2="94.000000"  style="stroke:black; stroke-linecap:round; stroke-width:0.25;"/>
<line x1="361.500000" y1="94.000000" x2="365.500000" y2="94.000000"  style="stroke:black; stroke-linecap:round; stroke-width:0.25;"/>
<line x1="389.500000" y1="94.000000" x2="393.500000" y2="94.000000"  style="stroke:black; stroke-linecap:round; stroke-width:0.25;"/>
<line x1="393.500000" y1="94.000000" x2="393.500000" y2="94.000000"  style="stroke:black; stroke-linecap:round; stroke-width:0.25;"/>
<line x1="393.500000" y1="94.000000" x2="397.500000" y2="94.000000"  style="stroke:black; stroke-linecap:round; stroke-width:0.25;"/>
<line x1="397.500000" y1="94.000000" x2="401.500000" y2="94.000000"  style="stroke:black; stroke-linecap:round; stroke-width:0.25;"/>
<line x1="401.500000" y1="94.000000" x2="411.500000" y2="94.000000"  style="stroke:black; stroke-linecap:round; stroke-width:0.25;"/>
</svg>
