<?xml version="1.0"?>
<svg xmlns="http://www.w3.org/2000/svg" xmlns:xlink="http://www.w3.org/1999/xlink" viewBox="0 0 461.500000 240.000000" width="230.750000mm" height="120.000000mm" version="1.1">
<a xlink:href="delay-0x6000013ea760.svg">
<rect x="0.000000" y="0.000000" width="460.500000" height="239.000000" rx="0" ry="0" style="stroke:#000000;fill:#FFFFFF;"/>
</a>
<text x="10.000000" y="7.000000" font-family="Verdana" font-size="7"></text>
<rect x="54.000000" y="34.000000" width="193.500000" height="24.000000" rx="0" ry="0" style="stroke:#000000;fill:#FFFFFF;"/>
<text x="150.750000" y="48.000000" font-family="Verdana" font-size="7" text-anchor="middle" fill="#000000">hslider(Altezza, 1e+01f, 1.0f, 1e+02f, 1.0f)</text>
<circle cx="56.000000" cy="36.000000" r="1"/>
<line x1="45.000000" y1="25.000000" x2="45.000000" y2="67.000000"  style="stroke: black; stroke-linecap:round; stroke-width:0.25; stroke-dasharray:3,3;"/>
<line x1="45.000000" y1="67.000000" x2="256.500000" y2="67.000000"  style="stroke: black; stroke-linecap:round; stroke-width:0.25; stroke-dasharray:3,3;"/>
<line x1="256.500000" y1="67.000000" x2="256.500000" y2="25.000000"  style="stroke: black; stroke-linecap:round; stroke-width:0.25; stroke-dasharray:3,3;"/>
<line x1="45.000000" y1="25.000000" x2="50.000000" y2="25.000000"  style="stroke: black; stroke-linecap:round; stroke-width:0.25; stroke-dasharray:3,3;"/>
<line x1="79.025000" y1="25.000000" x2="256.500000" y2="25.000000"  style="stroke: black; stroke-linecap:round; stroke-width:0.25; stroke-dasharray:3,3;"/>
<text x="50.000000" y="27.000000" font-family="Verdana" font-size="7">altezza</text>
<rect x="34.000000" y="86.000000" width="193.500000" height="24.000000" rx="0" ry="0" style="stroke:#000000;fill:#FFFFFF;"/>
<text x="130.750000" y="100.000000" font-family="Verdana" font-size="7" text-anchor="middle" fill="#000000">hslider(Altezza, 1e+01f, 1.0f, 1e+02f, 1.0f)</text>
<circle cx="36.000000" cy="88.000000" r="1"/>
<line x1="25.000000" y1="77.000000" x2="25.000000" y2="119.000000"  style="stroke: black; stroke-linecap:round; stroke-width:0.25; stroke-dasharray:3,3;"/>
<line x1="25.000000" y1="119.000000" x2="236.500000" y2="119.000000"  style="stroke: black; stroke-linecap:round; stroke-width:0.25; stroke-dasharray:3,3;"/>
<line x1="236.500000" y1="119.000000" x2="236.500000" y2="77.000000"  style="stroke: black; stroke-linecap:round; stroke-width:0.25; stroke-dasharray:3,3;"/>
<line x1="25.000000" y1="77.000000" x2="30.000000" y2="77.000000"  style="stroke: black; stroke-linecap:round; stroke-width:0.25; stroke-dasharray:3,3;"/>
<line x1="59.025000" y1="77.000000" x2="236.500000" y2="77.000000"  style="stroke: black; stroke-linecap:round; stroke-width:0.25; stroke-dasharray:3,3;"/>
<text x="30.000000" y="79.000000" font-family="Verdana" font-size="7">altezza</text>
<a xlink:href="zpos-0x600001342490.svg">
<rect x="117.850000" y="128.000000" width="25.800000" height="24.000000" rx="0" ry="0" style="stroke:#000000;fill:#FFFFFF;"/>
</a>
<a xlink:href="zpos-0x600001342490.svg">
<text x="130.750000" y="142.000000" font-family="Verdana" font-size="7" text-anchor="middle" fill="#000000">zpos</text>
</a>
<circle cx="119.850000" cy="130.000000" r="1"/>
<rect x="253.500000" y="102.000000" width="24.000000" height="24.000000" rx="0" ry="0" style="stroke:#000000;fill:#FFFFFF;"/>
<text x="265.500000" y="116.000000" font-family="Verdana" font-size="7" text-anchor="middle" fill="#000000">*</text>
<circle cx="255.500000" cy="104.000000" r="1"/>
<line x1="250.500000" y1="109.000000" x2="253.500000" y2="110.000000"  transform="rotate(0.000000,253.500000,110.000000)" style="stroke: black; stroke-width:0.25;"/>
<line x1="250.500000" y1="111.000000" x2="253.500000" y2="110.000000"  transform="rotate(0.000000,253.500000,110.000000)" style="stroke: black; stroke-width:0.25;"/>
<line x1="250.500000" y1="117.000000" x2="253.500000" y2="118.000000"  transform="rotate(0.000000,253.500000,118.000000)" style="stroke: black; stroke-width:0.25;"/>
<line x1="250.500000" y1="119.000000" x2="253.500000" y2="118.000000"  transform="rotate(0.000000,253.500000,118.000000)" style="stroke: black; stroke-width:0.25;"/>
<rect x="293.500000" y="76.000000" width="24.000000" height="24.000000" rx="0" ry="0" style="stroke:#000000;fill:#FFFFFF;"/>
<text x="305.500000" y="90.000000" font-family="Verdana" font-size="7" text-anchor="middle" fill="#000000">-</text>
<circle cx="295.500000" cy="78.000000" r="1"/>
<line x1="290.500000" y1="83.000000" x2="293.500000" y2="84.000000"  transform="rotate(0.000000,293.500000,84.000000)" style="stroke: black; stroke-width:0.25;"/>
<line x1="290.500000" y1="85.000000" x2="293.500000" y2="84.000000"  transform="rotate(0.000000,293.500000,84.000000)" style="stroke: black; stroke-width:0.25;"/>
<line x1="290.500000" y1="91.000000" x2="293.500000" y2="92.000000"  transform="rotate(0.000000,293.500000,92.000000)" style="stroke: black; stroke-width:0.25;"/>
<line x1="290.500000" y1="93.000000" x2="293.500000" y2="92.000000"  transform="rotate(0.000000,293.500000,92.000000)" style="stroke: black; stroke-width:0.25;"/>
<a xlink:href="SR-0x60000121ccf0.svg">
<rect x="158.750000" y="160.000000" width="24.000000" height="24.000000" rx="0" ry="0" style="stroke:#000000;fill:#FFFFFF;"/>
</a>
<a xlink:href="SR-0x60000121ccf0.svg">
<text x="170.750000" y="174.000000" font-family="Verdana" font-size="7" text-anchor="middle" fill="#000000">SR</text>
</a>
<circle cx="160.750000" cy="162.000000" r="1"/>
<rect x="333.500000" y="92.000000" width="24.000000" height="24.000000" rx="0" ry="0" style="stroke:#000000;fill:#FFFFFF;"/>
<text x="345.500000" y="106.000000" font-family="Verdana" font-size="7" text-anchor="middle" fill="#000000">*</text>
<circle cx="335.500000" cy="94.000000" r="1"/>
<line x1="330.500000" y1="99.000000" x2="333.500000" y2="100.000000"  transform="rotate(0.000000,333.500000,100.000000)" style="stroke: black; stroke-width:0.25;"/>
<line x1="330.500000" y1="101.000000" x2="333.500000" y2="100.000000"  transform="rotate(0.000000,333.500000,100.000000)" style="stroke: black; stroke-width:0.25;"/>
<line x1="330.500000" y1="107.000000" x2="333.500000" y2="108.000000"  transform="rotate(0.000000,333.500000,108.000000)" style="stroke: black; stroke-width:0.25;"/>
<line x1="330.500000" y1="109.000000" x2="333.500000" y2="108.000000"  transform="rotate(0.000000,333.500000,108.000000)" style="stroke: black; stroke-width:0.25;"/>
<a xlink:href="velSuono-0x600001347c30.svg">
<rect x="171.400000" y="192.000000" width="38.700000" height="24.000000" rx="0" ry="0" style="stroke:#000000;fill:#FFFFFF;"/>
</a>
<a xlink:href="velSuono-0x600001347c30.svg">
<text x="190.750000" y="206.000000" font-family="Verdana" font-size="7" text-anchor="middle" fill="#000000">velSuono</text>
</a>
<circle cx="173.400000" cy="194.000000" r="1"/>
<rect x="373.500000" y="108.000000" width="24.000000" height="24.000000" rx="0" ry="0" style="stroke:#000000;fill:#FFFFFF;"/>
<text x="385.500000" y="122.000000" font-family="Verdana" font-size="7" text-anchor="middle" fill="#000000">/</text>
<circle cx="375.500000" cy="110.000000" r="1"/>
<line x1="370.500000" y1="115.000000" x2="373.500000" y2="116.000000"  transform="rotate(0.000000,373.500000,116.000000)" style="stroke: black; stroke-width:0.25;"/>
<line x1="370.500000" y1="117.000000" x2="373.500000" y2="116.000000"  transform="rotate(0.000000,373.500000,116.000000)" style="stroke: black; stroke-width:0.25;"/>
<line x1="370.500000" y1="123.000000" x2="373.500000" y2="124.000000"  transform="rotate(0.000000,373.500000,124.000000)" style="stroke: black; stroke-width:0.25;"/>
<line x1="370.500000" y1="125.000000" x2="373.500000" y2="124.000000"  transform="rotate(0.000000,373.500000,124.000000)" style="stroke: black; stroke-width:0.25;"/>
<rect x="405.500000" y="108.000000" width="24.000000" height="24.000000" rx="0" ry="0" style="stroke:#000000;fill:#FFFFFF;"/>
<text x="417.500000" y="122.000000" font-family="Verdana" font-size="7" text-anchor="middle" fill="#000000">int</text>
<circle cx="407.500000" cy="110.000000" r="1"/>
<line x1="402.500000" y1="119.000000" x2="405.500000" y2="120.000000"  transform="rotate(0.000000,405.500000,120.000000)" style="stroke: black; stroke-width:0.25;"/>
<line x1="402.500000" y1="121.000000" x2="405.500000" y2="120.000000"  transform="rotate(0.000000,405.500000,120.000000)" style="stroke: black; stroke-width:0.25;"/>
<line x1="15.000000" y1="15.000000" x2="15.000000" y2="225.000000"  style="stroke: black; stroke-linecap:round; stroke-width:0.25; stroke-dasharray:3,3;"/>
<line x1="15.000000" y1="225.000000" x2="446.500000" y2="225.000000"  style="stroke: black; stroke-linecap:round; stroke-width:0.25; stroke-dasharray:3,3;"/>
<line x1="446.500000" y1="225.000000" x2="446.500000" y2="15.000000"  style="stroke: black; stroke-linecap:round; stroke-width:0.25; stroke-dasharray:3,3;"/>
<line x1="15.000000" y1="15.000000" x2="20.000000" y2="15.000000"  style="stroke: black; stroke-linecap:round; stroke-width:0.25; stroke-dasharray:3,3;"/>
<line x1="32.900000" y1="15.000000" x2="446.500000" y2="15.000000"  style="stroke: black; stroke-linecap:round; stroke-width:0.25; stroke-dasharray:3,3;"/>
<text x="20.000000" y="17.000000" font-family="Verdana" font-size="7">c6</text>
<line x1="448.500000" y1="119.000000" x2="451.500000" y2="120.000000"  transform="rotate(0.000000,451.500000,120.000000)" style="stroke: black; stroke-width:0.25;"/>
<line x1="448.500000" y1="121.000000" x2="451.500000" y2="120.000000"  transform="rotate(0.000000,451.500000,120.000000)" style="stroke: black; stroke-width:0.25;"/>
<line x1="143.650000" y1="140.000000" x2="147.650000" y2="140.000000"  style="stroke:black; stroke-linecap:round; stroke-width:0.25;"/>
<line x1="147.650000" y1="140.000000" x2="241.500000" y2="140.000000"  style="stroke:black; stroke-linecap:round; stroke-width:0.25;"/>
<line x1="182.750000" y1="172.000000" x2="186.750000" y2="172.000000"  style="stroke:black; stroke-linecap:round; stroke-width:0.25;"/>
<line x1="186.750000" y1="172.000000" x2="321.500000" y2="172.000000"  style="stroke:black; stroke-linecap:round; stroke-width:0.25;"/>
<line x1="210.100000" y1="204.000000" x2="214.100000" y2="204.000000"  style="stroke:black; stroke-linecap:round; stroke-width:0.25;"/>
<line x1="214.100000" y1="204.000000" x2="361.500000" y2="204.000000"  style="stroke:black; stroke-linecap:round; stroke-width:0.25;"/>
<line x1="227.500000" y1="98.000000" x2="231.500000" y2="98.000000"  style="stroke:black; stroke-linecap:round; stroke-width:0.25;"/>
<line x1="231.500000" y1="98.000000" x2="241.500000" y2="98.000000"  style="stroke:black; stroke-linecap:round; stroke-width:0.25;"/>
<line x1="241.500000" y1="118.000000" x2="249.500000" y2="118.000000"  style="stroke:black; stroke-linecap:round; stroke-width:0.25;"/>
<line x1="241.500000" y1="140.000000" x2="241.500000" y2="118.000000"  style="stroke:black; stroke-linecap:round; stroke-width:0.25;"/>
<line x1="241.500000" y1="140.000000" x2="241.500000" y2="140.000000"  style="stroke:black; stroke-linecap:round; stroke-width:0.25;"/>
<line x1="241.500000" y1="98.000000" x2="249.500000" y2="98.000000"  style="stroke:black; stroke-linecap:round; stroke-width:0.25;"/>
<line x1="247.500000" y1="46.000000" x2="251.500000" y2="46.000000"  style="stroke:black; stroke-linecap:round; stroke-width:0.25;"/>
<line x1="249.500000" y1="98.000000" x2="249.500000" y2="110.000000"  style="stroke:black; stroke-linecap:round; stroke-width:0.25;"/>
<line x1="249.500000" y1="110.000000" x2="249.500000" y2="110.000000"  style="stroke:black; stroke-linecap:round; stroke-width:0.25;"/>
<line x1="249.500000" y1="110.000000" x2="253.500000" y2="110.000000"  style="stroke:black; stroke-linecap:round; stroke-width:0.25;"/>
<line x1="249.500000" y1="118.000000" x2="253.500000" y2="118.000000"  style="stroke:black; stroke-linecap:round; stroke-width:0.25;"/>
<line x1="251.500000" y1="46.000000" x2="261.500000" y2="46.000000"  style="stroke:black; stroke-linecap:round; stroke-width:0.25;"/>
<line x1="261.500000" y1="46.000000" x2="281.500000" y2="46.000000"  style="stroke:black; stroke-linecap:round; stroke-width:0.25;"/>
<line x1="277.500000" y1="114.000000" x2="281.500000" y2="114.000000"  style="stroke:black; stroke-linecap:round; stroke-width:0.25;"/>
<line x1="281.500000" y1="46.000000" x2="289.500000" y2="46.000000"  style="stroke:black; stroke-linecap:round; stroke-width:0.25;"/>
<line x1="281.500000" y1="92.000000" x2="289.500000" y2="92.000000"  style="stroke:black; stroke-linecap:round; stroke-width:0.25;"/>
<line x1="281.500000" y1="114.000000" x2="281.500000" y2="92.000000"  style="stroke:black; stroke-linecap:round; stroke-width:0.25;"/>
<line x1="281.500000" y1="114.000000" x2="281.500000" y2="114.000000"  style="stroke:black; stroke-linecap:round; stroke-width:0.25;"/>
<line x1="289.500000" y1="46.000000" x2="289.500000" y2="84.000000"  style="stroke:black; stroke-linecap:round; stroke-width:0.25;"/>
<line x1="289.500000" y1="84.000000" x2="289.500000" y2="84.000000"  style="stroke:black; stroke-linecap:round; stroke-width:0.25;"/>
<line x1="289.500000" y1="84.000000" x2="293.500000" y2="84.000000"  style="stroke:black; stroke-linecap:round; stroke-width:0.25;"/>
<line x1="289.500000" y1="92.000000" x2="293.500000" y2="92.000000"  style="stroke:black; stroke-linecap:round; stroke-width:0.25;"/>
<line x1="317.500000" y1="88.000000" x2="321.500000" y2="88.000000"  style="stroke:black; stroke-linecap:round; stroke-width:0.25;"/>
<line x1="321.500000" y1="88.000000" x2="329.500000" y2="88.000000"  style="stroke:black; stroke-linecap:round; stroke-width:0.25;"/>
<line x1="321.500000" y1="108.000000" x2="329.500000" y2="108.000000"  style="stroke:black; stroke-linecap:round; stroke-width:0.25;"/>
<line x1="321.500000" y1="172.000000" x2="321.500000" y2="108.000000"  style="stroke:black; stroke-linecap:round; stroke-width:0.25;"/>
<line x1="321.500000" y1="172.000000" x2="321.500000" y2="172.000000"  style="stroke:black; stroke-linecap:round; stroke-width:0.25;"/>
<line x1="329.500000" y1="88.000000" x2="329.500000" y2="100.000000"  style="stroke:black; stroke-linecap:round; stroke-width:0.25;"/>
<line x1="329.500000" y1="100.000000" x2="329.500000" y2="100.000000"  style="stroke:black; stroke-linecap:round; stroke-width:0.25;"/>
<line x1="329.500000" y1="100.000000" x2="333.500000" y2="100.000000"  style="stroke:black; stroke-linecap:round; stroke-width:0.25;"/>
<line x1="329.500000" y1="108.000000" x2="333.500000" y2="108.000000"  style="stroke:black; stroke-linecap:round; stroke-width:0.25;"/>
<line x1="357.500000" y1="104.000000" x2="361.500000" y2="104.000000"  style="stroke:black; stroke-linecap:round; stroke-width:0.25;"/>
<line x1="361.500000" y1="104.000000" x2="369.500000" y2="104.000000"  style="stroke:black; stroke-linecap:round; stroke-width:0.25;"/>
<line x1="361.500000" y1="124.000000" x2="369.500000" y2="124.000000"  style="stroke:black; stroke-linecap:round; stroke-width:0.25;"/>
<line x1="361.500000" y1="204.000000" x2="361.500000" y2="124.000000"  style="stroke:black; stroke-linecap:round; stroke-width:0.25;"/>
<line x1="361.500000" y1="204.000000" x2="361.500000" y2="204.000000"  style="stroke:black; stroke-linecap:round; stroke-width:0.25;"/>
<line x1="369.500000" y1="104.000000" x2="369.500000" y2="116.000000"  style="stroke:black; stroke-linecap:round; stroke-width:0.25;"/>
<line x1="369.500000" y1="116.000000" x2="369.500000" y2="116.000000"  style="stroke:black; stroke-linecap:round; stroke-width:0.25;"/>
<line x1="369.500000" y1="116.000000" x2="373.500000" y2="116.000000"  style="stroke:black; stroke-linecap:round; stroke-width:0.25;"/>
<line x1="369.500000" y1="124.000000" x2="373.500000" y2="124.000000"  style="stroke:black; stroke-linecap:round; stroke-width:0.25;"/>
<line x1="397.500000" y1="120.000000" x2="401.500000" y2="120.000000"  style="stroke:black; stroke-linecap:round; stroke-width:0.25;"/>
<line x1="401.500000" y1="120.000000" x2="401.500000" y2="120.000000"  style="stroke:black; stroke-linecap:round; stroke-width:0.25;"/>
<line x1="401.500000" y1="120.000000" x2="405.500000" y2="120.000000"  style="stroke:black; stroke-linecap:round; stroke-width:0.25;"/>
<line x1="429.500000" y1="120.000000" x2="433.500000" y2="120.000000"  style="stroke:black; stroke-linecap:round; stroke-width:0.25;"/>
<line x1="433.500000" y1="120.000000" x2="433.500000" y2="120.000000"  style="stroke:black; stroke-linecap:round; stroke-width:0.25;"/>
<line x1="433.500000" y1="120.000000" x2="437.500000" y2="120.000000"  style="stroke:black; stroke-linecap:round; stroke-width:0.25;"/>
<line x1="437.500000" y1="120.000000" x2="441.500000" y2="120.000000"  style="stroke:black; stroke-linecap:round; stroke-width:0.25;"/>
<line x1="441.500000" y1="120.000000" x2="451.500000" y2="120.000000"  style="stroke:black; stroke-linecap:round; stroke-width:0.25;"/>
</svg>
