<?xml version="1.0"?>
<svg xmlns="http://www.w3.org/2000/svg" xmlns:xlink="http://www.w3.org/1999/xlink" viewBox="0 0 455.300000 252.000000" width="227.650000mm" height="126.000000mm" version="1.1">
<a xlink:href="velSuono-0x600001347c30.svg">
<rect x="0.000000" y="0.000000" width="454.300000" height="251.000000" rx="0" ry="0" style="stroke:#000000;fill:#FFFFFF;"/>
</a>
<text x="10.000000" y="7.000000" font-family="Verdana" font-size="7"></text>
<rect x="170.750000" y="24.000000" width="25.800000" height="24.000000" rx="0" ry="0" style="stroke:#000000;fill:#FFFFFF;"/>
<text x="183.650000" y="38.000000" font-family="Verdana" font-size="7" text-anchor="middle" fill="#000000">3.217f</text>
<circle cx="172.750000" cy="26.000000" r="1"/>
<a xlink:href="press-0x6000013460a0.svg">
<rect x="170.750000" y="56.000000" width="25.800000" height="24.000000" rx="0" ry="0" style="stroke:#000000;fill:#FFFFFF;"/>
</a>
<a xlink:href="press-0x6000013460a0.svg">
<text x="183.650000" y="70.000000" font-family="Verdana" font-size="7" text-anchor="middle" fill="#000000">press</text>
</a>
<circle cx="172.750000" cy="58.000000" r="1"/>
<rect x="212.550000" y="40.000000" width="24.000000" height="24.000000" rx="0" ry="0" style="stroke:#000000;fill:#FFFFFF;"/>
<text x="224.550000" y="54.000000" font-family="Verdana" font-size="7" text-anchor="middle" fill="#000000">*</text>
<circle cx="214.550000" cy="42.000000" r="1"/>
<line x1="209.550000" y1="47.000000" x2="212.550000" y2="48.000000"  transform="rotate(0.000000,212.550000,48.000000)" style="stroke: black; stroke-width:0.25;"/>
<line x1="209.550000" y1="49.000000" x2="212.550000" y2="48.000000"  transform="rotate(0.000000,212.550000,48.000000)" style="stroke: black; stroke-width:0.25;"/>
<line x1="209.550000" y1="55.000000" x2="212.550000" y2="56.000000"  transform="rotate(0.000000,212.550000,56.000000)" style="stroke: black; stroke-width:0.25;"/>
<line x1="209.550000" y1="57.000000" x2="212.550000" y2="56.000000"  transform="rotate(0.000000,212.550000,56.000000)" style="stroke: black; stroke-width:0.25;"/>
<a xlink:href="press-0x6000013460a0.svg">
<rect x="170.750000" y="88.000000" width="25.800000" height="24.000000" rx="0" ry="0" style="stroke:#000000;fill:#FFFFFF;"/>
</a>
<a xlink:href="press-0x6000013460a0.svg">
<text x="183.650000" y="102.000000" font-family="Verdana" font-size="7" text-anchor="middle" fill="#000000">press</text>
</a>
<circle cx="172.750000" cy="90.000000" r="1"/>
<rect x="151.650000" y="120.000000" width="24.000000" height="24.000000" rx="0" ry="0" style="stroke:#000000;fill:#FFFFFF;"/>
<text x="163.650000" y="134.000000" font-family="Verdana" font-size="7" text-anchor="middle" fill="#000000">1</text>
<circle cx="153.650000" cy="122.000000" r="1"/>
<rect x="124.300000" y="152.000000" width="38.700000" height="24.000000" rx="0" ry="0" style="stroke:#000000;fill:#FFFFFF;"/>
<text x="143.650000" y="166.000000" font-family="Verdana" font-size="7" text-anchor="middle" fill="#000000">0.00367f</text>
<circle cx="126.300000" cy="154.000000" r="1"/>
<rect x="34.000000" y="194.000000" width="219.300000" height="24.000000" rx="0" ry="0" style="stroke:#000000;fill:#FFFFFF;"/>
<text x="143.650000" y="208.000000" font-family="Verdana" font-size="7" text-anchor="middle" fill="#000000">hslider(Temperature, 2e+01f, -2e+02f, 2e+02f, 0.1f)</text>
<circle cx="36.000000" cy="196.000000" r="1"/>
<line x1="25.000000" y1="185.000000" x2="25.000000" y2="227.000000"  style="stroke: black; stroke-linecap:round; stroke-width:0.25; stroke-dasharray:3,3;"/>
<line x1="25.000000" y1="227.000000" x2="262.300000" y2="227.000000"  style="stroke: black; stroke-linecap:round; stroke-width:0.25; stroke-dasharray:3,3;"/>
<line x1="262.300000" y1="227.000000" x2="262.300000" y2="185.000000"  style="stroke: black; stroke-linecap:round; stroke-width:0.25; stroke-dasharray:3,3;"/>
<line x1="25.000000" y1="185.000000" x2="30.000000" y2="185.000000"  style="stroke: black; stroke-linecap:round; stroke-width:0.25; stroke-dasharray:3,3;"/>
<line x1="49.350000" y1="185.000000" x2="262.300000" y2="185.000000"  style="stroke: black; stroke-linecap:round; stroke-width:0.25; stroke-dasharray:3,3;"/>
<text x="30.000000" y="187.000000" font-family="Verdana" font-size="7">temp</text>
<rect x="279.300000" y="178.000000" width="24.000000" height="24.000000" rx="0" ry="0" style="stroke:#000000;fill:#FFFFFF;"/>
<text x="291.300000" y="192.000000" font-family="Verdana" font-size="7" text-anchor="middle" fill="#000000">*</text>
<circle cx="281.300000" cy="180.000000" r="1"/>
<line x1="276.300000" y1="185.000000" x2="279.300000" y2="186.000000"  transform="rotate(0.000000,279.300000,186.000000)" style="stroke: black; stroke-width:0.25;"/>
<line x1="276.300000" y1="187.000000" x2="279.300000" y2="186.000000"  transform="rotate(0.000000,279.300000,186.000000)" style="stroke: black; stroke-width:0.25;"/>
<line x1="276.300000" y1="193.000000" x2="279.300000" y2="194.000000"  transform="rotate(0.000000,279.300000,194.000000)" style="stroke: black; stroke-width:0.25;"/>
<line x1="276.300000" y1="195.000000" x2="279.300000" y2="194.000000"  transform="rotate(0.000000,279.300000,194.000000)" style="stroke: black; stroke-width:0.25;"/>
<rect x="319.300000" y="162.000000" width="24.000000" height="24.000000" rx="0" ry="0" style="stroke:#000000;fill:#FFFFFF;"/>
<text x="331.300000" y="176.000000" font-family="Verdana" font-size="7" text-anchor="middle" fill="#000000">+</text>
<circle cx="321.300000" cy="164.000000" r="1"/>
<line x1="316.300000" y1="169.000000" x2="319.300000" y2="170.000000"  transform="rotate(0.000000,319.300000,170.000000)" style="stroke: black; stroke-width:0.25;"/>
<line x1="316.300000" y1="171.000000" x2="319.300000" y2="170.000000"  transform="rotate(0.000000,319.300000,170.000000)" style="stroke: black; stroke-width:0.25;"/>
<line x1="316.300000" y1="177.000000" x2="319.300000" y2="178.000000"  transform="rotate(0.000000,319.300000,178.000000)" style="stroke: black; stroke-width:0.25;"/>
<line x1="316.300000" y1="179.000000" x2="319.300000" y2="178.000000"  transform="rotate(0.000000,319.300000,178.000000)" style="stroke: black; stroke-width:0.25;"/>
<rect x="359.300000" y="146.000000" width="24.000000" height="24.000000" rx="0" ry="0" style="stroke:#000000;fill:#FFFFFF;"/>
<text x="371.300000" y="160.000000" font-family="Verdana" font-size="7" text-anchor="middle" fill="#000000">*</text>
<circle cx="361.300000" cy="148.000000" r="1"/>
<line x1="356.300000" y1="153.000000" x2="359.300000" y2="154.000000"  transform="rotate(0.000000,359.300000,154.000000)" style="stroke: black; stroke-width:0.25;"/>
<line x1="356.300000" y1="155.000000" x2="359.300000" y2="154.000000"  transform="rotate(0.000000,359.300000,154.000000)" style="stroke: black; stroke-width:0.25;"/>
<line x1="356.300000" y1="161.000000" x2="359.300000" y2="162.000000"  transform="rotate(0.000000,359.300000,162.000000)" style="stroke: black; stroke-width:0.25;"/>
<line x1="356.300000" y1="163.000000" x2="359.300000" y2="162.000000"  transform="rotate(0.000000,359.300000,162.000000)" style="stroke: black; stroke-width:0.25;"/>
<rect x="399.300000" y="114.000000" width="24.000000" height="24.000000" rx="0" ry="0" style="stroke:#000000;fill:#FFFFFF;"/>
<text x="411.300000" y="128.000000" font-family="Verdana" font-size="7" text-anchor="middle" fill="#000000">/</text>
<circle cx="401.300000" cy="116.000000" r="1"/>
<line x1="396.300000" y1="121.000000" x2="399.300000" y2="122.000000"  transform="rotate(0.000000,399.300000,122.000000)" style="stroke: black; stroke-width:0.25;"/>
<line x1="396.300000" y1="123.000000" x2="399.300000" y2="122.000000"  transform="rotate(0.000000,399.300000,122.000000)" style="stroke: black; stroke-width:0.25;"/>
<line x1="396.300000" y1="129.000000" x2="399.300000" y2="130.000000"  transform="rotate(0.000000,399.300000,130.000000)" style="stroke: black; stroke-width:0.25;"/>
<line x1="396.300000" y1="131.000000" x2="399.300000" y2="130.000000"  transform="rotate(0.000000,399.300000,130.000000)" style="stroke: black; stroke-width:0.25;"/>
<line x1="15.000000" y1="15.000000" x2="15.000000" y2="237.000000"  style="stroke: black; stroke-linecap:round; stroke-width:0.25; stroke-dasharray:3,3;"/>
<line x1="15.000000" y1="237.000000" x2="440.300000" y2="237.000000"  style="stroke: black; stroke-linecap:round; stroke-width:0.25; stroke-dasharray:3,3;"/>
<line x1="440.300000" y1="237.000000" x2="440.300000" y2="15.000000"  style="stroke: black; stroke-linecap:round; stroke-width:0.25; stroke-dasharray:3,3;"/>
<line x1="15.000000" y1="15.000000" x2="20.000000" y2="15.000000"  style="stroke: black; stroke-linecap:round; stroke-width:0.25; stroke-dasharray:3,3;"/>
<line x1="39.350000" y1="15.000000" x2="440.300000" y2="15.000000"  style="stroke: black; stroke-linecap:round; stroke-width:0.25; stroke-dasharray:3,3;"/>
<text x="20.000000" y="17.000000" font-family="Verdana" font-size="7">dens</text>
<line x1="442.300000" y1="125.000000" x2="445.300000" y2="126.000000"  transform="rotate(0.000000,445.300000,126.000000)" style="stroke: black; stroke-width:0.25;"/>
<line x1="442.300000" y1="127.000000" x2="445.300000" y2="126.000000"  transform="rotate(0.000000,445.300000,126.000000)" style="stroke: black; stroke-width:0.25;"/>
<line x1="163.000000" y1="164.000000" x2="167.000000" y2="164.000000"  style="stroke:black; stroke-linecap:round; stroke-width:0.25;"/>
<line x1="167.000000" y1="164.000000" x2="267.300000" y2="164.000000"  style="stroke:black; stroke-linecap:round; stroke-width:0.25;"/>
<line x1="175.650000" y1="132.000000" x2="179.650000" y2="132.000000"  style="stroke:black; stroke-linecap:round; stroke-width:0.25;"/>
<line x1="179.650000" y1="132.000000" x2="307.300000" y2="132.000000"  style="stroke:black; stroke-linecap:round; stroke-width:0.25;"/>
<line x1="196.550000" y1="36.000000" x2="200.550000" y2="36.000000"  style="stroke:black; stroke-linecap:round; stroke-width:0.25;"/>
<line x1="196.550000" y1="68.000000" x2="200.550000" y2="68.000000"  style="stroke:black; stroke-linecap:round; stroke-width:0.25;"/>
<line x1="196.550000" y1="100.000000" x2="200.550000" y2="100.000000"  style="stroke:black; stroke-linecap:round; stroke-width:0.25;"/>
<line x1="200.550000" y1="36.000000" x2="208.550000" y2="36.000000"  style="stroke:black; stroke-linecap:round; stroke-width:0.25;"/>
<line x1="200.550000" y1="56.000000" x2="208.550000" y2="56.000000"  style="stroke:black; stroke-linecap:round; stroke-width:0.25;"/>
<line x1="200.550000" y1="68.000000" x2="200.550000" y2="56.000000"  style="stroke:black; stroke-linecap:round; stroke-width:0.25;"/>
<line x1="200.550000" y1="68.000000" x2="200.550000" y2="68.000000"  style="stroke:black; stroke-linecap:round; stroke-width:0.25;"/>
<line x1="200.550000" y1="100.000000" x2="347.300000" y2="100.000000"  style="stroke:black; stroke-linecap:round; stroke-width:0.25;"/>
<line x1="208.550000" y1="36.000000" x2="208.550000" y2="48.000000"  style="stroke:black; stroke-linecap:round; stroke-width:0.25;"/>
<line x1="208.550000" y1="48.000000" x2="208.550000" y2="48.000000"  style="stroke:black; stroke-linecap:round; stroke-width:0.25;"/>
<line x1="208.550000" y1="48.000000" x2="212.550000" y2="48.000000"  style="stroke:black; stroke-linecap:round; stroke-width:0.25;"/>
<line x1="208.550000" y1="56.000000" x2="212.550000" y2="56.000000"  style="stroke:black; stroke-linecap:round; stroke-width:0.25;"/>
<line x1="236.550000" y1="52.000000" x2="240.550000" y2="52.000000"  style="stroke:black; stroke-linecap:round; stroke-width:0.25;"/>
<line x1="240.550000" y1="52.000000" x2="387.300000" y2="52.000000"  style="stroke:black; stroke-linecap:round; stroke-width:0.25;"/>
<line x1="253.300000" y1="206.000000" x2="257.300000" y2="206.000000"  style="stroke:black; stroke-linecap:round; stroke-width:0.25;"/>
<line x1="257.300000" y1="206.000000" x2="267.300000" y2="206.000000"  style="stroke:black; stroke-linecap:round; stroke-width:0.25;"/>
<line x1="267.300000" y1="194.000000" x2="275.300000" y2="194.000000"  style="stroke:black; stroke-linecap:round; stroke-width:0.25;"/>
<line x1="267.300000" y1="206.000000" x2="267.300000" y2="194.000000"  style="stroke:black; stroke-linecap:round; stroke-width:0.25;"/>
<line x1="267.300000" y1="206.000000" x2="267.300000" y2="206.000000"  style="stroke:black; stroke-linecap:round; stroke-width:0.25;"/>
<line x1="267.300000" y1="164.000000" x2="275.300000" y2="164.000000"  style="stroke:black; stroke-linecap:round; stroke-width:0.25;"/>
<line x1="275.300000" y1="186.000000" x2="279.300000" y2="186.000000"  style="stroke:black; stroke-linecap:round; stroke-width:0.25;"/>
<line x1="275.300000" y1="194.000000" x2="279.300000" y2="194.000000"  style="stroke:black; stroke-linecap:round; stroke-width:0.25;"/>
<line x1="275.300000" y1="164.000000" x2="275.300000" y2="186.000000"  style="stroke:black; stroke-linecap:round; stroke-width:0.25;"/>
<line x1="275.300000" y1="186.000000" x2="275.300000" y2="186.000000"  style="stroke:black; stroke-linecap:round; stroke-width:0.25;"/>
<line x1="303.300000" y1="190.000000" x2="307.300000" y2="190.000000"  style="stroke:black; stroke-linecap:round; stroke-width:0.25;"/>
<line x1="307.300000" y1="132.000000" x2="315.300000" y2="132.000000"  style="stroke:black; stroke-linecap:round; stroke-width:0.25;"/>
<line x1="307.300000" y1="178.000000" x2="315.300000" y2="178.000000"  style="stroke:black; stroke-linecap:round; stroke-width:0.25;"/>
<line x1="307.300000" y1="190.000000" x2="307.300000" y2="178.000000"  style="stroke:black; stroke-linecap:round; stroke-width:0.25;"/>
<line x1="307.300000" y1="190.000000" x2="307.300000" y2="190.000000"  style="stroke:black; stroke-linecap:round; stroke-width:0.25;"/>
<line x1="315.300000" y1="132.000000" x2="315.300000" y2="170.000000"  style="stroke:black; stroke-linecap:round; stroke-width:0.25;"/>
<line x1="315.300000" y1="170.000000" x2="315.300000" y2="170.000000"  style="stroke:black; stroke-linecap:round; stroke-width:0.25;"/>
<line x1="315.300000" y1="170.000000" x2="319.300000" y2="170.000000"  style="stroke:black; stroke-linecap:round; stroke-width:0.25;"/>
<line x1="315.300000" y1="178.000000" x2="319.300000" y2="178.000000"  style="stroke:black; stroke-linecap:round; stroke-width:0.25;"/>
<line x1="343.300000" y1="174.000000" x2="347.300000" y2="174.000000"  style="stroke:black; stroke-linecap:round; stroke-width:0.25;"/>
<line x1="347.300000" y1="100.000000" x2="355.300000" y2="100.000000"  style="stroke:black; stroke-linecap:round; stroke-width:0.25;"/>
<line x1="347.300000" y1="162.000000" x2="355.300000" y2="162.000000"  style="stroke:black; stroke-linecap:round; stroke-width:0.25;"/>
<line x1="347.300000" y1="174.000000" x2="347.300000" y2="162.000000"  style="stroke:black; stroke-linecap:round; stroke-width:0.25;"/>
<line x1="347.300000" y1="174.000000" x2="347.300000" y2="174.000000"  style="stroke:black; stroke-linecap:round; stroke-width:0.25;"/>
<line x1="355.300000" y1="100.000000" x2="355.300000" y2="154.000000"  style="stroke:black; stroke-linecap:round; stroke-width:0.25;"/>
<line x1="355.300000" y1="154.000000" x2="355.300000" y2="154.000000"  style="stroke:black; stroke-linecap:round; stroke-width:0.25;"/>
<line x1="355.300000" y1="154.000000" x2="359.300000" y2="154.000000"  style="stroke:black; stroke-linecap:round; stroke-width:0.25;"/>
<line x1="355.300000" y1="162.000000" x2="359.300000" y2="162.000000"  style="stroke:black; stroke-linecap:round; stroke-width:0.25;"/>
<line x1="383.300000" y1="158.000000" x2="387.300000" y2="158.000000"  style="stroke:black; stroke-linecap:round; stroke-width:0.25;"/>
<line x1="387.300000" y1="52.000000" x2="395.300000" y2="52.000000"  style="stroke:black; stroke-linecap:round; stroke-width:0.25;"/>
<line x1="387.300000" y1="130.000000" x2="395.300000" y2="130.000000"  style="stroke:black; stroke-linecap:round; stroke-width:0.25;"/>
<line x1="387.300000" y1="158.000000" x2="387.300000" y2="130.000000"  style="stroke:black; stroke-linecap:round; stroke-width:0.25;"/>
<line x1="387.300000" y1="158.000000" x2="387.300000" y2="158.000000"  style="stroke:black; stroke-linecap:round; stroke-width:0.25;"/>
<line x1="395.300000" y1="52.000000" x2="395.300000" y2="122.000000"  style="stroke:black; stroke-linecap:round; stroke-width:0.25;"/>
<line x1="395.300000" y1="122.000000" x2="395.300000" y2="122.000000"  style="stroke:black; stroke-linecap:round; stroke-width:0.25;"/>
<line x1="395.300000" y1="122.000000" x2="399.300000" y2="122.000000"  style="stroke:black; stroke-linecap:round; stroke-width:0.25;"/>
<line x1="395.300000" y1="130.000000" x2="399.300000" y2="130.000000"  style="stroke:black; stroke-linecap:round; stroke-width:0.25;"/>
<line x1="423.300000" y1="126.000000" x2="427.300000" y2="126.000000"  style="stroke:black; stroke-linecap:round; stroke-width:0.25;"/>
<line x1="427.300000" y1="126.000000" x2="427.300000" y2="126.000000"  style="stroke:black; stroke-linecap:round; stroke-width:0.25;"/>
<line x1="427.300000" y1="126.000000" x2="431.300000" y2="126.000000"  style="stroke:black; stroke-linecap:round; stroke-width:0.25;"/>
<line x1="431.300000" y1="126.000000" x2="435.300000" y2="126.000000"  style="stroke:black; stroke-linecap:round; stroke-width:0.25;"/>
<line x1="435.300000" y1="126.000000" x2="445.300000" y2="126.000000"  style="stroke:black; stroke-linecap:round; stroke-width:0.25;"/>
</svg>
