<?xml version="1.0"?>
<svg xmlns="http://www.w3.org/2000/svg" xmlns:xlink="http://www.w3.org/1999/xlink" viewBox="0 0 322.800000 136.000000" width="161.400000mm" height="68.000000mm" version="1.1">
<a xlink:href="process.svg">
<rect x="0.000000" y="0.000000" width="321.800000" height="135.000000" rx="0" ry="0" style="stroke:#000000;fill:#FFFFFF;"/>
</a>
<text x="10.000000" y="7.000000" font-family="Verdana" font-size="7"></text>
<rect x="64.900000" y="88.000000" width="24.000000" height="24.000000" rx="0" ry="0" style="stroke:#000000;fill:#FFFFFF;"/>
<text x="76.900000" y="102.000000" font-family="Verdana" font-size="7" text-anchor="middle" fill="#000000">+</text>
<circle cx="66.900000" cy="90.000000" r="1"/>
<line x1="61.900000" y1="95.000000" x2="64.900000" y2="96.000000"  transform="rotate(0.000000,64.900000,96.000000)" style="stroke: black; stroke-width:0.25;"/>
<line x1="61.900000" y1="97.000000" x2="64.900000" y2="96.000000"  transform="rotate(0.000000,64.900000,96.000000)" style="stroke: black; stroke-width:0.25;"/>
<line x1="61.900000" y1="103.000000" x2="64.900000" y2="104.000000"  transform="rotate(0.000000,64.900000,104.000000)" style="stroke: black; stroke-width:0.25;"/>
<line x1="61.900000" y1="105.000000" x2="64.900000" y2="104.000000"  transform="rotate(0.000000,64.900000,104.000000)" style="stroke: black; stroke-width:0.25;"/>
<a xlink:href="delay-0x600001074000.svg">
<rect x="96.900000" y="88.000000" width="129.000000" height="24.000000" rx="0" ry="0" style="stroke:#000000;fill:#FFFFFF;"/>
</a>
<a xlink:href="delay-0x600001074000.svg">
<text x="161.400000" y="102.000000" font-family="Verdana" font-size="7" text-anchor="middle" fill="#000000">delay(1.92e+0...: int),1 : -)</text>
</a>
<circle cx="98.900000" cy="90.000000" r="1"/>
<line x1="93.900000" y1="99.000000" x2="96.900000" y2="100.000000"  transform="rotate(0.000000,96.900000,100.000000)" style="stroke: black; stroke-width:0.25;"/>
<line x1="93.900000" y1="101.000000" x2="96.900000" y2="100.000000"  transform="rotate(0.000000,96.900000,100.000000)" style="stroke: black; stroke-width:0.25;"/>
<a xlink:href="fir-0x6000013339f0.svg">
<rect x="139.600000" y="56.000000" width="51.600000" height="24.000000" rx="0" ry="0" style="stroke:#000000;fill:#FFFFFF;"/>
</a>
<a xlink:href="fir-0x6000013339f0.svg">
<text x="165.400000" y="70.000000" font-family="Verdana" font-size="7" text-anchor="middle" fill="#000000">fir(0.75f)</text>
</a>
<circle cx="189.200000" cy="78.000000" r="1"/>
<line x1="194.200000" y1="67.000000" x2="191.200000" y2="68.000000"  transform="rotate(0.000000,191.200000,68.000000)" style="stroke: black; stroke-width:0.25;"/>
<line x1="194.200000" y1="69.000000" x2="191.200000" y2="68.000000"  transform="rotate(0.000000,191.200000,68.000000)" style="stroke: black; stroke-width:0.25;"/>
<a xlink:href="g2-0x6000013bb060.svg">
<rect x="88.000000" y="24.000000" width="154.800000" height="24.000000" rx="0" ry="0" style="stroke:#000000;fill:#FFFFFF;"/>
</a>
<a xlink:href="g2-0x6000013bb060.svg">
<text x="165.400000" y="38.000000" font-family="Verdana" font-size="7" text-anchor="middle" fill="#000000">g2((hslider(&quot;... /),0.5f : *)(0.75f)</text>
</a>
<circle cx="240.800000" cy="46.000000" r="1"/>
<rect x="48.000000" y="40.000000" width="24.000000" height="24.000000" rx="0" ry="0" style="stroke:#000000;fill:#FFFFFF;"/>
<text x="60.000000" y="54.000000" font-family="Verdana" font-size="7" text-anchor="middle" fill="#000000">*</text>
<circle cx="70.000000" cy="62.000000" r="1"/>
<line x1="75.000000" y1="55.000000" x2="72.000000" y2="56.000000"  transform="rotate(0.000000,72.000000,56.000000)" style="stroke: black; stroke-width:0.25;"/>
<line x1="75.000000" y1="57.000000" x2="72.000000" y2="56.000000"  transform="rotate(0.000000,72.000000,56.000000)" style="stroke: black; stroke-width:0.25;"/>
<line x1="75.000000" y1="47.000000" x2="72.000000" y2="48.000000"  transform="rotate(0.000000,72.000000,48.000000)" style="stroke: black; stroke-width:0.25;"/>
<line x1="75.000000" y1="49.000000" x2="72.000000" y2="48.000000"  transform="rotate(0.000000,72.000000,48.000000)" style="stroke: black; stroke-width:0.25;"/>
<line x1="244.800000" y1="100.000000" x2="244.800000" y2="96.000000"  style="stroke:black; stroke-linecap:round; stroke-width:0.25;"/>
<line x1="244.800000" y1="96.000000" x2="248.800000" y2="96.000000"  style="stroke:black; stroke-linecap:round; stroke-width:0.25;"/>
<line x1="248.800000" y1="96.000000" x2="248.800000" y2="100.000000"  style="stroke:black; stroke-linecap:round; stroke-width:0.25;"/>
<rect x="266.800000" y="56.000000" width="24.000000" height="24.000000" rx="0" ry="0" style="stroke:#000000;fill:#FFFFFF;"/>
<text x="278.800000" y="70.000000" font-family="Verdana" font-size="7" text-anchor="middle" fill="#000000">mem</text>
<circle cx="268.800000" cy="58.000000" r="1"/>
<line x1="263.800000" y1="67.000000" x2="266.800000" y2="68.000000"  transform="rotate(0.000000,266.800000,68.000000)" style="stroke: black; stroke-width:0.25;"/>
<line x1="263.800000" y1="69.000000" x2="266.800000" y2="68.000000"  transform="rotate(0.000000,266.800000,68.000000)" style="stroke: black; stroke-width:0.25;"/>
<line x1="15.000000" y1="15.000000" x2="15.000000" y2="121.000000"  style="stroke: black; stroke-linecap:round; stroke-width:0.25; stroke-dasharray:3,3;"/>
<line x1="15.000000" y1="121.000000" x2="307.800000" y2="121.000000"  style="stroke: black; stroke-linecap:round; stroke-width:0.25; stroke-dasharray:3,3;"/>
<line x1="307.800000" y1="121.000000" x2="307.800000" y2="15.000000"  style="stroke: black; stroke-linecap:round; stroke-width:0.25; stroke-dasharray:3,3;"/>
<line x1="15.000000" y1="15.000000" x2="20.000000" y2="15.000000"  style="stroke: black; stroke-linecap:round; stroke-width:0.25; stroke-dasharray:3,3;"/>
<line x1="142.550000" y1="15.000000" x2="307.800000" y2="15.000000"  style="stroke: black; stroke-linecap:round; stroke-width:0.25; stroke-dasharray:3,3;"/>
<text x="20.000000" y="17.000000" font-family="Verdana" font-size="7">dfldf(((hslid... /),0.5f : *)(0.75f)</text>
<line x1="309.800000" y1="67.000000" x2="312.800000" y2="68.000000"  transform="rotate(0.000000,312.800000,68.000000)" style="stroke: black; stroke-width:0.25;"/>
<line x1="309.800000" y1="69.000000" x2="312.800000" y2="68.000000"  transform="rotate(0.000000,312.800000,68.000000)" style="stroke: black; stroke-width:0.25;"/>
<line x1="10.000000" y1="68.000000" x2="20.000000" y2="68.000000"  style="stroke:black; stroke-linecap:round; stroke-width:0.25;"/>
<line x1="20.000000" y1="68.000000" x2="24.000000" y2="68.000000"  style="stroke:black; stroke-linecap:round; stroke-width:0.25;"/>
<line x1="24.000000" y1="68.000000" x2="28.000000" y2="68.000000"  style="stroke:black; stroke-linecap:round; stroke-width:0.25;"/>
<line x1="28.000000" y1="68.000000" x2="36.000000" y2="68.000000"  style="stroke:black; stroke-linecap:round; stroke-width:0.25;"/>
<line x1="36.000000" y1="68.000000" x2="36.000000" y2="104.000000"  style="stroke:black; stroke-linecap:round; stroke-width:0.25;"/>
<line x1="36.000000" y1="104.000000" x2="36.000000" y2="104.000000"  style="stroke:black; stroke-linecap:round; stroke-width:0.25;"/>
<line x1="36.000000" y1="104.000000" x2="44.000000" y2="104.000000"  style="stroke:black; stroke-linecap:round; stroke-width:0.25;"/>
<line x1="44.000000" y1="52.000000" x2="44.000000" y2="52.000000"  style="stroke:black; stroke-linecap:round; stroke-width:0.25;"/>
<line x1="44.000000" y1="52.000000" x2="44.000000" y2="96.000000"  style="stroke:black; stroke-linecap:round; stroke-width:0.25;"/>
<line x1="44.000000" y1="96.000000" x2="44.000000" y2="96.000000"  style="stroke:black; stroke-linecap:round; stroke-width:0.25;"/>
<line x1="44.000000" y1="96.000000" x2="60.900000" y2="96.000000"  style="stroke:black; stroke-linecap:round; stroke-width:0.25;"/>
<line x1="44.000000" y1="104.000000" x2="60.900000" y2="104.000000"  style="stroke:black; stroke-linecap:round; stroke-width:0.25;"/>
<line x1="48.000000" y1="52.000000" x2="44.000000" y2="52.000000"  style="stroke:black; stroke-linecap:round; stroke-width:0.25;"/>
<line x1="60.900000" y1="96.000000" x2="64.900000" y2="96.000000"  style="stroke:black; stroke-linecap:round; stroke-width:0.25;"/>
<line x1="60.900000" y1="104.000000" x2="64.900000" y2="104.000000"  style="stroke:black; stroke-linecap:round; stroke-width:0.25;"/>
<line x1="76.000000" y1="48.000000" x2="72.000000" y2="48.000000"  style="stroke:black; stroke-linecap:round; stroke-width:0.25;"/>
<line x1="76.000000" y1="56.000000" x2="72.000000" y2="56.000000"  style="stroke:black; stroke-linecap:round; stroke-width:0.25;"/>
<line x1="76.000000" y1="56.000000" x2="76.000000" y2="56.000000"  style="stroke:black; stroke-linecap:round; stroke-width:0.25;"/>
<line x1="76.000000" y1="68.000000" x2="76.000000" y2="56.000000"  style="stroke:black; stroke-linecap:round; stroke-width:0.25;"/>
<line x1="84.000000" y1="36.000000" x2="84.000000" y2="36.000000"  style="stroke:black; stroke-linecap:round; stroke-width:0.25;"/>
<line x1="84.000000" y1="36.000000" x2="84.000000" y2="48.000000"  style="stroke:black; stroke-linecap:round; stroke-width:0.25;"/>
<line x1="84.000000" y1="48.000000" x2="76.000000" y2="48.000000"  style="stroke:black; stroke-linecap:round; stroke-width:0.25;"/>
<line x1="84.000000" y1="68.000000" x2="76.000000" y2="68.000000"  style="stroke:black; stroke-linecap:round; stroke-width:0.25;"/>
<line x1="88.000000" y1="36.000000" x2="84.000000" y2="36.000000"  style="stroke:black; stroke-linecap:round; stroke-width:0.25;"/>
<line x1="88.900000" y1="100.000000" x2="92.900000" y2="100.000000"  style="stroke:black; stroke-linecap:round; stroke-width:0.25;"/>
<line x1="92.900000" y1="100.000000" x2="92.900000" y2="100.000000"  style="stroke:black; stroke-linecap:round; stroke-width:0.25;"/>
<line x1="92.900000" y1="100.000000" x2="96.900000" y2="100.000000"  style="stroke:black; stroke-linecap:round; stroke-width:0.25;"/>
<line x1="135.600000" y1="68.000000" x2="84.000000" y2="68.000000"  style="stroke:black; stroke-linecap:round; stroke-width:0.25;"/>
<line x1="139.600000" y1="68.000000" x2="135.600000" y2="68.000000"  style="stroke:black; stroke-linecap:round; stroke-width:0.25;"/>
<line x1="195.200000" y1="68.000000" x2="191.200000" y2="68.000000"  style="stroke:black; stroke-linecap:round; stroke-width:0.25;"/>
<line x1="225.900000" y1="100.000000" x2="229.900000" y2="100.000000"  style="stroke:black; stroke-linecap:round; stroke-width:0.25;"/>
<line x1="229.900000" y1="100.000000" x2="246.800000" y2="100.000000"  style="stroke:black; stroke-linecap:round; stroke-width:0.25;"/>
<line x1="246.800000" y1="68.000000" x2="246.800000" y2="68.000000"  style="stroke:black; stroke-linecap:round; stroke-width:0.25;"/>
<line x1="246.800000" y1="96.000000" x2="246.800000" y2="68.000000"  style="stroke:black; stroke-linecap:round; stroke-width:0.25;"/>
<line x1="246.800000" y1="100.000000" x2="248.800000" y2="100.000000"  style="stroke:black; stroke-linecap:round; stroke-width:0.25;"/>
<line x1="246.800000" y1="68.000000" x2="195.200000" y2="68.000000"  style="stroke:black; stroke-linecap:round; stroke-width:0.25;"/>
<line x1="248.800000" y1="100.000000" x2="254.800000" y2="100.000000"  style="stroke:black; stroke-linecap:round; stroke-width:0.25;"/>
<line x1="254.800000" y1="68.000000" x2="262.800000" y2="68.000000"  style="stroke:black; stroke-linecap:round; stroke-width:0.25;"/>
<line x1="254.800000" y1="100.000000" x2="254.800000" y2="68.000000"  style="stroke:black; stroke-linecap:round; stroke-width:0.25;"/>
<line x1="254.800000" y1="100.000000" x2="254.800000" y2="100.000000"  style="stroke:black; stroke-linecap:round; stroke-width:0.25;"/>
<line x1="262.800000" y1="68.000000" x2="266.800000" y2="68.000000"  style="stroke:black; stroke-linecap:round; stroke-width:0.25;"/>
<line x1="290.800000" y1="68.000000" x2="294.800000" y2="68.000000"  style="stroke:black; stroke-linecap:round; stroke-width:0.25;"/>
<line x1="294.800000" y1="68.000000" x2="294.800000" y2="68.000000"  style="stroke:black; stroke-linecap:round; stroke-width:0.25;"/>
<line x1="294.800000" y1="68.000000" x2="298.800000" y2="68.000000"  style="stroke:black; stroke-linecap:round; stroke-width:0.25;"/>
<line x1="298.800000" y1="68.000000" x2="302.800000" y2="68.000000"  style="stroke:black; stroke-linecap:round; stroke-width:0.25;"/>
<line x1="302.800000" y1="68.000000" x2="312.800000" y2="68.000000"  style="stroke:black; stroke-linecap:round; stroke-width:0.25;"/>
</svg>
