<?xml version="1.0"?>
<svg xmlns="http://www.w3.org/2000/svg" xmlns:xlink="http://www.w3.org/1999/xlink" viewBox="0 0 305.600000 152.000000" width="152.800000mm" height="76.000000mm" version="1.1">
<a xlink:href="midside-0x6000010426d0.svg">
<rect x="0.000000" y="0.000000" width="304.600000" height="151.000000" rx="0" ry="0" style="stroke:#000000;fill:#FFFFFF;"/>
</a>
<text x="10.000000" y="7.000000" font-family="Verdana" font-size="7"></text>
<rect x="119.800000" y="32.000000" width="24.000000" height="24.000000" rx="0" ry="0" style="stroke:#000000;fill:#FFFFFF;"/>
<text x="131.800000" y="46.000000" font-family="Verdana" font-size="7" text-anchor="middle" fill="#000000">0</text>
<circle cx="121.800000" cy="34.000000" r="1"/>
<rect x="159.800000" y="28.000000" width="24.000000" height="24.000000" rx="0" ry="0" style="stroke:#000000;fill:#FFFFFF;"/>
<text x="171.800000" y="42.000000" font-family="Verdana" font-size="7" text-anchor="middle" fill="#000000">*</text>
<circle cx="161.800000" cy="30.000000" r="1"/>
<line x1="156.800000" y1="35.000000" x2="159.800000" y2="36.000000"  transform="rotate(0.000000,159.800000,36.000000)" style="stroke: black; stroke-width:0.25;"/>
<line x1="156.800000" y1="37.000000" x2="159.800000" y2="36.000000"  transform="rotate(0.000000,159.800000,36.000000)" style="stroke: black; stroke-width:0.25;"/>
<line x1="156.800000" y1="43.000000" x2="159.800000" y2="44.000000"  transform="rotate(0.000000,159.800000,44.000000)" style="stroke: black; stroke-width:0.25;"/>
<line x1="156.800000" y1="45.000000" x2="159.800000" y2="44.000000"  transform="rotate(0.000000,159.800000,44.000000)" style="stroke: black; stroke-width:0.25;"/>
<rect x="119.800000" y="64.000000" width="24.000000" height="24.000000" rx="0" ry="0" style="stroke:#000000;fill:#FFFFFF;"/>
<text x="131.800000" y="78.000000" font-family="Verdana" font-size="7" text-anchor="middle" fill="#000000">1</text>
<circle cx="121.800000" cy="66.000000" r="1"/>
<rect x="70.000000" y="104.000000" width="51.600000" height="24.000000" rx="0" ry="0" style="stroke:#000000;fill:#FFFFFF;"/>
<text x="95.800000" y="118.000000" font-family="Verdana" font-size="7" text-anchor="middle" fill="#000000">5.2359877f</text>
<circle cx="72.000000" cy="106.000000" r="1"/>
<rect x="129.600000" y="104.000000" width="24.000000" height="24.000000" rx="0" ry="0" style="stroke:#000000;fill:#FFFFFF;"/>
<text x="141.600000" y="118.000000" font-family="Verdana" font-size="7" text-anchor="middle" fill="#000000">cos</text>
<circle cx="131.600000" cy="106.000000" r="1"/>
<line x1="126.600000" y1="115.000000" x2="129.600000" y2="116.000000"  transform="rotate(0.000000,129.600000,116.000000)" style="stroke: black; stroke-width:0.25;"/>
<line x1="126.600000" y1="117.000000" x2="129.600000" y2="116.000000"  transform="rotate(0.000000,129.600000,116.000000)" style="stroke: black; stroke-width:0.25;"/>
<rect x="169.600000" y="100.000000" width="24.000000" height="24.000000" rx="0" ry="0" style="stroke:#000000;fill:#FFFFFF;"/>
<text x="181.600000" y="114.000000" font-family="Verdana" font-size="7" text-anchor="middle" fill="#000000">*</text>
<circle cx="171.600000" cy="102.000000" r="1"/>
<line x1="166.600000" y1="107.000000" x2="169.600000" y2="108.000000"  transform="rotate(0.000000,169.600000,108.000000)" style="stroke: black; stroke-width:0.25;"/>
<line x1="166.600000" y1="109.000000" x2="169.600000" y2="108.000000"  transform="rotate(0.000000,169.600000,108.000000)" style="stroke: black; stroke-width:0.25;"/>
<line x1="166.600000" y1="115.000000" x2="169.600000" y2="116.000000"  transform="rotate(0.000000,169.600000,116.000000)" style="stroke: black; stroke-width:0.25;"/>
<line x1="166.600000" y1="117.000000" x2="169.600000" y2="116.000000"  transform="rotate(0.000000,169.600000,116.000000)" style="stroke: black; stroke-width:0.25;"/>
<rect x="209.600000" y="84.000000" width="24.000000" height="24.000000" rx="0" ry="0" style="stroke:#000000;fill:#FFFFFF;"/>
<text x="221.600000" y="98.000000" font-family="Verdana" font-size="7" text-anchor="middle" fill="#000000">*</text>
<circle cx="211.600000" cy="86.000000" r="1"/>
<line x1="206.600000" y1="91.000000" x2="209.600000" y2="92.000000"  transform="rotate(0.000000,209.600000,92.000000)" style="stroke: black; stroke-width:0.25;"/>
<line x1="206.600000" y1="93.000000" x2="209.600000" y2="92.000000"  transform="rotate(0.000000,209.600000,92.000000)" style="stroke: black; stroke-width:0.25;"/>
<line x1="206.600000" y1="99.000000" x2="209.600000" y2="100.000000"  transform="rotate(0.000000,209.600000,100.000000)" style="stroke: black; stroke-width:0.25;"/>
<line x1="206.600000" y1="101.000000" x2="209.600000" y2="100.000000"  transform="rotate(0.000000,209.600000,100.000000)" style="stroke: black; stroke-width:0.25;"/>
<rect x="249.600000" y="64.000000" width="24.000000" height="24.000000" rx="0" ry="0" style="stroke:#000000;fill:#FFFFFF;"/>
<text x="261.600000" y="78.000000" font-family="Verdana" font-size="7" text-anchor="middle" fill="#000000">+</text>
<circle cx="251.600000" cy="66.000000" r="1"/>
<line x1="246.600000" y1="71.000000" x2="249.600000" y2="72.000000"  transform="rotate(0.000000,249.600000,72.000000)" style="stroke: black; stroke-width:0.25;"/>
<line x1="246.600000" y1="73.000000" x2="249.600000" y2="72.000000"  transform="rotate(0.000000,249.600000,72.000000)" style="stroke: black; stroke-width:0.25;"/>
<line x1="246.600000" y1="79.000000" x2="249.600000" y2="80.000000"  transform="rotate(0.000000,249.600000,80.000000)" style="stroke: black; stroke-width:0.25;"/>
<line x1="246.600000" y1="81.000000" x2="249.600000" y2="80.000000"  transform="rotate(0.000000,249.600000,80.000000)" style="stroke: black; stroke-width:0.25;"/>
<line x1="15.000000" y1="15.000000" x2="15.000000" y2="137.000000"  style="stroke: black; stroke-linecap:round; stroke-width:0.25; stroke-dasharray:3,3;"/>
<line x1="15.000000" y1="137.000000" x2="290.600000" y2="137.000000"  style="stroke: black; stroke-linecap:round; stroke-width:0.25; stroke-dasharray:3,3;"/>
<line x1="290.600000" y1="137.000000" x2="290.600000" y2="15.000000"  style="stroke: black; stroke-linecap:round; stroke-width:0.25; stroke-dasharray:3,3;"/>
<line x1="15.000000" y1="15.000000" x2="20.000000" y2="15.000000"  style="stroke: black; stroke-linecap:round; stroke-width:0.25; stroke-dasharray:3,3;"/>
<line x1="78.050000" y1="15.000000" x2="290.600000" y2="15.000000"  style="stroke: black; stroke-linecap:round; stroke-width:0.25; stroke-dasharray:3,3;"/>
<text x="20.000000" y="17.000000" font-family="Verdana" font-size="7">m(1)(5.2359877f)</text>
<line x1="292.600000" y1="75.000000" x2="295.600000" y2="76.000000"  transform="rotate(0.000000,295.600000,76.000000)" style="stroke: black; stroke-width:0.25;"/>
<line x1="292.600000" y1="77.000000" x2="295.600000" y2="76.000000"  transform="rotate(0.000000,295.600000,76.000000)" style="stroke: black; stroke-width:0.25;"/>
<line x1="10.000000" y1="76.000000" x2="20.000000" y2="76.000000"  style="stroke:black; stroke-linecap:round; stroke-width:0.25;"/>
<line x1="20.000000" y1="76.000000" x2="24.000000" y2="76.000000"  style="stroke:black; stroke-linecap:round; stroke-width:0.25;"/>
<line x1="24.000000" y1="76.000000" x2="28.000000" y2="76.000000"  style="stroke:black; stroke-linecap:round; stroke-width:0.25;"/>
<line x1="28.000000" y1="76.000000" x2="28.000000" y2="76.000000"  style="stroke:black; stroke-linecap:round; stroke-width:0.25;"/>
<line x1="28.000000" y1="76.000000" x2="32.000000" y2="76.000000"  style="stroke:black; stroke-linecap:round; stroke-width:0.25;"/>
<line x1="32.000000" y1="76.000000" x2="36.000000" y2="76.000000"  style="stroke:black; stroke-linecap:round; stroke-width:0.25;"/>
<line x1="36.000000" y1="76.000000" x2="66.000000" y2="96.000000"  style="stroke:black; stroke-linecap:round; stroke-width:0.25;"/>
<line x1="36.000000" y1="76.000000" x2="66.000000" y2="24.000000"  style="stroke:black; stroke-linecap:round; stroke-width:0.25;"/>
<line x1="66.000000" y1="96.000000" x2="111.800000" y2="96.000000"  style="stroke:black; stroke-linecap:round; stroke-width:0.25;"/>
<line x1="66.000000" y1="24.000000" x2="115.800000" y2="24.000000"  style="stroke:black; stroke-linecap:round; stroke-width:0.25;"/>
<line x1="111.800000" y1="96.000000" x2="157.600000" y2="96.000000"  style="stroke:black; stroke-linecap:round; stroke-width:0.25;"/>
<line x1="115.800000" y1="24.000000" x2="131.800000" y2="24.000000"  style="stroke:black; stroke-linecap:round; stroke-width:0.25;"/>
<line x1="121.600000" y1="116.000000" x2="125.600000" y2="116.000000"  style="stroke:black; stroke-linecap:round; stroke-width:0.25;"/>
<line x1="125.600000" y1="116.000000" x2="125.600000" y2="116.000000"  style="stroke:black; stroke-linecap:round; stroke-width:0.25;"/>
<line x1="125.600000" y1="116.000000" x2="129.600000" y2="116.000000"  style="stroke:black; stroke-linecap:round; stroke-width:0.25;"/>
<line x1="131.800000" y1="24.000000" x2="147.800000" y2="24.000000"  style="stroke:black; stroke-linecap:round; stroke-width:0.25;"/>
<line x1="143.800000" y1="44.000000" x2="147.800000" y2="44.000000"  style="stroke:black; stroke-linecap:round; stroke-width:0.25;"/>
<line x1="143.800000" y1="76.000000" x2="147.800000" y2="76.000000"  style="stroke:black; stroke-linecap:round; stroke-width:0.25;"/>
<line x1="147.800000" y1="24.000000" x2="155.800000" y2="24.000000"  style="stroke:black; stroke-linecap:round; stroke-width:0.25;"/>
<line x1="147.800000" y1="44.000000" x2="155.800000" y2="44.000000"  style="stroke:black; stroke-linecap:round; stroke-width:0.25;"/>
<line x1="147.800000" y1="76.000000" x2="197.600000" y2="76.000000"  style="stroke:black; stroke-linecap:round; stroke-width:0.25;"/>
<line x1="153.600000" y1="116.000000" x2="157.600000" y2="116.000000"  style="stroke:black; stroke-linecap:round; stroke-width:0.25;"/>
<line x1="155.800000" y1="24.000000" x2="155.800000" y2="36.000000"  style="stroke:black; stroke-linecap:round; stroke-width:0.25;"/>
<line x1="155.800000" y1="36.000000" x2="155.800000" y2="36.000000"  style="stroke:black; stroke-linecap:round; stroke-width:0.25;"/>
<line x1="155.800000" y1="36.000000" x2="159.800000" y2="36.000000"  style="stroke:black; stroke-linecap:round; stroke-width:0.25;"/>
<line x1="155.800000" y1="44.000000" x2="159.800000" y2="44.000000"  style="stroke:black; stroke-linecap:round; stroke-width:0.25;"/>
<line x1="157.600000" y1="96.000000" x2="165.600000" y2="96.000000"  style="stroke:black; stroke-linecap:round; stroke-width:0.25;"/>
<line x1="157.600000" y1="116.000000" x2="165.600000" y2="116.000000"  style="stroke:black; stroke-linecap:round; stroke-width:0.25;"/>
<line x1="165.600000" y1="96.000000" x2="165.600000" y2="108.000000"  style="stroke:black; stroke-linecap:round; stroke-width:0.25;"/>
<line x1="165.600000" y1="108.000000" x2="165.600000" y2="108.000000"  style="stroke:black; stroke-linecap:round; stroke-width:0.25;"/>
<line x1="165.600000" y1="108.000000" x2="169.600000" y2="108.000000"  style="stroke:black; stroke-linecap:round; stroke-width:0.25;"/>
<line x1="165.600000" y1="116.000000" x2="169.600000" y2="116.000000"  style="stroke:black; stroke-linecap:round; stroke-width:0.25;"/>
<line x1="183.800000" y1="40.000000" x2="187.800000" y2="40.000000"  style="stroke:black; stroke-linecap:round; stroke-width:0.25;"/>
<line x1="187.800000" y1="40.000000" x2="237.600000" y2="40.000000"  style="stroke:black; stroke-linecap:round; stroke-width:0.25;"/>
<line x1="193.600000" y1="112.000000" x2="197.600000" y2="112.000000"  style="stroke:black; stroke-linecap:round; stroke-width:0.25;"/>
<line x1="197.600000" y1="100.000000" x2="205.600000" y2="100.000000"  style="stroke:black; stroke-linecap:round; stroke-width:0.25;"/>
<line x1="197.600000" y1="112.000000" x2="197.600000" y2="100.000000"  style="stroke:black; stroke-linecap:round; stroke-width:0.25;"/>
<line x1="197.600000" y1="112.000000" x2="197.600000" y2="112.000000"  style="stroke:black; stroke-linecap:round; stroke-width:0.25;"/>
<line x1="197.600000" y1="76.000000" x2="205.600000" y2="76.000000"  style="stroke:black; stroke-linecap:round; stroke-width:0.25;"/>
<line x1="205.600000" y1="92.000000" x2="209.600000" y2="92.000000"  style="stroke:black; stroke-linecap:round; stroke-width:0.25;"/>
<line x1="205.600000" y1="100.000000" x2="209.600000" y2="100.000000"  style="stroke:black; stroke-linecap:round; stroke-width:0.25;"/>
<line x1="205.600000" y1="76.000000" x2="205.600000" y2="92.000000"  style="stroke:black; stroke-linecap:round; stroke-width:0.25;"/>
<line x1="205.600000" y1="92.000000" x2="205.600000" y2="92.000000"  style="stroke:black; stroke-linecap:round; stroke-width:0.25;"/>
<line x1="233.600000" y1="96.000000" x2="237.600000" y2="96.000000"  style="stroke:black; stroke-linecap:round; stroke-width:0.25;"/>
<line x1="237.600000" y1="80.000000" x2="245.600000" y2="80.000000"  style="stroke:black; stroke-linecap:round; stroke-width:0.25;"/>
<line x1="237.600000" y1="96.000000" x2="237.600000" y2="80.000000"  style="stroke:black; stroke-linecap:round; stroke-width:0.25;"/>
<line x1="237.600000" y1="96.000000" x2="237.600000" y2="96.000000"  style="stroke:black; stroke-linecap:round; stroke-width:0.25;"/>
<line x1="237.600000" y1="40.000000" x2="245.600000" y2="40.000000"  style="stroke:black; stroke-linecap:round; stroke-width:0.25;"/>
<line x1="245.600000" y1="72.000000" x2="249.600000" y2="72.000000"  style="stroke:black; stroke-linecap:round; stroke-width:0.25;"/>
<line x1="245.600000" y1="80.000000" x2="249.600000" y2="80.000000"  style="stroke:black; stroke-linecap:round; stroke-width:0.25;"/>
<line x1="245.600000" y1="40.000000" x2="245.600000" y2="72.000000"  style="stroke:black; stroke-linecap:round; stroke-width:0.25;"/>
<line x1="245.600000" y1="72.000000" x2="245.600000" y2="72.000000"  style="stroke:black; stroke-linecap:round; stroke-width:0.25;"/>
<line x1="273.600000" y1="76.000000" x2="277.600000" y2="76.000000"  style="stroke:black; stroke-linecap:round; stroke-width:0.25;"/>
<line x1="277.600000" y1="76.000000" x2="277.600000" y2="76.000000"  style="stroke:black; stroke-linecap:round; stroke-width:0.25;"/>
<line x1="277.600000" y1="76.000000" x2="281.600000" y2="76.000000"  style="stroke:black; stroke-linecap:round; stroke-width:0.25;"/>
<line x1="281.600000" y1="76.000000" x2="285.600000" y2="76.000000"  style="stroke:black; stroke-linecap:round; stroke-width:0.25;"/>
<line x1="285.600000" y1="76.000000" x2="295.600000" y2="76.000000"  style="stroke:black; stroke-linecap:round; stroke-width:0.25;"/>
</svg>
