<?xml version="1.0"?>
<svg xmlns="http://www.w3.org/2000/svg" xmlns:xlink="http://www.w3.org/1999/xlink" viewBox="0 0 279.800000 152.000000" width="139.900000mm" height="76.000000mm" version="1.1">
<a xlink:href="midside-0x600001072760.svg">
<rect x="0.000000" y="0.000000" width="278.800000" height="151.000000" rx="0" ry="0" style="stroke:#000000;fill:#FFFFFF;"/>
</a>
<text x="10.000000" y="7.000000" font-family="Verdana" font-size="7"></text>
<rect x="106.900000" y="32.000000" width="24.000000" height="24.000000" rx="0" ry="0" style="stroke:#000000;fill:#FFFFFF;"/>
<text x="118.900000" y="46.000000" font-family="Verdana" font-size="7" text-anchor="middle" fill="#000000">0</text>
<circle cx="108.900000" cy="34.000000" r="1"/>
<rect x="146.900000" y="28.000000" width="24.000000" height="24.000000" rx="0" ry="0" style="stroke:#000000;fill:#FFFFFF;"/>
<text x="158.900000" y="42.000000" font-family="Verdana" font-size="7" text-anchor="middle" fill="#000000">*</text>
<circle cx="148.900000" cy="30.000000" r="1"/>
<line x1="143.900000" y1="35.000000" x2="146.900000" y2="36.000000"  transform="rotate(0.000000,146.900000,36.000000)" style="stroke: black; stroke-width:0.25;"/>
<line x1="143.900000" y1="37.000000" x2="146.900000" y2="36.000000"  transform="rotate(0.000000,146.900000,36.000000)" style="stroke: black; stroke-width:0.25;"/>
<line x1="143.900000" y1="43.000000" x2="146.900000" y2="44.000000"  transform="rotate(0.000000,146.900000,44.000000)" style="stroke: black; stroke-width:0.25;"/>
<line x1="143.900000" y1="45.000000" x2="146.900000" y2="44.000000"  transform="rotate(0.000000,146.900000,44.000000)" style="stroke: black; stroke-width:0.25;"/>
<rect x="106.900000" y="64.000000" width="24.000000" height="24.000000" rx="0" ry="0" style="stroke:#000000;fill:#FFFFFF;"/>
<text x="118.900000" y="78.000000" font-family="Verdana" font-size="7" text-anchor="middle" fill="#000000">1</text>
<circle cx="108.900000" cy="66.000000" r="1"/>
<rect x="70.000000" y="104.000000" width="25.800000" height="24.000000" rx="0" ry="0" style="stroke:#000000;fill:#FFFFFF;"/>
<text x="82.900000" y="118.000000" font-family="Verdana" font-size="7" text-anchor="middle" fill="#000000">0.0f</text>
<circle cx="72.000000" cy="106.000000" r="1"/>
<rect x="103.800000" y="104.000000" width="24.000000" height="24.000000" rx="0" ry="0" style="stroke:#000000;fill:#FFFFFF;"/>
<text x="115.800000" y="118.000000" font-family="Verdana" font-size="7" text-anchor="middle" fill="#000000">cos</text>
<circle cx="105.800000" cy="106.000000" r="1"/>
<line x1="100.800000" y1="115.000000" x2="103.800000" y2="116.000000"  transform="rotate(0.000000,103.800000,116.000000)" style="stroke: black; stroke-width:0.25;"/>
<line x1="100.800000" y1="117.000000" x2="103.800000" y2="116.000000"  transform="rotate(0.000000,103.800000,116.000000)" style="stroke: black; stroke-width:0.25;"/>
<rect x="143.800000" y="100.000000" width="24.000000" height="24.000000" rx="0" ry="0" style="stroke:#000000;fill:#FFFFFF;"/>
<text x="155.800000" y="114.000000" font-family="Verdana" font-size="7" text-anchor="middle" fill="#000000">*</text>
<circle cx="145.800000" cy="102.000000" r="1"/>
<line x1="140.800000" y1="107.000000" x2="143.800000" y2="108.000000"  transform="rotate(0.000000,143.800000,108.000000)" style="stroke: black; stroke-width:0.25;"/>
<line x1="140.800000" y1="109.000000" x2="143.800000" y2="108.000000"  transform="rotate(0.000000,143.800000,108.000000)" style="stroke: black; stroke-width:0.25;"/>
<line x1="140.800000" y1="115.000000" x2="143.800000" y2="116.000000"  transform="rotate(0.000000,143.800000,116.000000)" style="stroke: black; stroke-width:0.25;"/>
<line x1="140.800000" y1="117.000000" x2="143.800000" y2="116.000000"  transform="rotate(0.000000,143.800000,116.000000)" style="stroke: black; stroke-width:0.25;"/>
<rect x="183.800000" y="84.000000" width="24.000000" height="24.000000" rx="0" ry="0" style="stroke:#000000;fill:#FFFFFF;"/>
<text x="195.800000" y="98.000000" font-family="Verdana" font-size="7" text-anchor="middle" fill="#000000">*</text>
<circle cx="185.800000" cy="86.000000" r="1"/>
<line x1="180.800000" y1="91.000000" x2="183.800000" y2="92.000000"  transform="rotate(0.000000,183.800000,92.000000)" style="stroke: black; stroke-width:0.25;"/>
<line x1="180.800000" y1="93.000000" x2="183.800000" y2="92.000000"  transform="rotate(0.000000,183.800000,92.000000)" style="stroke: black; stroke-width:0.25;"/>
<line x1="180.800000" y1="99.000000" x2="183.800000" y2="100.000000"  transform="rotate(0.000000,183.800000,100.000000)" style="stroke: black; stroke-width:0.25;"/>
<line x1="180.800000" y1="101.000000" x2="183.800000" y2="100.000000"  transform="rotate(0.000000,183.800000,100.000000)" style="stroke: black; stroke-width:0.25;"/>
<rect x="223.800000" y="64.000000" width="24.000000" height="24.000000" rx="0" ry="0" style="stroke:#000000;fill:#FFFFFF;"/>
<text x="235.800000" y="78.000000" font-family="Verdana" font-size="7" text-anchor="middle" fill="#000000">+</text>
<circle cx="225.800000" cy="66.000000" r="1"/>
<line x1="220.800000" y1="71.000000" x2="223.800000" y2="72.000000"  transform="rotate(0.000000,223.800000,72.000000)" style="stroke: black; stroke-width:0.25;"/>
<line x1="220.800000" y1="73.000000" x2="223.800000" y2="72.000000"  transform="rotate(0.000000,223.800000,72.000000)" style="stroke: black; stroke-width:0.25;"/>
<line x1="220.800000" y1="79.000000" x2="223.800000" y2="80.000000"  transform="rotate(0.000000,223.800000,80.000000)" style="stroke: black; stroke-width:0.25;"/>
<line x1="220.800000" y1="81.000000" x2="223.800000" y2="80.000000"  transform="rotate(0.000000,223.800000,80.000000)" style="stroke: black; stroke-width:0.25;"/>
<line x1="15.000000" y1="15.000000" x2="15.000000" y2="137.000000"  style="stroke: black; stroke-linecap:round; stroke-width:0.25; stroke-dasharray:3,3;"/>
<line x1="15.000000" y1="137.000000" x2="264.800000" y2="137.000000"  style="stroke: black; stroke-linecap:round; stroke-width:0.25; stroke-dasharray:3,3;"/>
<line x1="264.800000" y1="137.000000" x2="264.800000" y2="15.000000"  style="stroke: black; stroke-linecap:round; stroke-width:0.25; stroke-dasharray:3,3;"/>
<line x1="15.000000" y1="15.000000" x2="20.000000" y2="15.000000"  style="stroke: black; stroke-linecap:round; stroke-width:0.25; stroke-dasharray:3,3;"/>
<line x1="58.700000" y1="15.000000" x2="264.800000" y2="15.000000"  style="stroke: black; stroke-linecap:round; stroke-width:0.25; stroke-dasharray:3,3;"/>
<text x="20.000000" y="17.000000" font-family="Verdana" font-size="7">m(1)(0.0f)</text>
<line x1="266.800000" y1="75.000000" x2="269.800000" y2="76.000000"  transform="rotate(0.000000,269.800000,76.000000)" style="stroke: black; stroke-width:0.25;"/>
<line x1="266.800000" y1="77.000000" x2="269.800000" y2="76.000000"  transform="rotate(0.000000,269.800000,76.000000)" style="stroke: black; stroke-width:0.25;"/>
<line x1="10.000000" y1="76.000000" x2="20.000000" y2="76.000000"  style="stroke:black; stroke-linecap:round; stroke-width:0.25;"/>
<line x1="20.000000" y1="76.000000" x2="24.000000" y2="76.000000"  style="stroke:black; stroke-linecap:round; stroke-width:0.25;"/>
<line x1="24.000000" y1="76.000000" x2="28.000000" y2="76.000000"  style="stroke:black; stroke-linecap:round; stroke-width:0.25;"/>
<line x1="28.000000" y1="76.000000" x2="28.000000" y2="76.000000"  style="stroke:black; stroke-linecap:round; stroke-width:0.25;"/>
<line x1="28.000000" y1="76.000000" x2="32.000000" y2="76.000000"  style="stroke:black; stroke-linecap:round; stroke-width:0.25;"/>
<line x1="32.000000" y1="76.000000" x2="36.000000" y2="76.000000"  style="stroke:black; stroke-linecap:round; stroke-width:0.25;"/>
<line x1="36.000000" y1="76.000000" x2="66.000000" y2="24.000000"  style="stroke:black; stroke-linecap:round; stroke-width:0.25;"/>
<line x1="36.000000" y1="76.000000" x2="66.000000" y2="96.000000"  style="stroke:black; stroke-linecap:round; stroke-width:0.25;"/>
<line x1="66.000000" y1="24.000000" x2="102.900000" y2="24.000000"  style="stroke:black; stroke-linecap:round; stroke-width:0.25;"/>
<line x1="66.000000" y1="96.000000" x2="98.900000" y2="96.000000"  style="stroke:black; stroke-linecap:round; stroke-width:0.25;"/>
<line x1="95.800000" y1="116.000000" x2="99.800000" y2="116.000000"  style="stroke:black; stroke-linecap:round; stroke-width:0.25;"/>
<line x1="98.900000" y1="96.000000" x2="131.800000" y2="96.000000"  style="stroke:black; stroke-linecap:round; stroke-width:0.25;"/>
<line x1="99.800000" y1="116.000000" x2="99.800000" y2="116.000000"  style="stroke:black; stroke-linecap:round; stroke-width:0.25;"/>
<line x1="99.800000" y1="116.000000" x2="103.800000" y2="116.000000"  style="stroke:black; stroke-linecap:round; stroke-width:0.25;"/>
<line x1="102.900000" y1="24.000000" x2="118.900000" y2="24.000000"  style="stroke:black; stroke-linecap:round; stroke-width:0.25;"/>
<line x1="118.900000" y1="24.000000" x2="134.900000" y2="24.000000"  style="stroke:black; stroke-linecap:round; stroke-width:0.25;"/>
<line x1="127.800000" y1="116.000000" x2="131.800000" y2="116.000000"  style="stroke:black; stroke-linecap:round; stroke-width:0.25;"/>
<line x1="130.900000" y1="44.000000" x2="134.900000" y2="44.000000"  style="stroke:black; stroke-linecap:round; stroke-width:0.25;"/>
<line x1="130.900000" y1="76.000000" x2="134.900000" y2="76.000000"  style="stroke:black; stroke-linecap:round; stroke-width:0.25;"/>
<line x1="131.800000" y1="96.000000" x2="139.800000" y2="96.000000"  style="stroke:black; stroke-linecap:round; stroke-width:0.25;"/>
<line x1="131.800000" y1="116.000000" x2="139.800000" y2="116.000000"  style="stroke:black; stroke-linecap:round; stroke-width:0.25;"/>
<line x1="134.900000" y1="24.000000" x2="142.900000" y2="24.000000"  style="stroke:black; stroke-linecap:round; stroke-width:0.25;"/>
<line x1="134.900000" y1="44.000000" x2="142.900000" y2="44.000000"  style="stroke:black; stroke-linecap:round; stroke-width:0.25;"/>
<line x1="134.900000" y1="76.000000" x2="171.800000" y2="76.000000"  style="stroke:black; stroke-linecap:round; stroke-width:0.25;"/>
<line x1="139.800000" y1="96.000000" x2="139.800000" y2="108.000000"  style="stroke:black; stroke-linecap:round; stroke-width:0.25;"/>
<line x1="139.800000" y1="108.000000" x2="139.800000" y2="108.000000"  style="stroke:black; stroke-linecap:round; stroke-width:0.25;"/>
<line x1="139.800000" y1="108.000000" x2="143.800000" y2="108.000000"  style="stroke:black; stroke-linecap:round; stroke-width:0.25;"/>
<line x1="139.800000" y1="116.000000" x2="143.800000" y2="116.000000"  style="stroke:black; stroke-linecap:round; stroke-width:0.25;"/>
<line x1="142.900000" y1="24.000000" x2="142.900000" y2="36.000000"  style="stroke:black; stroke-linecap:round; stroke-width:0.25;"/>
<line x1="142.900000" y1="36.000000" x2="142.900000" y2="36.000000"  style="stroke:black; stroke-linecap:round; stroke-width:0.25;"/>
<line x1="142.900000" y1="36.000000" x2="146.900000" y2="36.000000"  style="stroke:black; stroke-linecap:round; stroke-width:0.25;"/>
<line x1="142.900000" y1="44.000000" x2="146.900000" y2="44.000000"  style="stroke:black; stroke-linecap:round; stroke-width:0.25;"/>
<line x1="167.800000" y1="112.000000" x2="171.800000" y2="112.000000"  style="stroke:black; stroke-linecap:round; stroke-width:0.25;"/>
<line x1="170.900000" y1="40.000000" x2="174.900000" y2="40.000000"  style="stroke:black; stroke-linecap:round; stroke-width:0.25;"/>
<line x1="171.800000" y1="76.000000" x2="179.800000" y2="76.000000"  style="stroke:black; stroke-linecap:round; stroke-width:0.25;"/>
<line x1="171.800000" y1="100.000000" x2="179.800000" y2="100.000000"  style="stroke:black; stroke-linecap:round; stroke-width:0.25;"/>
<line x1="171.800000" y1="112.000000" x2="171.800000" y2="100.000000"  style="stroke:black; stroke-linecap:round; stroke-width:0.25;"/>
<line x1="171.800000" y1="112.000000" x2="171.800000" y2="112.000000"  style="stroke:black; stroke-linecap:round; stroke-width:0.25;"/>
<line x1="174.900000" y1="40.000000" x2="211.800000" y2="40.000000"  style="stroke:black; stroke-linecap:round; stroke-width:0.25;"/>
<line x1="179.800000" y1="76.000000" x2="179.800000" y2="92.000000"  style="stroke:black; stroke-linecap:round; stroke-width:0.25;"/>
<line x1="179.800000" y1="92.000000" x2="179.800000" y2="92.000000"  style="stroke:black; stroke-linecap:round; stroke-width:0.25;"/>
<line x1="179.800000" y1="92.000000" x2="183.800000" y2="92.000000"  style="stroke:black; stroke-linecap:round; stroke-width:0.25;"/>
<line x1="179.800000" y1="100.000000" x2="183.800000" y2="100.000000"  style="stroke:black; stroke-linecap:round; stroke-width:0.25;"/>
<line x1="207.800000" y1="96.000000" x2="211.800000" y2="96.000000"  style="stroke:black; stroke-linecap:round; stroke-width:0.25;"/>
<line x1="211.800000" y1="40.000000" x2="219.800000" y2="40.000000"  style="stroke:black; stroke-linecap:round; stroke-width:0.25;"/>
<line x1="211.800000" y1="80.000000" x2="219.800000" y2="80.000000"  style="stroke:black; stroke-linecap:round; stroke-width:0.25;"/>
<line x1="211.800000" y1="96.000000" x2="211.800000" y2="80.000000"  style="stroke:black; stroke-linecap:round; stroke-width:0.25;"/>
<line x1="211.800000" y1="96.000000" x2="211.800000" y2="96.000000"  style="stroke:black; stroke-linecap:round; stroke-width:0.25;"/>
<line x1="219.800000" y1="40.000000" x2="219.800000" y2="72.000000"  style="stroke:black; stroke-linecap:round; stroke-width:0.25;"/>
<line x1="219.800000" y1="72.000000" x2="219.800000" y2="72.000000"  style="stroke:black; stroke-linecap:round; stroke-width:0.25;"/>
<line x1="219.800000" y1="72.000000" x2="223.800000" y2="72.000000"  style="stroke:black; stroke-linecap:round; stroke-width:0.25;"/>
<line x1="219.800000" y1="80.000000" x2="223.800000" y2="80.000000"  style="stroke:black; stroke-linecap:round; stroke-width:0.25;"/>
<line x1="247.800000" y1="76.000000" x2="251.800000" y2="76.000000"  style="stroke:black; stroke-linecap:round; stroke-width:0.25;"/>
<line x1="251.800000" y1="76.000000" x2="251.800000" y2="76.000000"  style="stroke:black; stroke-linecap:round; stroke-width:0.25;"/>
<line x1="251.800000" y1="76.000000" x2="255.800000" y2="76.000000"  style="stroke:black; stroke-linecap:round; stroke-width:0.25;"/>
<line x1="255.800000" y1="76.000000" x2="259.800000" y2="76.000000"  style="stroke:black; stroke-linecap:round; stroke-width:0.25;"/>
<line x1="259.800000" y1="76.000000" x2="269.800000" y2="76.000000"  style="stroke:black; stroke-linecap:round; stroke-width:0.25;"/>
</svg>
