<?xml version="1.0"?>
<svg xmlns="http://www.w3.org/2000/svg" xmlns:xlink="http://www.w3.org/1999/xlink" viewBox="0 0 330.600000 172.000000" width="165.300000mm" height="86.000000mm" version="1.1">
<a xlink:href="midside-0x600001044120.svg">
<rect x="0.000000" y="0.000000" width="329.600000" height="171.000000" rx="0" ry="0" style="stroke:#000000;fill:#FFFFFF;"/>
</a>
<text x="10.000000" y="7.000000" font-family="Verdana" font-size="7"></text>
<rect x="134.800000" y="32.000000" width="24.000000" height="24.000000" rx="0" ry="0" style="stroke:#000000;fill:#FFFFFF;"/>
<text x="146.800000" y="46.000000" font-family="Verdana" font-size="7" text-anchor="middle" fill="#000000">0</text>
<circle cx="136.800000" cy="34.000000" r="1"/>
<rect x="174.800000" y="28.000000" width="24.000000" height="24.000000" rx="0" ry="0" style="stroke:#000000;fill:#FFFFFF;"/>
<text x="186.800000" y="42.000000" font-family="Verdana" font-size="7" text-anchor="middle" fill="#000000">*</text>
<circle cx="176.800000" cy="30.000000" r="1"/>
<line x1="171.800000" y1="35.000000" x2="174.800000" y2="36.000000"  transform="rotate(0.000000,174.800000,36.000000)" style="stroke: black; stroke-width:0.25;"/>
<line x1="171.800000" y1="37.000000" x2="174.800000" y2="36.000000"  transform="rotate(0.000000,174.800000,36.000000)" style="stroke: black; stroke-width:0.25;"/>
<line x1="171.800000" y1="43.000000" x2="174.800000" y2="44.000000"  transform="rotate(0.000000,174.800000,44.000000)" style="stroke: black; stroke-width:0.25;"/>
<line x1="171.800000" y1="45.000000" x2="174.800000" y2="44.000000"  transform="rotate(0.000000,174.800000,44.000000)" style="stroke: black; stroke-width:0.25;"/>
<rect x="134.800000" y="64.000000" width="24.000000" height="24.000000" rx="0" ry="0" style="stroke:#000000;fill:#FFFFFF;"/>
<text x="146.800000" y="78.000000" font-family="Verdana" font-size="7" text-anchor="middle" fill="#000000">1</text>
<circle cx="136.800000" cy="66.000000" r="1"/>
<rect x="85.000000" y="114.000000" width="51.600000" height="24.000000" rx="0" ry="0" style="stroke:#000000;fill:#FFFFFF;"/>
<text x="110.800000" y="128.000000" font-family="Verdana" font-size="7" text-anchor="middle" fill="#000000">3.1415927f</text>
<circle cx="87.000000" cy="116.000000" r="1"/>
<line x1="76.000000" y1="105.000000" x2="76.000000" y2="147.000000"  style="stroke: black; stroke-linecap:round; stroke-width:0.25; stroke-dasharray:3,3;"/>
<line x1="76.000000" y1="147.000000" x2="145.600000" y2="147.000000"  style="stroke: black; stroke-linecap:round; stroke-width:0.25; stroke-dasharray:3,3;"/>
<line x1="145.600000" y1="147.000000" x2="145.600000" y2="105.000000"  style="stroke: black; stroke-linecap:round; stroke-width:0.25; stroke-dasharray:3,3;"/>
<line x1="76.000000" y1="105.000000" x2="81.000000" y2="105.000000"  style="stroke: black; stroke-linecap:round; stroke-width:0.25; stroke-dasharray:3,3;"/>
<line x1="93.900000" y1="105.000000" x2="145.600000" y2="105.000000"  style="stroke: black; stroke-linecap:round; stroke-width:0.25; stroke-dasharray:3,3;"/>
<text x="81.000000" y="107.000000" font-family="Verdana" font-size="7">PI</text>
<rect x="154.600000" y="114.000000" width="24.000000" height="24.000000" rx="0" ry="0" style="stroke:#000000;fill:#FFFFFF;"/>
<text x="166.600000" y="128.000000" font-family="Verdana" font-size="7" text-anchor="middle" fill="#000000">cos</text>
<circle cx="156.600000" cy="116.000000" r="1"/>
<line x1="151.600000" y1="125.000000" x2="154.600000" y2="126.000000"  transform="rotate(0.000000,154.600000,126.000000)" style="stroke: black; stroke-width:0.25;"/>
<line x1="151.600000" y1="127.000000" x2="154.600000" y2="126.000000"  transform="rotate(0.000000,154.600000,126.000000)" style="stroke: black; stroke-width:0.25;"/>
<rect x="194.600000" y="110.000000" width="24.000000" height="24.000000" rx="0" ry="0" style="stroke:#000000;fill:#FFFFFF;"/>
<text x="206.600000" y="124.000000" font-family="Verdana" font-size="7" text-anchor="middle" fill="#000000">*</text>
<circle cx="196.600000" cy="112.000000" r="1"/>
<line x1="191.600000" y1="117.000000" x2="194.600000" y2="118.000000"  transform="rotate(0.000000,194.600000,118.000000)" style="stroke: black; stroke-width:0.25;"/>
<line x1="191.600000" y1="119.000000" x2="194.600000" y2="118.000000"  transform="rotate(0.000000,194.600000,118.000000)" style="stroke: black; stroke-width:0.25;"/>
<line x1="191.600000" y1="125.000000" x2="194.600000" y2="126.000000"  transform="rotate(0.000000,194.600000,126.000000)" style="stroke: black; stroke-width:0.25;"/>
<line x1="191.600000" y1="127.000000" x2="194.600000" y2="126.000000"  transform="rotate(0.000000,194.600000,126.000000)" style="stroke: black; stroke-width:0.25;"/>
<rect x="234.600000" y="94.000000" width="24.000000" height="24.000000" rx="0" ry="0" style="stroke:#000000;fill:#FFFFFF;"/>
<text x="246.600000" y="108.000000" font-family="Verdana" font-size="7" text-anchor="middle" fill="#000000">*</text>
<circle cx="236.600000" cy="96.000000" r="1"/>
<line x1="231.600000" y1="101.000000" x2="234.600000" y2="102.000000"  transform="rotate(0.000000,234.600000,102.000000)" style="stroke: black; stroke-width:0.25;"/>
<line x1="231.600000" y1="103.000000" x2="234.600000" y2="102.000000"  transform="rotate(0.000000,234.600000,102.000000)" style="stroke: black; stroke-width:0.25;"/>
<line x1="231.600000" y1="109.000000" x2="234.600000" y2="110.000000"  transform="rotate(0.000000,234.600000,110.000000)" style="stroke: black; stroke-width:0.25;"/>
<line x1="231.600000" y1="111.000000" x2="234.600000" y2="110.000000"  transform="rotate(0.000000,234.600000,110.000000)" style="stroke: black; stroke-width:0.25;"/>
<rect x="274.600000" y="74.000000" width="24.000000" height="24.000000" rx="0" ry="0" style="stroke:#000000;fill:#FFFFFF;"/>
<text x="286.600000" y="88.000000" font-family="Verdana" font-size="7" text-anchor="middle" fill="#000000">+</text>
<circle cx="276.600000" cy="76.000000" r="1"/>
<line x1="271.600000" y1="81.000000" x2="274.600000" y2="82.000000"  transform="rotate(0.000000,274.600000,82.000000)" style="stroke: black; stroke-width:0.25;"/>
<line x1="271.600000" y1="83.000000" x2="274.600000" y2="82.000000"  transform="rotate(0.000000,274.600000,82.000000)" style="stroke: black; stroke-width:0.25;"/>
<line x1="271.600000" y1="89.000000" x2="274.600000" y2="90.000000"  transform="rotate(0.000000,274.600000,90.000000)" style="stroke: black; stroke-width:0.25;"/>
<line x1="271.600000" y1="91.000000" x2="274.600000" y2="90.000000"  transform="rotate(0.000000,274.600000,90.000000)" style="stroke: black; stroke-width:0.25;"/>
<line x1="15.000000" y1="15.000000" x2="15.000000" y2="157.000000"  style="stroke: black; stroke-linecap:round; stroke-width:0.25; stroke-dasharray:3,3;"/>
<line x1="15.000000" y1="157.000000" x2="315.600000" y2="157.000000"  style="stroke: black; stroke-linecap:round; stroke-width:0.25; stroke-dasharray:3,3;"/>
<line x1="315.600000" y1="157.000000" x2="315.600000" y2="15.000000"  style="stroke: black; stroke-linecap:round; stroke-width:0.25; stroke-dasharray:3,3;"/>
<line x1="15.000000" y1="15.000000" x2="20.000000" y2="15.000000"  style="stroke: black; stroke-linecap:round; stroke-width:0.25; stroke-dasharray:3,3;"/>
<line x1="78.050000" y1="15.000000" x2="315.600000" y2="15.000000"  style="stroke: black; stroke-linecap:round; stroke-width:0.25; stroke-dasharray:3,3;"/>
<text x="20.000000" y="17.000000" font-family="Verdana" font-size="7">m(1)(3.1415927f)</text>
<line x1="317.600000" y1="85.000000" x2="320.600000" y2="86.000000"  transform="rotate(0.000000,320.600000,86.000000)" style="stroke: black; stroke-width:0.25;"/>
<line x1="317.600000" y1="87.000000" x2="320.600000" y2="86.000000"  transform="rotate(0.000000,320.600000,86.000000)" style="stroke: black; stroke-width:0.25;"/>
<line x1="10.000000" y1="86.000000" x2="20.000000" y2="86.000000"  style="stroke:black; stroke-linecap:round; stroke-width:0.25;"/>
<line x1="20.000000" y1="86.000000" x2="24.000000" y2="86.000000"  style="stroke:black; stroke-linecap:round; stroke-width:0.25;"/>
<line x1="24.000000" y1="86.000000" x2="28.000000" y2="86.000000"  style="stroke:black; stroke-linecap:round; stroke-width:0.25;"/>
<line x1="28.000000" y1="86.000000" x2="28.000000" y2="86.000000"  style="stroke:black; stroke-linecap:round; stroke-width:0.25;"/>
<line x1="28.000000" y1="86.000000" x2="32.000000" y2="86.000000"  style="stroke:black; stroke-linecap:round; stroke-width:0.25;"/>
<line x1="32.000000" y1="86.000000" x2="36.000000" y2="86.000000"  style="stroke:black; stroke-linecap:round; stroke-width:0.25;"/>
<line x1="36.000000" y1="86.000000" x2="71.000000" y2="96.000000"  style="stroke:black; stroke-linecap:round; stroke-width:0.25;"/>
<line x1="36.000000" y1="86.000000" x2="71.000000" y2="24.000000"  style="stroke:black; stroke-linecap:round; stroke-width:0.25;"/>
<line x1="71.000000" y1="96.000000" x2="126.800000" y2="96.000000"  style="stroke:black; stroke-linecap:round; stroke-width:0.25;"/>
<line x1="71.000000" y1="24.000000" x2="130.800000" y2="24.000000"  style="stroke:black; stroke-linecap:round; stroke-width:0.25;"/>
<line x1="126.800000" y1="96.000000" x2="182.600000" y2="96.000000"  style="stroke:black; stroke-linecap:round; stroke-width:0.25;"/>
<line x1="130.800000" y1="24.000000" x2="146.800000" y2="24.000000"  style="stroke:black; stroke-linecap:round; stroke-width:0.25;"/>
<line x1="136.600000" y1="126.000000" x2="140.600000" y2="126.000000"  style="stroke:black; stroke-linecap:round; stroke-width:0.25;"/>
<line x1="140.600000" y1="126.000000" x2="150.600000" y2="126.000000"  style="stroke:black; stroke-linecap:round; stroke-width:0.25;"/>
<line x1="146.800000" y1="24.000000" x2="162.800000" y2="24.000000"  style="stroke:black; stroke-linecap:round; stroke-width:0.25;"/>
<line x1="150.600000" y1="126.000000" x2="150.600000" y2="126.000000"  style="stroke:black; stroke-linecap:round; stroke-width:0.25;"/>
<line x1="150.600000" y1="126.000000" x2="154.600000" y2="126.000000"  style="stroke:black; stroke-linecap:round; stroke-width:0.25;"/>
<line x1="158.800000" y1="44.000000" x2="162.800000" y2="44.000000"  style="stroke:black; stroke-linecap:round; stroke-width:0.25;"/>
<line x1="158.800000" y1="76.000000" x2="162.800000" y2="76.000000"  style="stroke:black; stroke-linecap:round; stroke-width:0.25;"/>
<line x1="162.800000" y1="24.000000" x2="170.800000" y2="24.000000"  style="stroke:black; stroke-linecap:round; stroke-width:0.25;"/>
<line x1="162.800000" y1="44.000000" x2="170.800000" y2="44.000000"  style="stroke:black; stroke-linecap:round; stroke-width:0.25;"/>
<line x1="162.800000" y1="76.000000" x2="222.600000" y2="76.000000"  style="stroke:black; stroke-linecap:round; stroke-width:0.25;"/>
<line x1="170.800000" y1="24.000000" x2="170.800000" y2="36.000000"  style="stroke:black; stroke-linecap:round; stroke-width:0.25;"/>
<line x1="170.800000" y1="36.000000" x2="170.800000" y2="36.000000"  style="stroke:black; stroke-linecap:round; stroke-width:0.25;"/>
<line x1="170.800000" y1="36.000000" x2="174.800000" y2="36.000000"  style="stroke:black; stroke-linecap:round; stroke-width:0.25;"/>
<line x1="170.800000" y1="44.000000" x2="174.800000" y2="44.000000"  style="stroke:black; stroke-linecap:round; stroke-width:0.25;"/>
<line x1="178.600000" y1="126.000000" x2="182.600000" y2="126.000000"  style="stroke:black; stroke-linecap:round; stroke-width:0.25;"/>
<line x1="182.600000" y1="96.000000" x2="190.600000" y2="96.000000"  style="stroke:black; stroke-linecap:round; stroke-width:0.25;"/>
<line x1="182.600000" y1="126.000000" x2="190.600000" y2="126.000000"  style="stroke:black; stroke-linecap:round; stroke-width:0.25;"/>
<line x1="190.600000" y1="96.000000" x2="190.600000" y2="118.000000"  style="stroke:black; stroke-linecap:round; stroke-width:0.25;"/>
<line x1="190.600000" y1="118.000000" x2="190.600000" y2="118.000000"  style="stroke:black; stroke-linecap:round; stroke-width:0.25;"/>
<line x1="190.600000" y1="118.000000" x2="194.600000" y2="118.000000"  style="stroke:black; stroke-linecap:round; stroke-width:0.25;"/>
<line x1="190.600000" y1="126.000000" x2="194.600000" y2="126.000000"  style="stroke:black; stroke-linecap:round; stroke-width:0.25;"/>
<line x1="198.800000" y1="40.000000" x2="202.800000" y2="40.000000"  style="stroke:black; stroke-linecap:round; stroke-width:0.25;"/>
<line x1="202.800000" y1="40.000000" x2="262.600000" y2="40.000000"  style="stroke:black; stroke-linecap:round; stroke-width:0.25;"/>
<line x1="218.600000" y1="122.000000" x2="222.600000" y2="122.000000"  style="stroke:black; stroke-linecap:round; stroke-width:0.25;"/>
<line x1="222.600000" y1="110.000000" x2="230.600000" y2="110.000000"  style="stroke:black; stroke-linecap:round; stroke-width:0.25;"/>
<line x1="222.600000" y1="122.000000" x2="222.600000" y2="110.000000"  style="stroke:black; stroke-linecap:round; stroke-width:0.25;"/>
<line x1="222.600000" y1="122.000000" x2="222.600000" y2="122.000000"  style="stroke:black; stroke-linecap:round; stroke-width:0.25;"/>
<line x1="222.600000" y1="76.000000" x2="230.600000" y2="76.000000"  style="stroke:black; stroke-linecap:round; stroke-width:0.25;"/>
<line x1="230.600000" y1="102.000000" x2="234.600000" y2="102.000000"  style="stroke:black; stroke-linecap:round; stroke-width:0.25;"/>
<line x1="230.600000" y1="110.000000" x2="234.600000" y2="110.000000"  style="stroke:black; stroke-linecap:round; stroke-width:0.25;"/>
<line x1="230.600000" y1="76.000000" x2="230.600000" y2="102.000000"  style="stroke:black; stroke-linecap:round; stroke-width:0.25;"/>
<line x1="230.600000" y1="102.000000" x2="230.600000" y2="102.000000"  style="stroke:black; stroke-linecap:round; stroke-width:0.25;"/>
<line x1="258.600000" y1="106.000000" x2="262.600000" y2="106.000000"  style="stroke:black; stroke-linecap:round; stroke-width:0.25;"/>
<line x1="262.600000" y1="40.000000" x2="270.600000" y2="40.000000"  style="stroke:black; stroke-linecap:round; stroke-width:0.25;"/>
<line x1="262.600000" y1="90.000000" x2="270.600000" y2="90.000000"  style="stroke:black; stroke-linecap:round; stroke-width:0.25;"/>
<line x1="262.600000" y1="106.000000" x2="262.600000" y2="90.000000"  style="stroke:black; stroke-linecap:round; stroke-width:0.25;"/>
<line x1="262.600000" y1="106.000000" x2="262.600000" y2="106.000000"  style="stroke:black; stroke-linecap:round; stroke-width:0.25;"/>
<line x1="270.600000" y1="40.000000" x2="270.600000" y2="82.000000"  style="stroke:black; stroke-linecap:round; stroke-width:0.25;"/>
<line x1="270.600000" y1="82.000000" x2="270.600000" y2="82.000000"  style="stroke:black; stroke-linecap:round; stroke-width:0.25;"/>
<line x1="270.600000" y1="82.000000" x2="274.600000" y2="82.000000"  style="stroke:black; stroke-linecap:round; stroke-width:0.25;"/>
<line x1="270.600000" y1="90.000000" x2="274.600000" y2="90.000000"  style="stroke:black; stroke-linecap:round; stroke-width:0.25;"/>
<line x1="298.600000" y1="86.000000" x2="302.600000" y2="86.000000"  style="stroke:black; stroke-linecap:round; stroke-width:0.25;"/>
<line x1="302.600000" y1="86.000000" x2="302.600000" y2="86.000000"  style="stroke:black; stroke-linecap:round; stroke-width:0.25;"/>
<line x1="302.600000" y1="86.000000" x2="306.600000" y2="86.000000"  style="stroke:black; stroke-linecap:round; stroke-width:0.25;"/>
<line x1="306.600000" y1="86.000000" x2="310.600000" y2="86.000000"  style="stroke:black; stroke-linecap:round; stroke-width:0.25;"/>
<line x1="310.600000" y1="86.000000" x2="320.600000" y2="86.000000"  style="stroke:black; stroke-linecap:round; stroke-width:0.25;"/>
</svg>
