<?xml version="1.0"?>
<svg xmlns="http://www.w3.org/2000/svg" xmlns:xlink="http://www.w3.org/1999/xlink" viewBox="0 0 215.200000 104.000000" width="107.600000mm" height="52.000000mm" version="1.1">
<a xlink:href="process.svg">
<rect x="0.000000" y="0.000000" width="214.200000" height="103.000000" rx="0" ry="0" style="stroke:#000000;fill:#FFFFFF;"/>
</a>
<text x="10.000000" y="7.000000" font-family="Verdana" font-size="7"></text>
<rect x="32.000000" y="40.000000" width="25.800000" height="24.000000" rx="0" ry="0" style="stroke:#000000;fill:#FFFFFF;"/>
<text x="44.900000" y="54.000000" font-family="Verdana" font-size="7" text-anchor="middle" fill="#000000">[19] x</text>
<circle cx="34.000000" cy="42.000000" r="1"/>
<line x1="29.000000" y1="51.000000" x2="32.000000" y2="52.000000"  transform="rotate(0.000000,32.000000,52.000000)" style="stroke: black; stroke-width:0.25;"/>
<line x1="29.000000" y1="53.000000" x2="32.000000" y2="52.000000"  transform="rotate(0.000000,32.000000,52.000000)" style="stroke: black; stroke-width:0.25;"/>
<rect x="65.800000" y="40.000000" width="25.800000" height="24.000000" rx="0" ry="0" style="stroke:#000000;fill:#FFFFFF;"/>
<text x="78.700000" y="54.000000" font-family="Verdana" font-size="7" text-anchor="middle" fill="#000000">[19] x</text>
<circle cx="67.800000" cy="42.000000" r="1"/>
<a xlink:href="m-0x600001071950.svg">
<rect x="123.600000" y="24.000000" width="51.600000" height="24.000000" rx="0" ry="0" style="stroke:#000000;fill:#FFFFFF;"/>
</a>
<a xlink:href="m-0x600001071950.svg">
<text x="149.400000" y="38.000000" font-family="Verdana" font-size="7" text-anchor="middle" fill="#000000">m(1)(0.0f)</text>
</a>
<circle cx="125.600000" cy="26.000000" r="1"/>
<line x1="120.600000" y1="35.000000" x2="123.600000" y2="36.000000"  transform="rotate(0.000000,123.600000,36.000000)" style="stroke: black; stroke-width:0.25;"/>
<line x1="120.600000" y1="37.000000" x2="123.600000" y2="36.000000"  transform="rotate(0.000000,123.600000,36.000000)" style="stroke: black; stroke-width:0.25;"/>
<a xlink:href="s-0x600001072520.svg">
<rect x="130.050000" y="56.000000" width="38.700000" height="24.000000" rx="0" ry="0" style="stroke:#000000;fill:#FFFFFF;"/>
</a>
<a xlink:href="s-0x600001072520.svg">
<text x="149.400000" y="70.000000" font-family="Verdana" font-size="7" text-anchor="middle" fill="#000000">s(0.0f)</text>
</a>
<circle cx="132.050000" cy="58.000000" r="1"/>
<line x1="127.050000" y1="67.000000" x2="130.050000" y2="68.000000"  transform="rotate(0.000000,130.050000,68.000000)" style="stroke: black; stroke-width:0.25;"/>
<line x1="127.050000" y1="69.000000" x2="130.050000" y2="68.000000"  transform="rotate(0.000000,130.050000,68.000000)" style="stroke: black; stroke-width:0.25;"/>
<line x1="15.000000" y1="15.000000" x2="15.000000" y2="89.000000"  style="stroke: black; stroke-linecap:round; stroke-width:0.25; stroke-dasharray:3,3;"/>
<line x1="15.000000" y1="89.000000" x2="200.200000" y2="89.000000"  style="stroke: black; stroke-linecap:round; stroke-width:0.25; stroke-dasharray:3,3;"/>
<line x1="200.200000" y1="89.000000" x2="200.200000" y2="15.000000"  style="stroke: black; stroke-linecap:round; stroke-width:0.25; stroke-dasharray:3,3;"/>
<line x1="15.000000" y1="15.000000" x2="20.000000" y2="15.000000"  style="stroke: black; stroke-linecap:round; stroke-width:0.25; stroke-dasharray:3,3;"/>
<line x1="78.050000" y1="15.000000" x2="200.200000" y2="15.000000"  style="stroke: black; stroke-linecap:round; stroke-width:0.25; stroke-dasharray:3,3;"/>
<text x="20.000000" y="17.000000" font-family="Verdana" font-size="7">midside(1)(0.0f)</text>
<line x1="202.200000" y1="47.000000" x2="205.200000" y2="48.000000"  transform="rotate(0.000000,205.200000,48.000000)" style="stroke: black; stroke-width:0.25;"/>
<line x1="202.200000" y1="49.000000" x2="205.200000" y2="48.000000"  transform="rotate(0.000000,205.200000,48.000000)" style="stroke: black; stroke-width:0.25;"/>
<line x1="202.200000" y1="55.000000" x2="205.200000" y2="56.000000"  transform="rotate(0.000000,205.200000,56.000000)" style="stroke: black; stroke-width:0.25;"/>
<line x1="202.200000" y1="57.000000" x2="205.200000" y2="56.000000"  transform="rotate(0.000000,205.200000,56.000000)" style="stroke: black; stroke-width:0.25;"/>
<line x1="10.000000" y1="52.000000" x2="20.000000" y2="52.000000"  style="stroke:black; stroke-linecap:round; stroke-width:0.25;"/>
<line x1="20.000000" y1="52.000000" x2="24.000000" y2="52.000000"  style="stroke:black; stroke-linecap:round; stroke-width:0.25;"/>
<line x1="24.000000" y1="52.000000" x2="28.000000" y2="52.000000"  style="stroke:black; stroke-linecap:round; stroke-width:0.25;"/>
<line x1="28.000000" y1="52.000000" x2="28.000000" y2="52.000000"  style="stroke:black; stroke-linecap:round; stroke-width:0.25;"/>
<line x1="28.000000" y1="52.000000" x2="32.000000" y2="52.000000"  style="stroke:black; stroke-linecap:round; stroke-width:0.25;"/>
<line x1="91.600000" y1="52.000000" x2="95.600000" y2="52.000000"  style="stroke:black; stroke-linecap:round; stroke-width:0.25;"/>
<line x1="95.600000" y1="52.000000" x2="119.600000" y2="36.000000"  style="stroke:black; stroke-linecap:round; stroke-width:0.25;"/>
<line x1="95.600000" y1="52.000000" x2="119.600000" y2="68.000000"  style="stroke:black; stroke-linecap:round; stroke-width:0.25;"/>
<line x1="119.600000" y1="36.000000" x2="123.600000" y2="36.000000"  style="stroke:black; stroke-linecap:round; stroke-width:0.25;"/>
<line x1="119.600000" y1="68.000000" x2="126.050000" y2="68.000000"  style="stroke:black; stroke-linecap:round; stroke-width:0.25;"/>
<line x1="126.050000" y1="68.000000" x2="130.050000" y2="68.000000"  style="stroke:black; stroke-linecap:round; stroke-width:0.25;"/>
<line x1="168.750000" y1="68.000000" x2="172.750000" y2="68.000000"  style="stroke:black; stroke-linecap:round; stroke-width:0.25;"/>
<line x1="172.750000" y1="68.000000" x2="179.200000" y2="68.000000"  style="stroke:black; stroke-linecap:round; stroke-width:0.25;"/>
<line x1="175.200000" y1="36.000000" x2="179.200000" y2="36.000000"  style="stroke:black; stroke-linecap:round; stroke-width:0.25;"/>
<line x1="179.200000" y1="36.000000" x2="187.200000" y2="36.000000"  style="stroke:black; stroke-linecap:round; stroke-width:0.25;"/>
<line x1="179.200000" y1="56.000000" x2="187.200000" y2="56.000000"  style="stroke:black; stroke-linecap:round; stroke-width:0.25;"/>
<line x1="179.200000" y1="68.000000" x2="179.200000" y2="56.000000"  style="stroke:black; stroke-linecap:round; stroke-width:0.25;"/>
<line x1="179.200000" y1="68.000000" x2="179.200000" y2="68.000000"  style="stroke:black; stroke-linecap:round; stroke-width:0.25;"/>
<line x1="187.200000" y1="36.000000" x2="187.200000" y2="48.000000"  style="stroke:black; stroke-linecap:round; stroke-width:0.25;"/>
<line x1="187.200000" y1="48.000000" x2="187.200000" y2="48.000000"  style="stroke:black; stroke-linecap:round; stroke-width:0.25;"/>
<line x1="187.200000" y1="48.000000" x2="191.200000" y2="48.000000"  style="stroke:black; stroke-linecap:round; stroke-width:0.25;"/>
<line x1="187.200000" y1="56.000000" x2="191.200000" y2="56.000000"  style="stroke:black; stroke-linecap:round; stroke-width:0.25;"/>
<line x1="191.200000" y1="48.000000" x2="195.200000" y2="48.000000"  style="stroke:black; stroke-linecap:round; stroke-width:0.25;"/>
<line x1="191.200000" y1="56.000000" x2="195.200000" y2="56.000000"  style="stroke:black; stroke-linecap:round; stroke-width:0.25;"/>
<line x1="195.200000" y1="48.000000" x2="205.200000" y2="48.000000"  style="stroke:black; stroke-linecap:round; stroke-width:0.25;"/>
<line x1="195.200000" y1="56.000000" x2="205.200000" y2="56.000000"  style="stroke:black; stroke-linecap:round; stroke-width:0.25;"/>
</svg>
