<?xml version="1.0"?>
<svg xmlns="http://www.w3.org/2000/svg" xmlns:xlink="http://www.w3.org/1999/xlink" viewBox="0 0 195.600000 80.000000" width="97.800000mm" height="40.000000mm" version="1.1">
<a xlink:href="midside-0x600001047450.svg">
<rect x="0.000000" y="0.000000" width="194.600000" height="79.000000" rx="0" ry="0" style="stroke:#000000;fill:#FFFFFF;"/>
</a>
<text x="10.000000" y="7.000000" font-family="Verdana" font-size="7"></text>
<rect x="40.000000" y="32.000000" width="51.600000" height="24.000000" rx="0" ry="0" style="stroke:#000000;fill:#FFFFFF;"/>
<text x="65.800000" y="46.000000" font-family="Verdana" font-size="7" text-anchor="middle" fill="#000000">4.1887903f</text>
<circle cx="42.000000" cy="34.000000" r="1"/>
<rect x="99.600000" y="32.000000" width="24.000000" height="24.000000" rx="0" ry="0" style="stroke:#000000;fill:#FFFFFF;"/>
<text x="111.600000" y="46.000000" font-family="Verdana" font-size="7" text-anchor="middle" fill="#000000">sin</text>
<circle cx="101.600000" cy="34.000000" r="1"/>
<line x1="96.600000" y1="43.000000" x2="99.600000" y2="44.000000"  transform="rotate(0.000000,99.600000,44.000000)" style="stroke: black; stroke-width:0.25;"/>
<line x1="96.600000" y1="45.000000" x2="99.600000" y2="44.000000"  transform="rotate(0.000000,99.600000,44.000000)" style="stroke: black; stroke-width:0.25;"/>
<rect x="139.600000" y="28.000000" width="24.000000" height="24.000000" rx="0" ry="0" style="stroke:#000000;fill:#FFFFFF;"/>
<text x="151.600000" y="42.000000" font-family="Verdana" font-size="7" text-anchor="middle" fill="#000000">*</text>
<circle cx="141.600000" cy="30.000000" r="1"/>
<line x1="136.600000" y1="35.000000" x2="139.600000" y2="36.000000"  transform="rotate(0.000000,139.600000,36.000000)" style="stroke: black; stroke-width:0.25;"/>
<line x1="136.600000" y1="37.000000" x2="139.600000" y2="36.000000"  transform="rotate(0.000000,139.600000,36.000000)" style="stroke: black; stroke-width:0.25;"/>
<line x1="136.600000" y1="43.000000" x2="139.600000" y2="44.000000"  transform="rotate(0.000000,139.600000,44.000000)" style="stroke: black; stroke-width:0.25;"/>
<line x1="136.600000" y1="45.000000" x2="139.600000" y2="44.000000"  transform="rotate(0.000000,139.600000,44.000000)" style="stroke: black; stroke-width:0.25;"/>
<line x1="15.000000" y1="15.000000" x2="15.000000" y2="65.000000"  style="stroke: black; stroke-linecap:round; stroke-width:0.25; stroke-dasharray:3,3;"/>
<line x1="15.000000" y1="65.000000" x2="180.600000" y2="65.000000"  style="stroke: black; stroke-linecap:round; stroke-width:0.25; stroke-dasharray:3,3;"/>
<line x1="180.600000" y1="65.000000" x2="180.600000" y2="15.000000"  style="stroke: black; stroke-linecap:round; stroke-width:0.25; stroke-dasharray:3,3;"/>
<line x1="15.000000" y1="15.000000" x2="20.000000" y2="15.000000"  style="stroke: black; stroke-linecap:round; stroke-width:0.25; stroke-dasharray:3,3;"/>
<line x1="68.375000" y1="15.000000" x2="180.600000" y2="15.000000"  style="stroke: black; stroke-linecap:round; stroke-width:0.25; stroke-dasharray:3,3;"/>
<text x="20.000000" y="17.000000" font-family="Verdana" font-size="7">s(4.1887903f)</text>
<line x1="182.600000" y1="39.000000" x2="185.600000" y2="40.000000"  transform="rotate(0.000000,185.600000,40.000000)" style="stroke: black; stroke-width:0.25;"/>
<line x1="182.600000" y1="41.000000" x2="185.600000" y2="40.000000"  transform="rotate(0.000000,185.600000,40.000000)" style="stroke: black; stroke-width:0.25;"/>
<line x1="10.000000" y1="40.000000" x2="20.000000" y2="40.000000"  style="stroke:black; stroke-linecap:round; stroke-width:0.25;"/>
<line x1="20.000000" y1="40.000000" x2="24.000000" y2="40.000000"  style="stroke:black; stroke-linecap:round; stroke-width:0.25;"/>
<line x1="24.000000" y1="40.000000" x2="28.000000" y2="40.000000"  style="stroke:black; stroke-linecap:round; stroke-width:0.25;"/>
<line x1="28.000000" y1="24.000000" x2="36.000000" y2="24.000000"  style="stroke:black; stroke-linecap:round; stroke-width:0.25;"/>
<line x1="28.000000" y1="40.000000" x2="28.000000" y2="24.000000"  style="stroke:black; stroke-linecap:round; stroke-width:0.25;"/>
<line x1="28.000000" y1="40.000000" x2="28.000000" y2="40.000000"  style="stroke:black; stroke-linecap:round; stroke-width:0.25;"/>
<line x1="36.000000" y1="24.000000" x2="81.800000" y2="24.000000"  style="stroke:black; stroke-linecap:round; stroke-width:0.25;"/>
<line x1="81.800000" y1="24.000000" x2="127.600000" y2="24.000000"  style="stroke:black; stroke-linecap:round; stroke-width:0.25;"/>
<line x1="91.600000" y1="44.000000" x2="95.600000" y2="44.000000"  style="stroke:black; stroke-linecap:round; stroke-width:0.25;"/>
<line x1="95.600000" y1="44.000000" x2="95.600000" y2="44.000000"  style="stroke:black; stroke-linecap:round; stroke-width:0.25;"/>
<line x1="95.600000" y1="44.000000" x2="99.600000" y2="44.000000"  style="stroke:black; stroke-linecap:round; stroke-width:0.25;"/>
<line x1="123.600000" y1="44.000000" x2="127.600000" y2="44.000000"  style="stroke:black; stroke-linecap:round; stroke-width:0.25;"/>
<line x1="127.600000" y1="24.000000" x2="135.600000" y2="24.000000"  style="stroke:black; stroke-linecap:round; stroke-width:0.25;"/>
<line x1="127.600000" y1="44.000000" x2="135.600000" y2="44.000000"  style="stroke:black; stroke-linecap:round; stroke-width:0.25;"/>
<line x1="135.600000" y1="24.000000" x2="135.600000" y2="36.000000"  style="stroke:black; stroke-linecap:round; stroke-width:0.25;"/>
<line x1="135.600000" y1="36.000000" x2="135.600000" y2="36.000000"  style="stroke:black; stroke-linecap:round; stroke-width:0.25;"/>
<line x1="135.600000" y1="36.000000" x2="139.600000" y2="36.000000"  style="stroke:black; stroke-linecap:round; stroke-width:0.25;"/>
<line x1="135.600000" y1="44.000000" x2="139.600000" y2="44.000000"  style="stroke:black; stroke-linecap:round; stroke-width:0.25;"/>
<line x1="163.600000" y1="40.000000" x2="167.600000" y2="40.000000"  style="stroke:black; stroke-linecap:round; stroke-width:0.25;"/>
<line x1="167.600000" y1="40.000000" x2="167.600000" y2="40.000000"  style="stroke:black; stroke-linecap:round; stroke-width:0.25;"/>
<line x1="167.600000" y1="40.000000" x2="171.600000" y2="40.000000"  style="stroke:black; stroke-linecap:round; stroke-width:0.25;"/>
<line x1="171.600000" y1="40.000000" x2="175.600000" y2="40.000000"  style="stroke:black; stroke-linecap:round; stroke-width:0.25;"/>
<line x1="175.600000" y1="40.000000" x2="185.600000" y2="40.000000"  style="stroke:black; stroke-linecap:round; stroke-width:0.25;"/>
</svg>
