<?xml version="1.0"?>
<svg xmlns="http://www.w3.org/2000/svg" xmlns:xlink="http://www.w3.org/1999/xlink" viewBox="0 0 178.300000 104.000000" width="89.150000mm" height="52.000000mm" version="1.1">
<a xlink:href="process.svg">
<rect x="0.000000" y="0.000000" width="177.300000" height="103.000000" rx="0" ry="0" style="stroke:#000000;fill:#FFFFFF;"/>
</a>
<text x="10.000000" y="7.000000" font-family="Verdana" font-size="7"></text>
<rect x="40.000000" y="24.000000" width="25.800000" height="24.000000" rx="0" ry="0" style="stroke:#000000;fill:#FFFFFF;"/>
<text x="52.900000" y="38.000000" font-family="Verdana" font-size="7" text-anchor="middle" fill="#000000">[25] x</text>
<circle cx="42.000000" cy="26.000000" r="1"/>
<line x1="37.000000" y1="35.000000" x2="40.000000" y2="36.000000"  transform="rotate(0.000000,40.000000,36.000000)" style="stroke: black; stroke-width:0.25;"/>
<line x1="37.000000" y1="37.000000" x2="40.000000" y2="36.000000"  transform="rotate(0.000000,40.000000,36.000000)" style="stroke: black; stroke-width:0.25;"/>
<rect x="40.000000" y="56.000000" width="25.800000" height="24.000000" rx="0" ry="0" style="stroke:#000000;fill:#FFFFFF;"/>
<text x="52.900000" y="70.000000" font-family="Verdana" font-size="7" text-anchor="middle" fill="#000000">[26] y</text>
<circle cx="42.000000" cy="58.000000" r="1"/>
<line x1="37.000000" y1="67.000000" x2="40.000000" y2="68.000000"  transform="rotate(0.000000,40.000000,68.000000)" style="stroke: black; stroke-width:0.25;"/>
<line x1="37.000000" y1="69.000000" x2="40.000000" y2="68.000000"  transform="rotate(0.000000,40.000000,68.000000)" style="stroke: black; stroke-width:0.25;"/>
<a xlink:href="nsum-0x60000105cc60.svg">
<rect x="73.800000" y="24.000000" width="64.500000" height="24.000000" rx="0" ry="0" style="stroke:#000000;fill:#FFFFFF;"/>
</a>
<a xlink:href="nsum-0x60000105cc60.svg">
<text x="106.050000" y="38.000000" font-family="Verdana" font-size="7" text-anchor="middle" fill="#000000">nsum(x25)(x26)</text>
</a>
<circle cx="75.800000" cy="26.000000" r="1"/>
<a xlink:href="ndif-0x60000105df80.svg">
<rect x="73.800000" y="56.000000" width="64.500000" height="24.000000" rx="0" ry="0" style="stroke:#000000;fill:#FFFFFF;"/>
</a>
<a xlink:href="ndif-0x60000105df80.svg">
<text x="106.050000" y="70.000000" font-family="Verdana" font-size="7" text-anchor="middle" fill="#000000">ndif(x25)(x26)</text>
</a>
<circle cx="75.800000" cy="58.000000" r="1"/>
<line x1="15.000000" y1="15.000000" x2="15.000000" y2="89.000000"  style="stroke: black; stroke-linecap:round; stroke-width:0.25; stroke-dasharray:3,3;"/>
<line x1="15.000000" y1="89.000000" x2="163.300000" y2="89.000000"  style="stroke: black; stroke-linecap:round; stroke-width:0.25; stroke-dasharray:3,3;"/>
<line x1="163.300000" y1="89.000000" x2="163.300000" y2="15.000000"  style="stroke: black; stroke-linecap:round; stroke-width:0.25; stroke-dasharray:3,3;"/>
<line x1="15.000000" y1="15.000000" x2="20.000000" y2="15.000000"  style="stroke: black; stroke-linecap:round; stroke-width:0.25; stroke-dasharray:3,3;"/>
<line x1="39.350000" y1="15.000000" x2="163.300000" y2="15.000000"  style="stroke: black; stroke-linecap:round; stroke-width:0.25; stroke-dasharray:3,3;"/>
<text x="20.000000" y="17.000000" font-family="Verdana" font-size="7">sdmx</text>
<line x1="165.300000" y1="47.000000" x2="168.300000" y2="48.000000"  transform="rotate(0.000000,168.300000,48.000000)" style="stroke: black; stroke-width:0.25;"/>
<line x1="165.300000" y1="49.000000" x2="168.300000" y2="48.000000"  transform="rotate(0.000000,168.300000,48.000000)" style="stroke: black; stroke-width:0.25;"/>
<line x1="165.300000" y1="55.000000" x2="168.300000" y2="56.000000"  transform="rotate(0.000000,168.300000,56.000000)" style="stroke: black; stroke-width:0.25;"/>
<line x1="165.300000" y1="57.000000" x2="168.300000" y2="56.000000"  transform="rotate(0.000000,168.300000,56.000000)" style="stroke: black; stroke-width:0.25;"/>
<line x1="10.000000" y1="48.000000" x2="20.000000" y2="48.000000"  style="stroke:black; stroke-linecap:round; stroke-width:0.25;"/>
<line x1="10.000000" y1="56.000000" x2="20.000000" y2="56.000000"  style="stroke:black; stroke-linecap:round; stroke-width:0.25;"/>
<line x1="20.000000" y1="48.000000" x2="24.000000" y2="48.000000"  style="stroke:black; stroke-linecap:round; stroke-width:0.25;"/>
<line x1="20.000000" y1="56.000000" x2="24.000000" y2="56.000000"  style="stroke:black; stroke-linecap:round; stroke-width:0.25;"/>
<line x1="24.000000" y1="48.000000" x2="28.000000" y2="48.000000"  style="stroke:black; stroke-linecap:round; stroke-width:0.25;"/>
<line x1="24.000000" y1="56.000000" x2="28.000000" y2="56.000000"  style="stroke:black; stroke-linecap:round; stroke-width:0.25;"/>
<line x1="28.000000" y1="36.000000" x2="36.000000" y2="36.000000"  style="stroke:black; stroke-linecap:round; stroke-width:0.25;"/>
<line x1="28.000000" y1="48.000000" x2="28.000000" y2="36.000000"  style="stroke:black; stroke-linecap:round; stroke-width:0.25;"/>
<line x1="28.000000" y1="48.000000" x2="28.000000" y2="48.000000"  style="stroke:black; stroke-linecap:round; stroke-width:0.25;"/>
<line x1="28.000000" y1="56.000000" x2="36.000000" y2="56.000000"  style="stroke:black; stroke-linecap:round; stroke-width:0.25;"/>
<line x1="36.000000" y1="36.000000" x2="40.000000" y2="36.000000"  style="stroke:black; stroke-linecap:round; stroke-width:0.25;"/>
<line x1="36.000000" y1="56.000000" x2="36.000000" y2="68.000000"  style="stroke:black; stroke-linecap:round; stroke-width:0.25;"/>
<line x1="36.000000" y1="68.000000" x2="36.000000" y2="68.000000"  style="stroke:black; stroke-linecap:round; stroke-width:0.25;"/>
<line x1="36.000000" y1="68.000000" x2="40.000000" y2="68.000000"  style="stroke:black; stroke-linecap:round; stroke-width:0.25;"/>
<line x1="138.300000" y1="36.000000" x2="142.300000" y2="36.000000"  style="stroke:black; stroke-linecap:round; stroke-width:0.25;"/>
<line x1="138.300000" y1="68.000000" x2="142.300000" y2="68.000000"  style="stroke:black; stroke-linecap:round; stroke-width:0.25;"/>
<line x1="142.300000" y1="36.000000" x2="150.300000" y2="36.000000"  style="stroke:black; stroke-linecap:round; stroke-width:0.25;"/>
<line x1="142.300000" y1="56.000000" x2="150.300000" y2="56.000000"  style="stroke:black; stroke-linecap:round; stroke-width:0.25;"/>
<line x1="142.300000" y1="68.000000" x2="142.300000" y2="56.000000"  style="stroke:black; stroke-linecap:round; stroke-width:0.25;"/>
<line x1="142.300000" y1="68.000000" x2="142.300000" y2="68.000000"  style="stroke:black; stroke-linecap:round; stroke-width:0.25;"/>
<line x1="150.300000" y1="36.000000" x2="150.300000" y2="48.000000"  style="stroke:black; stroke-linecap:round; stroke-width:0.25;"/>
<line x1="150.300000" y1="48.000000" x2="150.300000" y2="48.000000"  style="stroke:black; stroke-linecap:round; stroke-width:0.25;"/>
<line x1="150.300000" y1="48.000000" x2="154.300000" y2="48.000000"  style="stroke:black; stroke-linecap:round; stroke-width:0.25;"/>
<line x1="150.300000" y1="56.000000" x2="154.300000" y2="56.000000"  style="stroke:black; stroke-linecap:round; stroke-width:0.25;"/>
<line x1="154.300000" y1="48.000000" x2="158.300000" y2="48.000000"  style="stroke:black; stroke-linecap:round; stroke-width:0.25;"/>
<line x1="154.300000" y1="56.000000" x2="158.300000" y2="56.000000"  style="stroke:black; stroke-linecap:round; stroke-width:0.25;"/>
<line x1="158.300000" y1="48.000000" x2="168.300000" y2="48.000000"  style="stroke:black; stroke-linecap:round; stroke-width:0.25;"/>
<line x1="158.300000" y1="56.000000" x2="168.300000" y2="56.000000"  style="stroke:black; stroke-linecap:round; stroke-width:0.25;"/>
</svg>
